/* XPM */
static char * nt_mini_xpm[] = {
"15 16 182 2",
"  	c None",
". 	c #B5B5FB",
"+ 	c #ACADFA",
"@ 	c #A3A4F9",
"# 	c #989AF8",
"$ 	c #8E8EF7",
"% 	c #C5C6FC",
"& 	c #C5C7FC",
"* 	c #C2C4FB",
"= 	c #BABBFB",
"- 	c #AEAFFA",
"; 	c #A2A3F9",
"> 	c #9495F8",
", 	c #8587F7",
"' 	c #7B7BF6",
") 	c #CECFFD",
"! 	c #D7D8FD",
"~ 	c #DBDCFD",
"{ 	c #D4D5FD",
"] 	c #C8C8FC",
"^ 	c #B9BAFB",
"/ 	c #AAABFA",
"( 	c #9FA0F9",
"_ 	c #9797F8",
": 	c #8787F7",
"< 	c #7675F5",
"[ 	c #C4C5FB",
"} 	c #E5E6FE",
"| 	c #FEFEFF",
"1 	c #F2F3FE",
"2 	c #D2D3FD",
"3 	c #C1C1FB",
"4 	c #B1B2FA",
"5 	c #E0E0FD",
"6 	c #F6F2FF",
"7 	c #D7D5FE",
"8 	c #8583F7",
"9 	c #6766F2",
"0 	c #C4C4FB",
"a 	c #F8F8FF",
"b 	c #FFFAFE",
"c 	c #FEE5FC",
"d 	c #DAA0D1",
"e 	c #B875B7",
"f 	c #CA83DB",
"g 	c #F6C6FD",
"h 	c #F8F3FF",
"i 	c #B9B7FB",
"j 	c #7373F4",
"k 	c #6562F2",
"l 	c #B3B4FB",
"m 	c #C0C1FB",
"n 	c #D1D2FD",
"o 	c #E4E5FE",
"p 	c #FDEAFE",
"q 	c #FFD6FC",
"r 	c #F7CBF2",
"s 	c #C683C2",
"t 	c #F587F4",
"u 	c #F269FA",
"v 	c #D27BF1",
"w 	c #8382F5",
"x 	c #7172F4",
"y 	c #6462F3",
"z 	c #5A59F1",
"A 	c #B8BAFB",
"B 	c #C6C7FC",
"C 	c #E3AFE2",
"D 	c #FFC2FC",
"E 	c #FFEFFF",
"F 	c #FCFBFE",
"G 	c #FCE9FF",
"H 	c #EE72FA",
"I 	c #8F2FB1",
"J 	c #775EDB",
"K 	c #6E6EF4",
"L 	c #6160F2",
"M 	c #5654F1",
"N 	c #A1A1F9",
"O 	c #ADAEFA",
"P 	c #B8B8FB",
"Q 	c #BB7BBD",
"R 	c #EB8FE5",
"S 	c #FFE6FF",
"T 	c #FFFEFF",
"U 	c #FAF9FF",
"V 	c #B17DD4",
"W 	c #7821A0",
"X 	c #6F3DC2",
"Y 	c #6A69F4",
"Z 	c #5D5DF2",
"` 	c #524FF0",
" .	c #9798F8",
"..	c #A9AAFA",
"+.	c #B0AFFA",
"@.	c #A967BA",
"#.	c #CC63CC",
"$.	c #FDDCFD",
"%.	c #F7F6FF",
"&.	c #9E74D0",
"*.	c #721A9F",
"=.	c #6937BE",
"-.	c #6563F2",
";.	c #5957F1",
">.	c #4F4DEF",
",.	c #8D8EF7",
"'.	c #9494F8",
").	c #9B9BF8",
"!.	c #A0A0F9",
"~.	c #AB5FC9",
"{.	c #F369F8",
"].	c #F9D1FF",
"^.	c #F5F1FF",
"/.	c #E8E2FF",
"(.	c #CA5FF3",
"_.	c #7217A6",
":.	c #6542CE",
"<.	c #605EF2",
"[.	c #5450F0",
"}.	c #4C49EE",
"|.	c #8183F6",
"1.	c #8685F7",
"2.	c #8B8CF7",
"3.	c #9394F8",
"4.	c #D168F5",
"5.	c #DE4CF8",
"6.	c #D890F6",
"7.	c #AE8BE2",
"8.	c #C468F8",
"9.	c #C12BFB",
"0.	c #942FDF",
"a.	c #605CEC",
"b.	c #5856F1",
"c.	c #4D4BEF",
"d.	c #4745EE",
"e.	c #7879F6",
"f.	c #7E7DF6",
"g.	c #D462FB",
"h.	c #C933F8",
"i.	c #9324C2",
"j.	c #6E18A2",
"k.	c #9B26E2",
"l.	c #AD47FC",
"m.	c #B19CFE",
"n.	c #7270F6",
"o.	c #504EF0",
"p.	c #4744EF",
"q.	c #8482F7",
"r.	c #CBCAFF",
"s.	c #D1BCFE",
"t.	c #A98DFA",
"u.	c #6E5DE6",
"v.	c #6859E4",
"w.	c #6F65EF",
"x.	c #9F9EFE",
"y.	c #9F9BFF",
"z.	c #8C87FD",
"A.	c #4D49F0",
"B.	c #4541EE",
"C.	c #8F8CF8",
"D.	c #918DF9",
"E.	c #9492F9",
"F.	c #6F6CF4",
"G.	c #6362F2",
"H.	c #5F5DF2",
"I.	c #5B58F1",
"J.	c #716CF5",
"K.	c #706BF8",
"L.	c #6963F7",
"M.	c #5650F4",
"N.	c #5B5AF1",
"O.	c #5956F1",
"P.	c #5754F0",
"Q.	c #5352F0",
"R.	c #4B47EF",
"S.	c #4642EE",
"T.	c #4540EE",
"U.	c #4E4DEF",
"V.	c #4C49EF",
"W.	c #4845EF",
"X.	c #4744EE",
"Y.	c #4542EE",
"          . + @ # $           ",
"      % & * = - ; > , '       ",
"    ) ! ~ { ] ^ / ( _ : <     ",
"  [ } | | 1 2 3 4 5 6 7 8 9   ",
"  0 ! a b c d e f g h i j k   ",
"l m n o p q r s t u v w x y z ",
"/ A B n C D E F G H I J K L M ",
"N O P m Q R S T U V W X Y Z ` ",
" .N ..+.@.#.$.| %.&.*.=.-.;.>.",
",.'.).!.~.{.].^./.(._.:.<.[.}.",
"|.1.2.3.4.5.6.7.8.9.0.a.b.c.d.",
"  e.f.. g.h.i.j.k.l.m.n.o.p.  ",
"  K q.r.s.t.u.v.w.x.y.z.A.B.  ",
"    C.D.E.F.G.H.I.J.K.L.M.    ",
"      N.;.O.P.Q.>.R.S.T.      ",
"          U.V.W.X.Y.          "};
