/* XPM */
static char * nt_mini_xpm[] = {
"16 16 97 2",
"  	c None",
". 	c #252528",
"+ 	c #2C2C35",
"@ 	c #27272C",
"# 	c #26272C",
"$ 	c #222224",
"% 	c #27282E",
"& 	c #2A2A33",
"* 	c #2C2D38",
"= 	c #252529",
"- 	c #292A32",
"; 	c #5D6093",
"> 	c #2F303D",
", 	c #232326",
"' 	c #232325",
") 	c #282931",
"! 	c #27272E",
"~ 	c #282831",
"{ 	c #26262D",
"] 	c #2B2C37",
"^ 	c #6668B0",
"/ 	c #6E71C1",
"( 	c #2A2B35",
"_ 	c #292932",
": 	c #5E60A2",
"< 	c #6668B3",
"[ 	c #474871",
"} 	c #45466D",
"| 	c #6B6DBC",
"1 	c #7D80E2",
"2 	c #54568D",
"3 	c #292933",
"4 	c #323245",
"5 	c #6D6EC3",
"6 	c #797ADB",
"7 	c #7C7CE0",
"8 	c #8080E8",
"9 	c #6160A7",
"0 	c #2E2E3E",
"a 	c #27272F",
"b 	c #2A2A34",
"c 	c #2C2C39",
"d 	c #383954",
"e 	c #7172CD",
"f 	c #7778DA",
"g 	c #7B7BDF",
"h 	c #7F7EE6",
"i 	c #8481ED",
"j 	c #7B7ADC",
"k 	c #6E6CBC",
"l 	c #5C5B98",
"m 	c #3C3C57",
"n 	c #212122",
"o 	c #27272D",
"p 	c #25252B",
"q 	c #404065",
"r 	c #6D6EC6",
"s 	c #7676D9",
"t 	c #7979DD",
"u 	c #7E7DE4",
"v 	c #7A78D8",
"w 	c #5C5A99",
"x 	c #484770",
"y 	c #323244",
"z 	c #2A2B34",
"A 	c #2E2F41",
"B 	c #575B9E",
"C 	c #585B9D",
"D 	c #6164AC",
"E 	c #7375CD",
"F 	c #7F80E2",
"G 	c #55558B",
"H 	c #292931",
"I 	c #232327",
"J 	c #343754",
"K 	c #2F3145",
"L 	c #26272E",
"M 	c #26272D",
"N 	c #474972",
"O 	c #7E80DF",
"P 	c #6667AC",
"Q 	c #2B2B36",
"R 	c #212123",
"S 	c #202020",
"T 	c #222225",
"U 	c #24252A",
"V 	c #55588D",
"W 	c #7678CB",
"X 	c #2A2B3A",
"Y 	c #282936",
"Z 	c #2A2B36",
"` 	c #5B5C95",
" .	c #2E2E3B",
"..	c #282830",
"+.	c #242428",
"@.	c #2E2E3C",
"#.	c #2D2D39",
"                                ",
"                                ",
"                    . +         ",
"                @ # $ %         ",
"  & *         = - ; >           ",
"  , ' ) ! ~ { ] ^ / (           ",
"    _ : < [ } | 1 2 3           ",
"    3 4 5 6 6 7 8 9 0 a b c     ",
"      ~ d e f g h i j k l m n o ",
"      p q r s t u v w x y p ! z ",
"    { A B C D E F G ' H         ",
"  I , J K L M N O P Q           ",
"  R S T U     p V W y           ",
"  X Y           Z `  .          ",
"                  ..+.          ",
"                  @.#.          "};
