/* XPM */
static char * error_xpm[] = {
"16 16 25 1",
" 	c None",
".	c #FFFFFF",
"+	c #F80404",
"@	c #FF0505",
"#	c #960202",
"$	c #4E0101",
"%	c #8F0202",
"&	c #930202",
"*	c #FF0606",
"=	c #BD0303",
"-	c #A50303",
";	c #A60303",
">	c #A90303",
",	c #830202",
"'	c #860202",
")	c #620101",
"!	c #640101",
"~	c #900202",
"{	c #E10404",
"]	c #B40303",
"^	c #CE0404",
"/	c #CB0303",
"(	c #B00303",
"_	c #600101",
":	c #5C0101",
"                ",
"  ............  ",
"  .+@#$..@@%&.  ",
"  .**=$..@@-;.  ",
"  .**>$..@*,'.  ",
"  .**,$..@*)!.  ",
"  .@@)$..@@$$.  ",
"  .~=$$..{]$$.  ",
"  ..^$..../$..  ",
"   .@$.  .@$.   ",
"   .($.  .($.   ",
"   ....  ....   ",
"   .*).  .*).   ",
"   .*_.  .*:.   ",
"   ....  ....   ",
"                "};
