/* XPM */
static char * error_xpm[] = {
"16 16 95 2",
"  	c None",
". 	c #000000",
"+ 	c #B75E52",
"@ 	c #B75D51",
"# 	c #B45A50",
"$ 	c #B0574E",
"% 	c #BC6254",
"& 	c #BF6456",
"* 	c #C06557",
"= 	c #BB6154",
"- 	c #B75D52",
"; 	c #AA524A",
"> 	c #BD6254",
", 	c #C26758",
"' 	c #C76B5A",
") 	c #C96D5B",
"! 	c #BC6154",
"~ 	c #B55C51",
"{ 	c #AE564D",
"] 	c #A74E49",
"^ 	c #B96053",
"/ 	c #C16657",
"( 	c #C86D5A",
"_ 	c #CF715F",
": 	c #FFFFFF",
"< 	c #B95E53",
"[ 	c #B1584E",
"} 	c #A9514A",
"| 	c #A14A46",
"1 	c #C46858",
"2 	c #CC6F5D",
"3 	c #D47661",
"4 	c #BA6153",
"5 	c #B35A4F",
"6 	c #A9524A",
"7 	c #A14B46",
"8 	c #B3594F",
"9 	c #BB6054",
"0 	c #C46758",
"a 	c #CC6F5C",
"b 	c #D37661",
"c 	c #AA514B",
"d 	c #9A4341",
"e 	c #B1584F",
"f 	c #B85F53",
"g 	c #C16557",
"h 	c #CD705D",
"i 	c #B85E52",
"j 	c #A04A46",
"k 	c #984241",
"l 	c #AE554C",
"m 	c #B55B51",
"n 	c #C26658",
"o 	c #C66959",
"p 	c #B45B50",
"q 	c #AD554C",
"r 	c #A64E49",
"s 	c #9E4744",
"t 	c #964140",
"u 	c #A9514B",
"v 	c #AF574E",
"w 	c #B65C51",
"x 	c #BA6054",
"y 	c #BD6255",
"z 	c #BE6456",
"A 	c #B0564D",
"B 	c #A24B46",
"C 	c #9B4542",
"D 	c #933E3F",
"E 	c #AF564D",
"F 	c #B65B51",
"G 	c #A9524B",
"H 	c #A34D47",
"I 	c #A75049",
"J 	c #AB534B",
"K 	c #AD544D",
"L 	c #A34B46",
"M 	c #984341",
"N 	c #913C3D",
"O 	c #A04946",
"P 	c #A34C47",
"Q 	c #A54E47",
"R 	c #A54E48",
"S 	c #A04945",
"T 	c #9C4644",
"U 	c #974240",
"V 	c #923D3E",
"W 	c #9B4543",
"X 	c #9D4644",
"Y 	c #9D4744",
"Z 	c #9C4743",
"` 	c #95403F",
" .	c #954040",
"..	c #943F3F",
"+.	c #903C3D",
"          . . . . . .           ",
"      . . . + @ # $ . . .       ",
"    . . % & * & = - $ ; . .     ",
"  . . > , ' ) . . ! ~ { ] . .   ",
"  . ^ / ( _ . : : . < [ } | .   ",
". . = 1 2 3 . : : . 4 5 6 7 . . ",
". 8 9 0 a b . : : . 9 8 c 7 d . ",
". e f g ' h . : : . i $ } j k . ",
". l m = n o . : : . p q r s t . ",
". u v w x y z . . ~ A } B C D . ",
". . ; E 8 F . : : . G H s t . . ",
"  . H I J K . : : . L s M N .   ",
"  . . O P Q R . . S T U V . .   ",
"    . . W X Y Z C M ` N . .     ",
"      . . .  ...D +.. . .       ",
"          . . . . . .           "};
