/* XPM */
static char * from_server_xpm[] = {
"16 16 90 1",
" 	c None",
".	c #000000",
"+	c #57A2B1",
"@	c #569FAF",
"#	c #539BAA",
"$	c #4F94A4",
"%	c #5DABB9",
"&	c #5FADBB",
"*	c #5EADBB",
"=	c #5CA9B8",
"-	c #59A3B3",
";	c #549CAC",
">	c #4E93A3",
",	c #498B9B",
"'	c #5FAEBD",
")	c #63B5C3",
"!	c #66B8C6",
"~	c #65B8C6",
"{	c #62B3C1",
"]	c #5EABBA",
"^	c #58A3B2",
"/	c #5299A9",
"(	c #4C8FA0",
"_	c #468596",
":	c #5DABBA",
"<	c #64B5C3",
"[	c #68BECC",
"}	c #6BC2CF",
"|	c #67BBC9",
"1	c #61B2C0",
"2	c #559EAD",
"3	c #478899",
"4	c #427D8F",
"5	c #65B9C7",
"6	c #FFFFFF",
"7	c #6AC1CE",
"8	c #5094A5",
"9	c #49899B",
"0	c #427F91",
"a	c #5FAEBC",
"b	c #6CC3D1",
"c	c #498A9B",
"d	c #427F90",
"e	c #3B7485",
"f	c #57A1B0",
"g	c #63B4C2",
"h	c #68BDCA",
"i	c #6BC1CF",
"j	c #5BA7B6",
"k	c #417E8E",
"l	c #3A7284",
"m	c #539CAB",
"n	c #59A5B4",
"o	c #64B7C5",
"p	c #58A2B1",
"q	c #3F7A8C",
"r	c #397082",
"s	c #5096A5",
"t	c #559DAD",
"u	c #59A4B4",
"v	c #5CAAB9",
"w	c #58A2B2",
"x	c #438092",
"y	c #3C7788",
"z	c #386F81",
"A	c #4F95A5",
"B	c #559EAE",
"C	c #458394",
"D	c #3F7B8C",
"E	c #3A7183",
"F	c #4A8C9C",
"G	c #4D90A1",
"H	c #5095A5",
"I	c #4F93A3",
"J	c #407C8E",
"K	c #3B7385",
"L	c #478698",
"M	c #48899B",
"N	c #4A8B9C",
"O	c #48889A",
"P	c #3B7386",
"Q	c #387082",
"R	c #428091",
"S	c #438091",
"T	c #427E8F",
"U	c #3D7789",
"V	c #397183",
"W	c #396F81",
"X	c #3C7586",
"Y	c #3A7385",
"     ......     ",
"   ...+@#$...   ",
"  ..%&*=-;>,..  ",
" ..')!~{]^/(_.. ",
" .:<[.}|1.2>34. ",
"..'5.6.7.6.890..",
".^a5b.6.).6.cde.",
".f%ghi.6.j.6.kl.",
".mn*{o.6.p.6.qr.",
".stuv.6.w.6.xyz.",
"..A#.6.B.6.CDE..",
" .FG$.HI(.CJKz. ",
" ..LMNcO_xDPQ.. ",
"  ..dRSTDUVW..  ",
"   ...XYVz...   ",
"     ......     "};
