/* XPM */
static char * from_server_xpm[] = {
"16 16 76 1",
" 	c None",
".	c #FFFFFF",
"+	c #4279FF",
"@	c #3F73FF",
"#	c #101E51",
"$	c #3B6DFF",
"%	c #172A70",
"&	c #101D4E",
"*	c #3A6BFF",
"=	c #284AC4",
"-	c #2544B3",
";	c #2341AC",
">	c #2442AD",
",	c #3058E8",
"'	c #3765FF",
")	c #2A4DCC",
"!	c #3E71FF",
"~	c #447DFF",
"{	c #3B6CFF",
"]	c #335EF8",
"^	c #3764FF",
"/	c #2E55E0",
"(	c #203B9B",
"_	c #3C6EFF",
":	c #4985FF",
"<	c #457FFF",
"[	c #3969FF",
"}	c #3A6AFF",
"|	c #315AEE",
"1	c #2749C0",
"2	c #1D358D",
"3	c #3F74FF",
"4	c #4884FF",
"5	c #4783FF",
"6	c #3D71FF",
"7	c #3766FF",
"8	c #3663FF",
"9	c #325DF5",
"0	c #2E54DD",
"a	c #2442AF",
"b	c #182D77",
"c	c #3D6FFF",
"d	c #4782FF",
"e	c #3562FF",
"f	c #3561FF",
"g	c #3460FD",
"h	c #325CF2",
"i	c #2545B6",
"j	c #172B71",
"k	c #457EFF",
"l	c #427AFF",
"m	c #3866FF",
"n	c #345FFA",
"o	c #294CC8",
"p	c #1D358C",
"q	c #2E55E1",
"r	c #2D53DA",
"s	c #315AEC",
"t	c #2A4ECE",
"u	c #1E3894",
"v	c #112055",
"w	c #3968FF",
"x	c #325BF1",
"y	c #284AC2",
"z	c #223EA4",
"A	c #2645B7",
"B	c #2B4ECF",
"C	c #2B4FD2",
"D	c #13235C",
"E	c #294BC5",
"F	c #122259",
"G	c #1C3387",
"H	c #2443B0",
"I	c #192E7B",
"J	c #2F57E5",
"K	c #2C51D5",
"       ...      ",
"       .+..     ",
"       .@#..    ",
"........$%&..   ",
".*=-;;>,')&&..  ",
".!~{]]^$*/(&&.. ",
"._:<_[}$[|12&&..",
".3456[77890ab&&.",
".cd<{^efgh/ij&&_",
".eklmn]n],op&&&.",
".}37qrq|stuv&&..",
".wxyzzABCzD&&.. ",
".EF&&&&GHI&&..  ",
"........B&&..   ",
"       .J&..    ",
"       .K..     "};
