/* XPM */
static char * offline_xpm[] = {
"14 14 8 1",
" 	c None",
".	c #000000",
"+	c #9BB8DD",
"@	c #B2D4EE",
"#	c #C8EFFF",
"$	c #849CCC",
"%	c #6E80BA",
"&	c #5764A9",
"              ",
"              ",
"..............",
"++++++++++++++",
"@@@@@@@@@@@@@@",
"##############",
"@@@@@@@@@@@@@@",
"++++++++++++++",
"$$$$$$$$$$$$$$",
"%%%%%%%%%%%%%%",
"&&&&&&&&&&&&&&",
"..............",
"              ",
"              "};
