/* XPM */
static char * ok_xpm[] = {
"16 16 72 1",
" 	c None",
".	c #000000",
"+	c #BEB178",
"@	c #BBAD75",
"#	c #B8A972",
"$	c #B3A46D",
"%	c #C4B87F",
"&	c #C6BA81",
"*	c #C4B880",
"=	c #C1B57C",
"-	c #BDAF77",
";	c #B7A971",
">	c #B2A26B",
",	c #AC9B64",
"'	c #C7BC82",
")	c #CBC187",
"!	c #CDC289",
"~	c #CBBF86",
"{	c #C6BB82",
"]	c #C2B57C",
"^	c #B5A56E",
"/	c #AE9E67",
"(	c #A89660",
"_	c #C5BA81",
":	c #CCC187",
"<	c #D1C88D",
"[	c #D3CB90",
"}	c #D1C68C",
"|	c #BEB077",
"1	c #B7A870",
"2	c #B0A069",
"3	c #A99861",
"4	c #A7945E",
"5	c #C6BA82",
"6	c #CDC38A",
"7	c #D4CB91",
"8	c #C5B980",
"9	c #AA9962",
"0	c #A6955F",
"a	c #BFB179",
"b	c #C5B981",
"c	c #CBC087",
"d	c #FFFFFF",
"e	c #A6945E",
"f	c #BCAF77",
"g	c #C2B67D",
"h	c #B9AA72",
"i	c #BDB178",
"j	c #A7955F",
"k	c #B4A56D",
"l	c #B8AA72",
"m	c #BCAE76",
"n	c #B3A36C",
"o	c #B6A76F",
"p	c #B7A972",
"q	c #B5A76F",
"r	c #B2A36C",
"s	c #A99862",
"t	c #A7955E",
"u	c #AD9C66",
"v	c #AF9F68",
"w	c #B1A16A",
"x	c #B1A06A",
"y	c #AF9E67",
"z	c #AC9B65",
"A	c #A89760",
"B	c #A6945F",
"C	c #A99760",
"D	c #AA9862",
"E	c #AB9963",
"F	c #A7945F",
"G	c #A6955E",
"     ......     ",
"   ...+@#$...   ",
"  ..%&*=-;>,..  ",
" ..')!~{]@^/(.. ",
" ._:<[}~%|1234. ",
"..567..:8.;.90..",
".abc.dd..d.d.0e.",
".fg.d..d.dd.(00.",
".hi.d..d.d.d.jj.",
".klm.dd..d.d.0e.",
"..nop..qr.s.et..",
" .uvwwxyzAjBtt. ",
" ..CDE9(jFtjt.. ",
"  ..ejtGtjeF..  ",
"   ...0jBj...   ",
"     ......     "};
