/* XPM */
static char * ok_xpm[] = {
"16 16 37 1",
" 	c None",
".	c #FFFFFF",
"+	c #28FF3C",
"@	c #29FF3C",
"#	c #0B4E11",
"$	c #28FF3B",
"%	c #27FF3A",
"&	c #2CFF41",
"*	c #1DC52B",
"=	c #1DC82C",
"-	c #1DC22A",
";	c #1CC12A",
">	c #26FF38",
",	c #2DFF43",
"'	c #0C5512",
")	c #107018",
"!	c #1AB327",
"~	c #1AB427",
"{	c #1AB227",
"]	c #1BB628",
"^	c #2EFF44",
"/	c #30FF48",
"(	c #2FFF45",
"_	c #2FFF46",
":	c #25FD37",
"<	c #1AB026",
"[	c #1BBA28",
"}	c #1CBD29",
"|	c #179D22",
"1	c #12791A",
"2	c #1BB728",
"3	c #20D92F",
"4	c #1FD22E",
"5	c #1ECE2D",
"6	c #20D72F",
"7	c #1FD62F",
"8	c #27FF39",
"      .....     ",
"      .+@#.     ",
"      .+@#.     ",
"      .$@#.     ",
"      .%@#.     ",
" ......&@#......",
" .*=-;>,@')!~{].",
" .^/^(_,:*<[}|;.",
" .####123######.",
" ......45#......",
"      .>6#.     ",
"      .>7#.     ",
"      .>;#.     ",
"      .83#.     ",
"      .....     ",
"                "};
