/* XPM */
static char * to_server_xpm[] = {
"16 16 73 1",
" 	c None",
".	c #FFFFFF",
"+	c #165764",
"@	c #3CEEFF",
"#	c #11444E",
"$	c #3CF0FF",
"%	c #40FCFF",
"&	c #41FFFF",
"*	c #42FFFF",
"=	c #165866",
"-	c #1A6979",
";	c #289DB6",
">	c #289FB7",
",	c #279CB4",
"'	c #2699B0",
")	c #3DF1FF",
"!	c #49FFFF",
"~	c #38DFFF",
"{	c #34D0F1",
"]	c #37D9FA",
"^	c #38DEFF",
"/	c #37DAFC",
"(	c #32C6E4",
"_	c #3DF3FF",
":	c #4AFFFF",
"<	c #45FFFF",
"[	c #3FF9FF",
"}	c #39E3FF",
"|	c #38DDFF",
"1	c #3AE5FF",
"2	c #3AE8FF",
"3	c #2FB9D6",
"4	c #208094",
"5	c #3EF5FF",
"6	c #43FFFF",
"7	c #4CFFFF",
"8	c #47FFFF",
"9	c #3BE9FF",
"0	c #38E0FF",
"a	c #34CFEF",
"b	c #2BACC7",
"c	c #1C7283",
"d	c #33CCEB",
"e	c #3CEFFF",
"f	c #3CECFF",
"g	c #37DBFD",
"h	c #36D7F8",
"i	c #33CAEA",
"j	c #2AA6C0",
"k	c #1B6D7E",
"l	c #2593A9",
"m	c #35D4F5",
"n	c #31C3E1",
"o	c #29A2BB",
"p	c #1B6A7B",
"q	c #248EA4",
"r	c #33C9E8",
"s	c #30BDDA",
"t	c #2FBBD7",
"u	c #2EB7D3",
"v	c #2CAEC9",
"w	c #186271",
"x	c #238CA2",
"y	c #35D2F2",
"z	c #2BABC5",
"A	c #2594AB",
"B	c #2490A6",
"C	c #238BA1",
"D	c #1E798C",
"E	c #165967",
"F	c #2696AD",
"G	c #22889D",
"H	c #21859A",
"      ...       ",
"     ..+.       ",
"    ..@#.       ",
"   ..$%#........",
"  ..$&*=-;>>,'#.",
" ..)*!*~{]^/('#.",
".._*:<[}|12/34#.",
".5678%9~|0|abc#.",
"de!8&f~ggghijk#.",
".lj)e}ghmm{nop#.",
"..q>^0hrstuvlw#.",
" ..x,y(zABqCDE#.",
"  ..CFv########.",
"   ..Gx#........",
"    ..H#.       ",
"     ..#.       "};
