/* XPM */
static char * to_server_xpm[] = {
"16 16 86 1",
" 	c None",
".	c #000000",
"+	c #7E80D2",
"@	c #7C7FD1",
"#	c #7A7BCF",
"$	c #7676CC",
"%	c #8186D7",
"&	c #8489D9",
"*	c #858AD9",
"=	c #8387D7",
"-	c #7F83D4",
";	c #7B7DD0",
">	c #706FC7",
",	c #8388D8",
"'	c #888EDB",
")	c #8A92DE",
"!	c #8B93DF",
"~	c #8990DD",
"{	c #7F83D5",
"]	c #7473CA",
"^	c #6D6AC4",
"/	c #8084D5",
"(	c #878CDB",
"_	c #8C94E0",
":	c #909BE4",
"<	c #8E98E2",
"[	c #8388D7",
"}	c #7575CC",
"|	c #6F6CC5",
"1	c #6864BF",
"2	c #888FDC",
"3	c #8F99E2",
"4	c #FFFFFF",
"5	c #706EC7",
"6	c #6964C0",
"7	c #7B7CD1",
"8	c #8186D6",
"9	c #919BE4",
"0	c #7777CC",
"a	c #6F6DC6",
"b	c #6864C1",
"c	c #625CBB",
"d	c #797ACE",
"e	c #8083D4",
"f	c #8F99E3",
"g	c #7C7ED1",
"h	c #7576CB",
"i	c #6F6CC6",
"j	c #6863BF",
"k	c #615AB9",
"l	c #7676CD",
"m	c #7C7ED2",
"n	c #787ACF",
"o	c #7371C9",
"p	c #6D69C3",
"q	c #6660BD",
"r	c #6058B8",
"s	c #7271C8",
"t	c #7878CD",
"u	c #8184D5",
"v	c #6965C1",
"w	c #645DBB",
"x	c #5F56B7",
"y	c #7272C9",
"z	c #7677CD",
"A	c #797BCF",
"B	c #5F59B8",
"C	c #706FC6",
"D	c #7372C9",
"E	c #7474CA",
"F	c #7270C8",
"G	c #6E6CC5",
"H	c #6661BD",
"I	c #5F57B7",
"J	c #6A66C1",
"K	c #6C68C3",
"L	c #6E6BC4",
"M	c #6E6BC5",
"N	c #6C69C3",
"O	c #6B67C2",
"P	c #655FBC",
"Q	c #6661BE",
"R	c #6761BE",
"S	c #655EBC",
"T	c #5F57B8",
"U	c #5E57B7",
"     ......     ",
"   ...+@#$...   ",
"  ..%&*=-;$>..  ",
" ..,')!~*{#]^.. ",
" ./(_:.<~[.}|1. ",
"..%23.4.!.4.56..",
".782.4.9.4.0abc.",
".de.4.f.4.ghijk.",
".lm.4.~.4.nopqr.",
".stg.4.u.4.avwx.",
"..yzA.4.t.4.qB..",
" .^CDE.]FG.HkI. ",
" ..JKLMNOjPkx.. ",
"  ..qQRqScTI..  ",
"   ...rTUT...   ",
"     ......     "};
