/* XPM */
static char * warning_xpm[] = {
"16 16 80 1",
" 	c None",
".	c #000000",
"+	c #83A947",
"@	c #82A846",
"#	c #80A546",
"$	c #7DA244",
"%	c #87AD49",
"&	c #89AF49",
"*	c #89B04A",
"=	c #87AE49",
"-	c #85AB48",
";	c #81A746",
">	c #7DA344",
",	c #799D42",
"'	c #88B04A",
")	c #8BB44C",
"!	c #8EB64D",
"~	c #8EB64C",
"{	c #85AC48",
"]	c #80A646",
"^	c #7BA043",
"/	c #779B40",
"(	c #8CB34C",
"_	c #91B84E",
":	c #93BC50",
"<	c #FFFFFF",
"[	c #789D41",
"}	c #72963E",
"|	c #8EB54D",
"1	c #93BC4F",
"2	c #7EA444",
"3	c #799D41",
"4	c #73973F",
"5	c #82A947",
"6	c #95BE50",
"7	c #90B74E",
"8	c #799E42",
"9	c #74973F",
"0	c #6E913C",
"a	c #8CB44B",
"b	c #93BB4F",
"c	c #8EB54C",
"d	c #73973E",
"e	c #6D903C",
"f	c #80A645",
"g	c #8AB04A",
"h	c #8DB44C",
"i	c #7CA143",
"j	c #769B40",
"k	c #71953E",
"l	c #6D8F3A",
"m	c #7DA243",
"n	c #81A745",
"o	c #88AF49",
"p	c #8AB14A",
"q	c #8AB14B",
"r	c #7EA445",
"s	c #7A9E42",
"t	c #75993F",
"u	c #70933D",
"v	c #6A8D3A",
"w	c #7DA343",
"x	c #81A646",
"y	c #84AA48",
"z	c #71953D",
"A	c #6C903B",
"B	c #7EA545",
"C	c #7FA545",
"D	c #7EA344",
"E	c #799E41",
"F	c #769B41",
"G	c #73963E",
"H	c #6A8C3A",
"I	c #769A40",
"J	c #6E923C",
"K	c #73983E",
"L	c #74983F",
"M	c #6F933C",
"N	c #6E903C",
"O	c #6C8F3B",
"     ......     ",
"   ...+@#$...   ",
"  ..%&*=-;>,..  ",
" ..')!~..{]^/.. ",
" .%(_:.<<.+>[}. ",
"..'|1.<..<.234..",
".5'!.<.67.<.890.",
".@=a.<.bc.<.3de.",
".f-gh.7~.<.ijkl.",
".mn{opq.<.rstuv.",
"..wx+y-.<.^jzA..",
" .3^>BCD.EFG0H. ",
" ..I[38.<.kJv.. ",
"  ..}KLd.MeH..  ",
"   ...0NOv...   ",
"     ......     "};
