/* XPM */
static char * warning_xpm[] = {
"16 16 41 1",
" 	c None",
".	c #FFFFFF",
"+	c #D0FFD4",
"@	c #A1FFA9",
"#	c #74FF83",
"$	c #62B169",
"%	c #79A87D",
"&	c #C9DBCB",
"*	c #28FF3B",
"=	c #2CFF40",
"-	c #22E532",
";	c #32FF4A",
">	c #23F134",
",	c #0F6416",
"'	c #B2E3B6",
")	c #26622C",
"!	c #789D7B",
"~	c #ADC4AF",
"{	c #96C89A",
"]	c #1DC42B",
"^	c #11781A",
"/	c #6DF778",
"(	c #1AB327",
"_	c #0B4E11",
":	c #44FF58",
"<	c #417546",
"[	c #B7FFBD",
"}	c #43FF55",
"|	c #18A424",
"1	c #E4EBE4",
"2	c #B9FFC0",
"3	c #2DFF42",
"4	c #92B095",
"5	c #B5F7BB",
"6	c #E7FFE9",
"7	c #B5F4BA",
"8	c #D1FFD5",
"9	c #73FF81",
"0	c #5D8D61",
"a	c #C9D8CA",
"b	c #30FF47",
"                ",
"      .....     ",
"    .+@#$%&.    ",
"    .*=-;>,'.   ",
"    .)!~{]^).   ",
"    ...../(_.   ",
"       ..:_<.   ",
"      .[}|)1.   ",
"      23_4..    ",
"      5(_.      ",
"      67~.      ",
"      890a      ",
"      2b_~      ",
"      ....      ",
"                ",
"                "};
