/* XPM */
static char * add_xpm[] = {
"24 24 133 2",
"  	c None",
". 	c #000000",
"+ 	c #FFFFFF",
"@ 	c #00B7FF",
"# 	c #0092F7",
"$ 	c #0083F7",
"% 	c #007FFF",
"& 	c #F2FBFF",
"* 	c #1484F7",
"= 	c #0D7BF7",
"- 	c #0360D8",
"; 	c #005ED8",
"> 	c #2886F1",
", 	c #2689F7",
"' 	c #0F5EC1",
") 	c #107FFB",
"! 	c #58ABFF",
"~ 	c #4FA6FF",
"{ 	c #257CE0",
"] 	c #2890FD",
"^ 	c #78BBFF",
"/ 	c #6CB5FF",
"( 	c #3283DB",
"_ 	c #3D99FC",
": 	c #97CBFF",
"< 	c #89C3FF",
"[ 	c #4E9CED",
"} 	c #59ACFF",
"| 	c #B5DAFF",
"1 	c #BDDEFF",
"2 	c #A2D0FF",
"3 	c #7ABBFD",
"4 	c #51A1F5",
"5 	c #479FFD",
"6 	c #2E95FF",
"7 	c #D9EDFF",
"8 	c #FEFEFF",
"9 	c #B8DEFF",
"0 	c #6CB4FD",
"a 	c #479DF9",
"b 	c #2E8FFA",
"c 	c #1687FE",
"d 	c #FDFEFF",
"e 	c #C0E1FF",
"f 	c #8CC5FD",
"g 	c #6AB2FB",
"h 	c #3D92ED",
"i 	c #257EE6",
"j 	c #1687F9",
"k 	c #46D470",
"l 	c #32CD61",
"m 	c #13AE41",
"n 	c #BFE7FF",
"o 	c #F7FFFF",
"p 	c #D0E7FF",
"q 	c #87C3FD",
"r 	c #4096F3",
"s 	c #1A6ACA",
"t 	c #0F76E4",
"u 	c #008BFF",
"v 	c #7AE89B",
"w 	c #54BF74",
"x 	c #36B45C",
"y 	c #BDF3FF",
"z 	c #F6FFFF",
"A 	c #66B2FF",
"B 	c #368DED",
"C 	c #1461BF",
"D 	c #0B73E3",
"E 	c #00B0FF",
"F 	c #95D7A9",
"G 	c #79CD92",
"H 	c #3B77FF",
"I 	c #ACF0FC",
"J 	c #96CFFF",
"K 	c #446BFE",
"L 	c #3F67FE",
"M 	c #2E4DD9",
"N 	c #2548D9",
"O 	c #1837A3",
"P 	c #0B2A98",
"Q 	c #BCE6C8",
"R 	c #69C785",
"S 	c #2E6DFF",
"T 	c #75D5FC",
"U 	c #8FC4FD",
"V 	c #3C6EFF",
"W 	c #2C51F2",
"X 	c #2448D9",
"Y 	c #153AC7",
"Z 	c #0C277C",
"` 	c #84ECA2",
" .	c #B7F9CB",
"..	c #CFEDD8",
"+.	c #A0DBB2",
"@.	c #71CA8B",
"#.	c #42B865",
"$.	c #12A73F",
"%.	c #15C64B",
"&.	c #2A78FC",
"*.	c #379DF5",
"=.	c #1D49F4",
"-.	c #1941E6",
";.	c #153DD7",
">.	c #1036B6",
",.	c #062179",
"'.	c #79E79A",
").	c #3CB660",
"!.	c #16D04E",
"~.	c #1759FF",
"{.	c #154FF9",
"].	c #1240E3",
"^.	c #0C32C7",
"/.	c #0B32CF",
"(.	c #062793",
"_.	c #03269F",
":.	c #2BB053",
"<.	c #12B844",
"[.	c #15C349",
"}.	c #0940D9",
"|.	c #083ED3",
"1.	c #0844D2",
"2.	c #0430CD",
"3.	c #0137A4",
"4.	c #0050D3",
"5.	c #0052E1",
"6.	c #005DD5",
"7.	c #005ED9",
"8.	c #0055C3",
"9.	c #0069E9",
"0.	c #14C248",
"a.	c #14BA46",
"b.	c #18E355",
"                                                ",
"                                                ",
"        . . . . . . . .                         ",
"      . + + + + @ # $ % .                       ",
"        . & * = - ; % .                         ",
"          . > , ' ) .                           ",
"          . ! ~ { ] .                           ",
"          . ^ / ( _ .                           ",
"        . . : < [ } . .                         ",
"      . | 1 | 2 3 4 5 6 .                       ",
"    . | 7 + 8 9 : 0 a b c .   . . .             ",
"    . 1 + + d e f g h i j . . k l m .           ",
"  . : n o + p | q ^ r s t u . v w x .           ",
"  . < y z 1 | 2 < A B C D E . F G w .           ",
"  . H I J K L M N O P . . . . Q F R . . . .     ",
"  . S T U V W X Y Z . `  ...+ ..+.@.#.$.$.%..   ",
"    . &.*.=.-.;.>.,.. '.F Q ..Q F R ).$.$.!..   ",
"    . ~.{.].^./.(._.. w G F +.F G w :.$.<.[..   ",
"      . }.|.1.2.3.4.5.. . . . R w x . . . .     ",
"        . . 6.7.8.9.. .     . ).:.$..           ",
"            . . . .         . $.$.0..           ",
"                            . a.b.b..           ",
"                              . . .             ",
"                                                "};
