/* XPM */
static char * add_xpm[] = {
"24 24 100 2",
"  	c None",
". 	c #000000",
"+ 	c #FFFFFF",
"@ 	c #C8E8F7",
"# 	c #F2FBFF",
"$ 	c #89BDD8",
"% 	c #B6DDF1",
"& 	c #6EA5C1",
"* 	c #D5EFFB",
"= 	c #94C7E0",
"- 	c #E5F5FD",
"; 	c #8DC1DB",
"> 	c #DDF1FC",
", 	c #ACD7ED",
"' 	c #FAFDFF",
") 	c #E4F5FD",
"! 	c #C0E3F5",
"~ 	c #CDEAF9",
"{ 	c #D2ECFA",
"] 	c #E9F7FE",
"^ 	c #D9F0FB",
"/ 	c #9FCEE6",
"( 	c #CEEBF9",
"_ 	c #46D470",
": 	c #32CD61",
"< 	c #13AE41",
"[ 	c #BADFF3",
"} 	c #78AECA",
"| 	c #9BCCE4",
"1 	c #7AE89B",
"2 	c #54BF74",
"3 	c #36B45C",
"4 	c #85A6FF",
"5 	c #A6D0FF",
"6 	c #7790FF",
"7 	c #6E85FE",
"8 	c #6A81FE",
"9 	c #5665D9",
"0 	c #4553A4",
"a 	c #334BA5",
"b 	c #2A4ABD",
"c 	c #334FAB",
"d 	c #6679EC",
"e 	c #95D7A9",
"f 	c #79CD92",
"g 	c #7D9EFF",
"h 	c #95CFFC",
"i 	c #6E86FF",
"j 	c #697FFF",
"k 	c #5D6EF2",
"l 	c #5263D7",
"m 	c #3D4988",
"n 	c #294293",
"o 	c #BCE6C8",
"p 	c #69C785",
"q 	c #7693FF",
"r 	c #749DFC",
"s 	c #7499FD",
"t 	c #6072F9",
"u 	c #5B6BEC",
"v 	c #5766DE",
"w 	c #3750AF",
"x 	c #2F438D",
"y 	c #84ECA2",
"z 	c #B7F9CB",
"A 	c #CFEDD8",
"B 	c #A0DBB2",
"C 	c #71CA8B",
"D 	c #42B865",
"E 	c #12A73F",
"F 	c #15C64B",
"G 	c #688EFC",
"H 	c #4D6FF3",
"I 	c #4962E5",
"J 	c #445DD5",
"K 	c #465FDD",
"L 	c #394B9D",
"M 	c #264193",
"N 	c #79E79A",
"O 	c #3CB660",
"P 	c #16D04E",
"Q 	c #485ED5",
"R 	c #445CD2",
"S 	c #3652C5",
"T 	c #3651C0",
"U 	c #304698",
"V 	c #2F4FBD",
"W 	c #2BB053",
"X 	c #12B844",
"Y 	c #15C349",
"Z 	c #455CD3",
"` 	c #4157C3",
" .	c #4564DE",
"..	c #586FF0",
"+.	c #5263D9",
"@.	c #4B67F3",
"#.	c #6578FF",
"$.	c #14C248",
"%.	c #14BA46",
"&.	c #18E355",
"                                                ",
"                                                ",
"        . . . . . . . .                         ",
"      . + + + + + @ @ + .                       ",
"        . # @ @ $ $ + .                         ",
"          . % @ & * .                           ",
"          . + + = - .                           ",
"          . + + ; > .                           ",
"        . . + + , ' . .                         ",
"      . + + + + ) ! - # .                       ",
"    . + + + + + + - ~ { ] .   . . .             ",
"    . + + + + + ) ^ , / ( . . _ : < .           ",
"  . + + + + + + ) + [ } | # . 1 2 3 .           ",
"  . 4 5 6 7 8 9 9 0 a b c d . e f 2 .           ",
"  . g h i j k 9 l m n . . . . o e p . . . .     ",
"  . q r s t u v w x . y z A + A B C D E E F .   ",
"    . G H I J K L M . N e o A o e p O E E P .   ",
"    . v Q R S T U V . 2 f e B e f 2 W E X Y .   ",
"      . 9 Z R R `  .... . . . p 2 3 . . . .     ",
"        . . Q +.@.#.. .     . O W E .           ",
"            . . . .         . E E $..           ",
"                            . %.&.&..           ",
"                              . . .             ",
"                                                "};
