/* XPM */
static char * add_clipboard_xpm[] = {
"24 24 179 2",
"  	c None",
". 	c #000000",
"+ 	c #D5CAAC",
"@ 	c #D8CDAE",
"# 	c #BEB598",
"$ 	c #C0B79A",
"% 	c #C2B99C",
"& 	c #FFFFFF",
"* 	c #C8E8F7",
"= 	c #9A9071",
"- 	c #A59A79",
"; 	c #AEA27F",
"> 	c #B2A682",
", 	c #B4A884",
"' 	c #908669",
") 	c #DCD1B2",
"! 	c #F2FBFF",
"~ 	c #89BDD8",
"{ 	c #736C54",
"] 	c #80775E",
"^ 	c #B9B095",
"/ 	c #D0C5A8",
"( 	c #8D8367",
"_ 	c #B3A783",
": 	c #DFD4B4",
"< 	c #B0A481",
"[ 	c #A39878",
"} 	c #B6DDF1",
"| 	c #6EA5C1",
"1 	c #D5EFFB",
"2 	c #575140",
"3 	c #5D5744",
"4 	c #706852",
"5 	c #ADA48B",
"6 	c #83795F",
"7 	c #5B5442",
"8 	c #E0D5B5",
"9 	c #B1A581",
"0 	c #A79C7A",
"a 	c #94C7E0",
"b 	c #E5F5FD",
"c 	c #514B3B",
"d 	c #5D5644",
"e 	c #756D55",
"f 	c #9D967E",
"g 	c #857C61",
"h 	c #5C5542",
"i 	c #ADA27F",
"j 	c #8DC1DB",
"k 	c #DDF1FC",
"l 	c #647175",
"m 	c #7B8A8F",
"n 	c #A1B3B9",
"o 	c #C4DAE1",
"p 	c #D8EFF6",
"q 	c #DFF6FD",
"r 	c #E1F8FF",
"s 	c #ACD7ED",
"t 	c #FAFDFF",
"u 	c #829095",
"v 	c #ABBDC3",
"w 	c #CDE2E9",
"x 	c #DDF3FA",
"y 	c #E2F7FE",
"z 	c #E4F8FF",
"A 	c #E4F9FF",
"B 	c #E4F5FD",
"C 	c #C0E3F5",
"D 	c #A3B3B9",
"E 	c #C7D8DF",
"F 	c #DBEEF4",
"G 	c #E3F7FD",
"H 	c #E6F9FF",
"I 	c #CDEAF9",
"J 	c #D2ECFA",
"K 	c #E9F7FE",
"L 	c #B2C1C6",
"M 	c #E8FAFF",
"N 	c #D9F0FB",
"O 	c #9FCEE6",
"P 	c #CEEBF9",
"Q 	c #46D470",
"R 	c #32CD61",
"S 	c #13AE41",
"T 	c #BADFF3",
"U 	c #78AECA",
"V 	c #9BCCE4",
"W 	c #7AE89B",
"X 	c #54BF74",
"Y 	c #36B45C",
"Z 	c #85A6FF",
"` 	c #A6D0FF",
" .	c #7790FF",
"..	c #6E85FE",
"+.	c #6A81FE",
"@.	c #5665D9",
"#.	c #4553A4",
"$.	c #334BA5",
"%.	c #2A4ABD",
"&.	c #334FAB",
"*.	c #6679EC",
"=.	c #95D7A9",
"-.	c #79CD92",
";.	c #5E5744",
">.	c #7D9EFF",
",.	c #95CFFC",
"'.	c #6E86FF",
").	c #697FFF",
"!.	c #5D6EF2",
"~.	c #5263D7",
"{.	c #3D4988",
"].	c #294293",
"^.	c #BCE6C8",
"/.	c #69C785",
"(.	c #7693FF",
"_.	c #749DFC",
":.	c #7499FD",
"<.	c #6072F9",
"[.	c #5B6BEC",
"}.	c #5766DE",
"|.	c #3750AF",
"1.	c #2F438D",
"2.	c #84ECA2",
"3.	c #B7F9CB",
"4.	c #CFEDD8",
"5.	c #A0DBB2",
"6.	c #71CA8B",
"7.	c #42B865",
"8.	c #12A73F",
"9.	c #15C64B",
"0.	c #688EFC",
"a.	c #4D6FF3",
"b.	c #4962E5",
"c.	c #445DD5",
"d.	c #465FDD",
"e.	c #394B9D",
"f.	c #264193",
"g.	c #79E79A",
"h.	c #3CB660",
"i.	c #16D04E",
"j.	c #485ED5",
"k.	c #445CD2",
"l.	c #3652C5",
"m.	c #3651C0",
"n.	c #304698",
"o.	c #2F4FBD",
"p.	c #2BB053",
"q.	c #12B844",
"r.	c #15C349",
"s.	c #AEA68C",
"t.	c #455CD3",
"u.	c #4157C3",
"v.	c #4564DE",
"w.	c #586FF0",
"x.	c #B8AF94",
"y.	c #978C6E",
"z.	c #5263D9",
"A.	c #4B67F3",
"B.	c #6578FF",
"C.	c #4D4838",
"D.	c #524D3C",
"E.	c #BDB498",
"F.	c #A49978",
"G.	c #8E8568",
"H.	c #4F4A3A",
"I.	c #554F3E",
"J.	c #605A46",
"K.	c #14C248",
"L.	c #8A8165",
"M.	c #81785E",
"N.	c #726A53",
"O.	c #615A47",
"P.	c #544E3D",
"Q.	c #4B4536",
"R.	c #464133",
"S.	c #373328",
"T.	c #3F3B2E",
"U.	c #14BA46",
"V.	c #18E355",
"                                                ",
"                        . . . . . . .           ",
"        . . . . . . . . + @ # $ % % % .         ",
"      . & & & & & * * & . = - ; > , ' . .       ",
"    . ) . ! * * ~ ~ & . { ] ^ / ( _ ' ' % .     ",
"  . : < [ . } * | 1 . 2 3 4 5 6 7 _ , , , ' .   ",
"  . 8 9 0 . & & a b . c d e f g h _ , , , ' .   ",
"  . 8 _ i . & & j k . l m n o p q r r , , ' .   ",
"  . 8 _ . . & & s t . . u v w x y z A , , ' .   ",
"  . 8 . & & & & B C b ! . D E F G H H , , ' .   ",
"  . . & & & & & & b I J K . L . . . M , , ' .   ",
"  . . & & & & & B N s O P . . Q R S . , , ' .   ",
"  . & & & & & & B & T U V ! . W X Y . , , ' .   ",
"  . Z `  ...+.@.@.#.$.%.&.*.. =.-.X . _ , ;..   ",
"  . >.,.'.).!.@.~.{.].. . . . ^.=./.. . . . .   ",
"  . (._.:.<.[.}.|.1.. 2.3.4.& 4.5.6.7.8.8.9..   ",
"  . . 0.a.b.c.d.e.f.. g.=.^.4.^.=./.h.8.8.i..   ",
"  . . }.j.k.l.m.n.o.. X -.=.5.=.-.X p.8.q.r..   ",
"  . s.. @.t.k.k.u.v.w.. . . . /.X Y . . . . .   ",
"  . x.y.. . j.z.A.B.. . C.D.. h.p.8.. , , ;..   ",
"  . E.F.G.e . . . . C.H.I.J.. 8.8.K.. , , ;..   ",
"    . L.M.N.O.P.Q.R.R.Q.S.T.. U.V.V.. ;.;..     ",
"      . . . . . . . . . . . . . . . . . .       ",
"                                                "};
