/* XPM */
static char * add_clipboard_xpm[] = {
"24 24 34 1",
" 	c None",
".	c #000000",
"+	c #C2B99C",
"@	c #908669",
"#	c #B4A884",
"$	c #FFFFFF",
"%	c #706C60",
"&	c #E0DCC0",
"*	c #6F6B5F",
"=	c #6E6A5E",
"-	c #DEDABE",
";	c #ADA798",
">	c #686754",
",	c #949480",
"'	c #BAB696",
")	c #41413F",
"!	c #5F5F59",
"~	c #D4CCC0",
"{	c #A7A296",
"]	c #B3B090",
"^	c #484844",
"/	c #84847C",
"(	c #A19D90",
"_	c #4B4B48",
":	c #CEC7B9",
"<	c #969289",
"[	c #BAB3A8",
"}	c #6D6D66",
"|	c #AAA597",
"1	c #5B5B56",
"2	c #7F7C71",
"3	c #5A5A54",
"4	c #736B54",
"5	c #8D897F",
"                        ",
"       ..........       ",
"      .+++++++++@.      ",
"      .+###...##@.      ",
"   ...+####...##@@...   ",
"  .+++#####...#######.  ",
"  .+#######...#######.  ",
"  .+#$$$$$$...$$$$$#@.  ",
"  .+#$$$$.......$$$#@.  ",
"  .+#$$$$$.....$$$$#@.  ",
"  .+#$$...%...&...$#@.  ",
"  .+#..%%*=*.&--&&..@.  ",
"  .+#.;.>%%%,&&&')!.@.  ",
"  .+#.~~{.>%,&]^!//.@.  ",
"  .+#.~~~~(.%_!////.@.  ",
"  .+#.~~~~~:.//////.@.  ",
"  .+#.~~~~~~.//////.@.  ",
"  .+#.~~~~~~.//////.@.  ",
"  .+#.<[~~~~./////}.@.  ",
"  .+#$..|~~~.////1..@.  ",
"  .+####.2[~.//3..4@@.  ",
"  .@@@@@@..5.3..4@@@#.  ",
"   ....... ... ......   ",
"                        "};
