/* XPM */
static char * add_clipboard_xpm[] = {
"24 24 214 2",
"  	c None",
". 	c #000000",
"+ 	c #D5CAAC",
"@ 	c #D8CDAE",
"# 	c #BEB598",
"$ 	c #C0B79A",
"% 	c #C2B99C",
"& 	c #57FFFF",
"* 	c #75FFFF",
"= 	c #6CFFFF",
"- 	c #48FDFF",
"; 	c #22B5FF",
"> 	c #0979F7",
", 	c #0086F7",
"' 	c #009AFF",
") 	c #9A9071",
"! 	c #A59A79",
"~ 	c #AEA27F",
"{ 	c #B2A682",
"] 	c #B4A884",
"^ 	c #908669",
"/ 	c #DCD1B2",
"( 	c #61E0FF",
"_ 	c #49C1F7",
": 	c #3DB0F7",
"< 	c #1F78D8",
"[ 	c #177DD8",
"} 	c #1AABFF",
"| 	c #736C54",
"1 	c #80775E",
"2 	c #B9B095",
"3 	c #D0C5A8",
"4 	c #8D8367",
"5 	c #B3A783",
"6 	c #DFD4B4",
"7 	c #B0A481",
"8 	c #A39878",
"9 	c #4FAAF1",
"0 	c #499DF7",
"a 	c #226CC1",
"b 	c #3CACFB",
"c 	c #575140",
"d 	c #5D5744",
"e 	c #706852",
"f 	c #ADA48B",
"g 	c #83795F",
"h 	c #5B5442",
"i 	c #E0D5B5",
"j 	c #B1A581",
"k 	c #A79C7A",
"l 	c #83C0FF",
"m 	c #78BBFF",
"n 	c #3C8CE0",
"o 	c #58BDFD",
"p 	c #514B3B",
"q 	c #5D5644",
"r 	c #756D55",
"s 	c #9D967E",
"t 	c #857C61",
"u 	c #5C5542",
"v 	c #ADA27F",
"w 	c #9FCFFF",
"x 	c #92C8FF",
"y 	c #4691DB",
"z 	c #68C4FC",
"A 	c #647175",
"B 	c #7B8A8F",
"C 	c #A1B3B9",
"D 	c #C4DAE1",
"E 	c #D8EFF6",
"F 	c #DFF6FD",
"G 	c #E1F8FF",
"H 	c #BBDDFF",
"I 	c #A9D4FF",
"J 	c #62A9ED",
"K 	c #76BAFF",
"L 	c #829095",
"M 	c #ABBDC3",
"N 	c #CDE2E9",
"O 	c #DDF3FA",
"P 	c #E2F7FE",
"Q 	c #E4F8FF",
"R 	c #E4F9FF",
"S 	c #D4E9FF",
"T 	c #E0EFFF",
"U 	c #8EC7FD",
"V 	c #63ABF5",
"W 	c #5BABFD",
"X 	c #50BBFF",
"Y 	c #A3B3B9",
"Z 	c #C7D8DF",
"` 	c #DBEEF4",
" .	c #E3F7FD",
"..	c #E6F9FF",
"+.	c #C2E0FF",
"@.	c #FFFFFF",
"#.	c #A4D1FF",
"$.	c #78BAFD",
"%.	c #54A4F9",
"&.	c #47B1FA",
"*.	c #2FA9FE",
"=.	c #B2C1C6",
"-.	c #E8FAFF",
";.	c #BDDFFF",
">.	c #FCFFFF",
",.	c #6FB5FB",
"'.	c #4496ED",
").	c #2D84E6",
"!.	c #2CB1F9",
"~.	c #46D470",
"{.	c #32CD61",
"].	c #13AE41",
"^.	c #CEFFFF",
"/.	c #FEFFFF",
"(.	c #D5F3FF",
"_.	c #83C0FD",
":.	c #4497F3",
"<.	c #1E6CCA",
"[.	c #1D9CE4",
"}.	c #08ABFF",
"|.	c #7AE89B",
"1.	c #54BF74",
"2.	c #36B45C",
"3.	c #7FBFFF",
"4.	c #D4FFFF",
"5.	c #63B0FF",
"6.	c #368DED",
"7.	c #1662BF",
"8.	c #1282E3",
"9.	c #0094FF",
"0.	c #95D7A9",
"a.	c #79CD92",
"b.	c #5E5744",
"c.	c #408FFF",
"d.	c #94F1FC",
"e.	c #62A2FF",
"f.	c #3A65FE",
"g.	c #3661FE",
"h.	c #284AD9",
"i.	c #2145D9",
"j.	c #1636A3",
"k.	c #0A2A98",
"l.	c #BCE6C8",
"m.	c #69C785",
"n.	c #2A70FF",
"o.	c #86F1FC",
"p.	c #65A7FD",
"q.	c #346DFF",
"r.	c #254DF2",
"s.	c #1F45D9",
"t.	c #1238C7",
"u.	c #0A267C",
"v.	c #84ECA2",
"w.	c #B7F9CB",
"x.	c #CFEDD8",
"y.	c #A0DBB2",
"z.	c #71CA8B",
"A.	c #42B865",
"B.	c #12A73F",
"C.	c #15C64B",
"D.	c #2C9AFC",
"E.	c #36A9F5",
"F.	c #1E59F4",
"G.	c #143EE6",
"H.	c #113AD7",
"I.	c #0D34B6",
"J.	c #052079",
"K.	c #79E79A",
"L.	c #3CB660",
"M.	c #16D04E",
"N.	c #1155FF",
"O.	c #0E44F9",
"P.	c #0D3CE3",
"Q.	c #0930C7",
"R.	c #0830CF",
"S.	c #052593",
"T.	c #02259F",
"U.	c #2BB053",
"V.	c #12B844",
"W.	c #15C349",
"X.	c #AEA68C",
"Y.	c #0435D9",
"Z.	c #0430D3",
"`.	c #0330D2",
" +	c #022ECD",
".+	c #002AA4",
"++	c #0035D3",
"@+	c #0046E1",
"#+	c #B8AF94",
"$+	c #978C6E",
"%+	c #002FD5",
"&+	c #0039D9",
"*+	c #0032C3",
"=+	c #004EE9",
"-+	c #4D4838",
";+	c #524D3C",
">+	c #BDB498",
",+	c #A49978",
"'+	c #8E8568",
")+	c #4F4A3A",
"!+	c #554F3E",
"~+	c #605A46",
"{+	c #14C248",
"]+	c #8A8165",
"^+	c #81785E",
"/+	c #726A53",
"(+	c #615A47",
"_+	c #544E3D",
":+	c #4B4536",
"<+	c #464133",
"[+	c #373328",
"}+	c #3F3B2E",
"|+	c #14BA46",
"1+	c #18E355",
"                                                ",
"                        . . . . . . .           ",
"        . . . . . . . . + @ # $ % % % .         ",
"      . & * = - ; > , ' . ) ! ~ { ] ^ . .       ",
"    . / . ( _ : < [ } . | 1 2 3 4 5 ^ ^ % .     ",
"  . 6 7 8 . 9 0 a b . c d e f g h 5 ] ] ] ^ .   ",
"  . i j k . l m n o . p q r s t u 5 ] ] ] ^ .   ",
"  . i 5 v . w x y z . A B C D E F G G ] ] ^ .   ",
"  . i 5 . . H I J K . . L M N O P Q R ] ] ^ .   ",
"  . i . S T S H U V W X . Y Z `  .....] ] ^ .   ",
"  . . +.@.@.T +.#.$.%.&.*.. =.. . . -.] ] ^ .   ",
"  . . ;.>.@.S H U ,.'.).!.. . ~.{.].. ] ] ^ .   ",
"  . x ^./.(.H I _.m :.<.[.}.. |.1.2.. ] ] ^ .   ",
"  . 3.^.4.#.w x 3.5.6.7.8.9.. 0.a.1.. 5 ] b..   ",
"  . c.d.e.f.g.h.i.j.k.. . . . l.0.m.. . . . .   ",
"  . n.o.p.q.r.s.t.u.. v.w.x.@.x.y.z.A.B.B.C..   ",
"  . . D.E.F.G.H.I.J.. K.0.l.x.l.0.m.L.B.B.M..   ",
"  . . N.O.P.Q.R.S.T.. 1.a.0.y.0.a.1.U.B.V.W..   ",
"  . X.. Y.Z.`. +.+++@+. . . . m.1.2.. . . . .   ",
"  . #+$+. . %+&+*+=+. . -+;+. L.U.B.. ] ] b..   ",
"  . >+,+'+r . . . . -+)+!+~+. B.B.{+. ] ] b..   ",
"    . ]+^+/+(+_+:+<+<+:+[+}+. |+1+1+. b.b..     ",
"      . . . . . . . . . . . . . . . . . .       ",
"                                                "};
