/* XPM */
static char * cfgbt_xpm[] = {
"6 24 2 1",
" 	c None",
".	c #000000",
"      ",
"      ",
"      ",
"      ",
"      ",
"      ",
"      ",
"      ",
"      ",
"......",
" .... ",
" .... ",
"  ..  ",
"  ..  ",
"      ",
"      ",
"      ",
"      ",
"      ",
"      ",
"      ",
"      ",
"      ",
"      "};
