/* XPM */
static char * clocks_xpm[] = {
"40 40 199 2",
"  	c None",
". 	c #000000",
"+ 	c #D7D7D7",
"@ 	c #9DB1E8",
"# 	c #5488BA",
"$ 	c #588ABD",
"% 	c #5D8BC1",
"& 	c #618DC4",
"* 	c #668FC8",
"= 	c #6A90CB",
"- 	c #6F92CE",
"; 	c #7393D2",
"> 	c #7895D5",
", 	c #7C97D9",
"' 	c #8198DC",
") 	c #8198DD",
"! 	c #D9D9D9",
"~ 	c #5789BC",
"{ 	c #5B8BBF",
"] 	c #608CC3",
"^ 	c #648EC6",
"/ 	c #6990CA",
"( 	c #6D91CD",
"_ 	c #7293D1",
": 	c #7694D4",
"< 	c #7B96D7",
"[ 	c #7F98DB",
"} 	c #DBDBDB",
"| 	c #A8A8A8",
"1 	c #DFDFDF",
"2 	c #5A8ABE",
"3 	c #5E8CC2",
"4 	c #6878A3",
"5 	c #6C91CC",
"6 	c #7092CF",
"7 	c #7594D3",
"8 	c #7995D6",
"9 	c #7E97DA",
"0 	c #DDDDDD",
"a 	c #E1E1E1",
"b 	c #E5E5E5",
"c 	c #5C8BC0",
"d 	c #6E92CE",
"e 	c #7393D1",
"f 	c #7795D5",
"g 	c #7C96D8",
"h 	c #8098DC",
"i 	c #E3E3E3",
"j 	c #E7E7E7",
"k 	c #EBEBEB",
"l 	c #5F8CC2",
"m 	c #688FC9",
"n 	c #7193D0",
"o 	c #7A96D7",
"p 	c #7F97DA",
"q 	c #E9E9E9",
"r 	c #EDEDED",
"s 	c #F1F1F1",
"t 	c #628DC5",
"u 	c #678FC8",
"v 	c #6B90CB",
"w 	c #7494D2",
"x 	c #7D97D9",
"y 	c #CCCCCC",
"z 	c #EFEFEF",
"A 	c #F3F3F3",
"B 	c #F7F7F7",
"C 	c #C1C1C1",
"D 	c #C4C4C4",
"E 	c #C6C6C6",
"F 	c #C9C9C9",
"G 	c #CBCBCB",
"H 	c #CECECE",
"I 	c #D0D0D0",
"J 	c #F5F5F5",
"K 	c #F9F9F9",
"L 	c #FBFBFB",
"M 	c #FDFDFD",
"N 	c #BCBCBC",
"O 	c #BEBEBE",
"P 	c #C3C3C3",
"Q 	c #C8C8C8",
"R 	c #CDCDCD",
"S 	c #D3D3D3",
"T 	c #D5D5D5",
"U 	c #FFFFFF",
"V 	c #C0C0C0",
"W 	c #C5C5C5",
"X 	c #CACACA",
"Y 	c #D2D2D2",
"Z 	c #DADADA",
"` 	c #DCDCDC",
" .	c #848484",
"..	c #BDBDBD",
"+.	c #C2C2C2",
"@.	c #C7C7C7",
"#.	c #CFCFCF",
"$.	c #D4D4D4",
"%.	c #DEDEDE",
"&.	c #D1D1D1",
"*.	c #D6D6D6",
"=.	c #E6E6E6",
"-.	c #A6A6A6",
";.	c #878787",
">.	c #B0B0B0",
",.	c #B5B5B5",
"'.	c #828282",
").	c #3E3E3E",
"!.	c #070707",
"~.	c #1F1F1F",
"{.	c #303030",
"].	c #B7B7B7",
"^.	c #F2F2F2",
"/.	c #D8D8D8",
"(.	c #B6B6B6",
"_.	c #696969",
":.	c #161616",
"<.	c #060606",
"[.	c #0D0D0D",
"}.	c #171717",
"|.	c #040404",
"1.	c #555555",
"2.	c #F6F6F6",
"3.	c #858585",
"4.	c #454545",
"5.	c #050505",
"6.	c #2D2D2D",
"7.	c #979797",
"8.	c #676767",
"9.	c #1E1E1E",
"0.	c #FAFAFA",
"a.	c #FEFEFE",
"b.	c #8D8D8D",
"c.	c #868686",
"d.	c #E4E4E4",
"e.	c #9A9A9A",
"f.	c #313131",
"g.	c #4C4C4C",
"h.	c #141414",
"i.	c #969696",
"j.	c #8E8E8E",
"k.	c #E8E8E8",
"l.	c #E2E2E2",
"m.	c #B8B8B8",
"n.	c #616161",
"o.	c #636363",
"p.	c #A2A2A2",
"q.	c #E0E0E0",
"r.	c #101010",
"s.	c #9F9F9F",
"t.	c #8F8F8F",
"u.	c #888888",
"v.	c #EAEAEA",
"w.	c #F0F0F0",
"x.	c #B3B3B3",
"y.	c #4A4A4A",
"z.	c #0E0E0E",
"A.	c #898989",
"B.	c #A7A7A7",
"C.	c #A0A0A0",
"D.	c #989898",
"E.	c #919191",
"F.	c #F4F4F4",
"G.	c #252525",
"H.	c #292929",
"I.	c #A9A9A9",
"J.	c #A1A1A1",
"K.	c #999999",
"L.	c #929292",
"M.	c #FCFCFC",
"N.	c #838383",
"O.	c #222222",
"P.	c #595959",
"Q.	c #383838",
"R.	c #B9B9B9",
"S.	c #B1B1B1",
"T.	c #AAAAAA",
"U.	c #5A5A5A",
"V.	c #0B0B0B",
"W.	c #7F7F7F",
"X.	c #BABABA",
"Y.	c #B2B2B2",
"Z.	c #ABABAB",
"`.	c #A3A3A3",
" +	c #9B9B9B",
".+	c #464646",
"++	c #A4A4A4",
"@+	c #BBBBBB",
"#+	c #ACACAC",
"$+	c #2B2B2B",
"%+	c #707070",
"&+	c #BFBFBF",
"*+	c #B4B4B4",
"=+	c #ADADAD",
"-+	c #A5A5A5",
";+	c #777777",
">+	c #AEAEAE",
",+	c #AFAFAF",
"'+	c #EEEEEE",
"                                                                                ",
"                                                                                ",
"                                                                                ",
"                                                                                ",
"                                                                                ",
"                . . . . . . . . . . . . . . . . . . . .                         ",
"          . . . . + + + @ @ # $ % & * = - ; > , ' ) ) .                         ",
"          . + + + + + + ! @ ~ { ] ^ / ( _ : < [ ) ) ) .                         ",
"          . + + + ! } | 1 @ 2 3 4 4 5 6 7 8 9 4 4 ) ) .                         ",
"          . ! } 0 1 a | b @ c & 4 = d e f g h 4 ) ) ) .                         ",
"          . 1 a i b j | k @ l ^ m ( n : o p ) ) ) ) ) .                         ",
"          . b j q k r | s @ t u v 6 w 8 x # ) ) ) ) ) y .                       ",
"          . k r z | A | B @ # # # # # # # C D E F G H I .                       ",
"          . s A J | K L M N N N N N O C P E Q G R I S T .                       ",
"          . B K L | U | U N N N O V P W Q X R I Y T + Z ` .                     ",
"          . M | U | U U U  ...V +.W @.X R #.Y $.+ ! ` %.a .                     ",
"          . U | U | U | U  .+.D @.X y #.&.$.*.+ #.F ` i =..                     ",
"          . U | U | U | U  .@.F y H &.S *.S +.-.;. .>.1 q r .                   ",
"          . U | U | U U U  . .H I S *.+ #.,.'.).!.~.{.].i ^..                   ",
"          . U | U | U U U  . .S T /.Z Z (._.:.<.[.}.|.1.H 2..                   ",
"          . U | U U U U U 3. .+ Z ` 1 /.-.4.5.6.7.8.. 9.$.0.a..                 ",
"          . U | U | U U U b.c. .%.a d.T e.f.<.g.S b.h.9.D U U .                 ",
"          . U | U | U U U i.j.;.i =.k.l.m.n.o.p.q.j.r.6.! U U U .               ",
"          . U | U U U U U s.7.t.u.v.r w.q.x.C i } y.z.A.J s K U .               ",
"          . U | U | U U U B.C.D.E.z ^.F.J w.A L ,.G.H.W +.c.` U U .             ",
"          . U | U | U U U >.I.J.K.L.2.K M.a.U A N.}.O.P.. Q.@.U U .             ",
"          . U | U U U U U R.S.T.p.e.L a.U U U i U.V.!.!.h.W.l.U U U .           ",
"          . U U U U U U U +.X.Y.Z.`. +U U U a.S 4.<.5..+++%.L U U U .           ",
"          . U | U U U U U X P @+x.#+++U U U U +..+$+%+&+^.U U U U U U .         ",
"          . U | U U U U U S G D N *+=+-+U U M + ;+b.T M.U U U U U U U .         ",
"          . U U U U U U U ` $.y W ..(.>+U U U z 0 =.0.U U U U U . . . .         ",
"          . U | U U U U U d.0 T H E O ].,+U U U U U U U U U . .                 ",
"          . U U U U U U U r b %.*.#.@.&+m.U U U U U U U . .                     ",
"          . . U U U U U U 2.'+j 1 . . . . . U U U U U .                         ",
"              . . . U U . . . . .           . U U . .                           ",
"                    . . .                     . .                               ",
"                                                                                ",
"                                                                                ",
"                                                                                ",
"                                                                                "};
