/* XPM */
static char * complete_xpm[] = {
"16 16 54 1",
" 	c None",
".	c #000000",
"+	c #88D5FF",
"@	c #599BF0",
"#	c #91E3FF",
"$	c #4987E7",
"%	c #4F8FEE",
"&	c #427CDA",
"*	c #4580DF",
"=	c #4A8DEE",
"-	c #518CE4",
";	c #5C9EF3",
">	c #498CED",
",	c #65ABFA",
"'	c #69AEFE",
")	c #4E88DF",
"!	c #62A5F9",
"~	c #6DB4FE",
"{	c #5FA3F6",
"]	c #5692EA",
"^	c #4984E2",
"/	c #4781DE",
"(	c #569BF7",
"_	c #80CEFF",
":	c #71BBFE",
"<	c #5B99F1",
"[	c #599CF2",
"}	c #3E80E6",
"|	c #4D8EEE",
"1	c #7DD2FF",
"2	c #538FE7",
"3	c #528FEA",
"4	c #427FE0",
"5	c #3A77DD",
"6	c #549CF6",
"7	c #0FCA09",
"8	c #0BB322",
"9	c #5698EF",
"0	c #3873D8",
"a	c #4684E2",
"b	c #0F6E28",
"c	c #427EDF",
"d	c #407BDB",
"e	c #4886E5",
"f	c #4686E8",
"g	c #4887E6",
"h	c #4C92F3",
"i	c #084421",
"j	c #4D96FA",
"k	c #458BF2",
"l	c #3975DA",
"m	c #4B89E9",
"n	c #4B8CEB",
"o	c #4C8CEB",
"     ..         ",
"   ..+@.        ",
"  .#$%.         ",
" .#&*=-.        ",
"  ..*;>.        ",
"    .,')...     ",
"    .!~{]^/..   ",
"    .(_:<[}|*.  ",
"    .1..2345*.  ",
"   .6.78.9000a. ",
" ....78b.cd00e. ",
".78.78b.fd00&g. ",
".8878b.h5000&.  ",
" .bbi.jkl0&&m.  ",
"  .i...enoa..   ",
"   .   ....     "};
