/* XPM */
static char * continue_xpm[] = {
"24 24 149 2",
"  	c None",
". 	c #000000",
"+ 	c #FFFFFF",
"@ 	c #C8E8F7",
"# 	c #F2FBFF",
"$ 	c #89BDD8",
"% 	c #B6DDF1",
"& 	c #6EA5C1",
"* 	c #D5EFFB",
"= 	c #94C7E0",
"- 	c #E5F5FD",
"; 	c #8DC1DB",
"> 	c #DDF1FC",
", 	c #A5A5A5",
"' 	c #B0B0B0",
") 	c #C6C6C6",
"! 	c #E0E0E0",
"~ 	c #BEDDEB",
"{ 	c #C5E5F4",
"] 	c #ACD7ED",
"^ 	c #FAFDFF",
"/ 	c #ADB4B7",
"( 	c #A4BFCB",
"_ 	c #7EAEC7",
": 	c #85B8D2",
"< 	c #FEFEFE",
"[ 	c #E4F5FD",
"} 	c #C0E3F5",
"| 	c #D8D8D8",
"1 	c #8BBCD3",
"2 	c #E2F2FA",
"3 	c #DFF3E5",
"4 	c #CFCFCF",
"5 	c #7FAFC7",
"6 	c #D5E9F4",
"7 	c #D9F0FB",
"8 	c #B9E5C6",
"9 	c #B7B7B7",
"0 	c #8CAFC1",
"a 	c #E4E7E9",
"b 	c #A2DCB4",
"c 	c #93D7A7",
"d 	c #9BA7AC",
"e 	c #9BB7C6",
"f 	c #D2E1E9",
"g 	c #EDF6FA",
"h 	c #86A7FF",
"i 	c #A6D0FF",
"j 	c #7791FF",
"k 	c #6E85FE",
"l 	c #6B82FE",
"m 	c #5665D9",
"n 	c #4653A4",
"o 	c #C5EFD3",
"p 	c #9FEEB9",
"q 	c #7ED197",
"r 	c #6CC888",
"s 	c #9CA8AD",
"t 	c #ACC4D1",
"u 	c #C5DDEB",
"v 	c #E6F4FB",
"w 	c #7E9FFF",
"x 	c #95CFFC",
"y 	c #6E87FF",
"z 	c #6A7FFF",
"A 	c #5E6EF2",
"B 	c #5665DA",
"C 	c #5364D7",
"D 	c #3E4988",
"E 	c #C4EED1",
"F 	c #85E5A3",
"G 	c #68C985",
"H 	c #56C076",
"I 	c #46BA69",
"J 	c #7D9CAB",
"K 	c #8BB4C8",
"L 	c #C5E1EF",
"M 	c #7793FF",
"N 	c #749DFC",
"O 	c #749AFD",
"P 	c #6172F9",
"Q 	c #5B6CEC",
"R 	c #5767DE",
"S 	c #3750AF",
"T 	c #2F448E",
"U 	c #C1EBCE",
"V 	c #50BE71",
"W 	c #40B864",
"X 	c #34C15E",
"Y 	c #25C755",
"Z 	c #5D879D",
"` 	c #8CB9CF",
" .	c #EBF4F8",
"..	c #698EFC",
"+.	c #4E6FF3",
"@.	c #4963E5",
"#.	c #455DD5",
"$.	c #4660DD",
"%.	c #394C9D",
"&.	c #264193",
"*.	c #76CC90",
"=.	c #3AB65E",
"-.	c #2AB052",
";.	c #1AAA45",
">.	c #16CF4D",
",.	c #16C64A",
"'.	c #739FB5",
").	c #D8E5EC",
"!.	c #495FD6",
"~.	c #455CD3",
"{.	c #3752C5",
"].	c #3651C0",
"^.	c #304799",
"/.	c #304FBD",
"(.	c #23AD4C",
"_.	c #13A73F",
":.	c #16C349",
"<.	c #18D34F",
"[.	c #325364",
"}.	c #7FA0B1",
"|.	c #C9D5DB",
"1.	c #455DD4",
"2.	c #4157C3",
"3.	c #4664DE",
"4.	c #1DAB47",
"5.	c #15C248",
"6.	c #17CB4C",
"7.	c #405B6A",
"8.	c #547383",
"9.	c #8BA1AB",
"0.	c #485FD6",
"a.	c #5364D9",
"b.	c #4B68F3",
"c.	c #6579FF",
"d.	c #14BA46",
"e.	c #405965",
"f.	c #526C7A",
"g.	c #718893",
"h.	c #99A5AA",
"i.	c #13AC3F",
"j.	c #5B6970",
"k.	c #5E717B",
"l.	c #868E92",
"m.	c #949DA2",
"n.	c #15B845",
"o.	c #1AE255",
"p.	c #647076",
"q.	c #64747B",
"r.	c #8F8F8F",
"                                                ",
"        . . . . . . . .                         ",
"      . + + + + + @ @ + .                       ",
"        . # @ @ $ $ + .                         ",
"          . % @ & * .                           ",
"          . + + = - .   . . . . . . .           ",
"          . + + ; > . . , ' ) ! ~ { + .         ",
"        . . + + ] ^ . . . / ( _ : < .           ",
"      . + + + + [ } - . . . | 1 2 .             ",
"    . + + + + + + - . 3 . . 4 5 6 .             ",
"    . + + + + + [ 7 . 3 8 . 9 0 a . .           ",
"  . + + + + + + [ + . 3 b c . d e f g .         ",
"  . h i j k l m m n . o p q r . s t u v .       ",
"  . w x y z A B C D . E F G H I . J K L .       ",
"  . M N O P Q R S T . U F V W X Y . Z `  ..     ",
"    . ..+.@.#.$.%.&.. b *.=.-.;.>.,.. '.)..     ",
"    . R !.~.{.].^./.. *.*.(._.:.<.. [.}.|..     ",
"      . m 1.~.~.2.3.. *.4._.5.6.. 7.8.9..       ",
"        . . 0.a.b.c.. V _.d.:.. e.f.g.h..       ",
"            . . . . . _.i.:.. j.k.l.m..         ",
"                    . n.o.. p.q.r.. .           ",
"                    . o..   . . .               ",
"                      .                         ",
"                                                "};
