/* XPM */
static char * continue_xpm[] = {
"24 24 206 2",
"  	c None",
". 	c #000000",
"+ 	c #FFFFFF",
"@ 	c #00B7FF",
"# 	c #0092F7",
"$ 	c #0083F7",
"% 	c #007FFF",
"& 	c #F2FBFF",
"* 	c #1484F7",
"= 	c #0D7BF7",
"- 	c #0360D8",
"; 	c #005ED8",
"> 	c #2886F1",
", 	c #2689F7",
"' 	c #0F5EC1",
") 	c #107FFB",
"! 	c #58ABFF",
"~ 	c #4FA6FF",
"{ 	c #257CE0",
"] 	c #2890FD",
"^ 	c #0055AB",
"/ 	c #0058B1",
"( 	c #0060C1",
"_ 	c #006CDA",
": 	c #00ACF0",
"< 	c #008FF3",
"[ 	c #78BBFF",
"} 	c #6CB5FF",
"| 	c #3283DB",
"1 	c #3D99FC",
"2 	c #0056B0",
"3 	c #0F66BF",
"4 	c #0B6CD8",
"5 	c #025BCD",
"6 	c #005CD5",
"7 	c #97CBFF",
"8 	c #89C3FF",
"9 	c #4E9CED",
"0 	c #59ACFF",
"a 	c #206EC6",
"b 	c #237EE3",
"c 	c #0E5BBC",
"d 	c #0F7EFA",
"e 	c #B5DAFF",
"f 	c #BDDEFF",
"g 	c #A2D0FF",
"h 	c #7ABBFD",
"i 	c #51A1F5",
"j 	c #479FFD",
"k 	c #4A90D8",
"l 	c #4A9CF1",
"m 	c #247ADD",
"n 	c #D9EDFF",
"o 	c #FEFEFF",
"p 	c #B8DEFF",
"q 	c #6CB4FD",
"r 	c #DFF3E5",
"s 	c #6098CF",
"t 	c #62A4E9",
"u 	c #2F7ED3",
"v 	c #3C97FA",
"w 	c #FDFEFF",
"x 	c #C0E1FF",
"y 	c #8CC5FD",
"z 	c #6AB2FB",
"A 	c #B9E5C6",
"B 	c #6B91B7",
"C 	c #6F9ED0",
"D 	c #468ED8",
"E 	c #55A6F8",
"F 	c #BFE7FF",
"G 	c #F7FFFF",
"H 	c #D0E7FF",
"I 	c #87C3FD",
"J 	c #A2DCB4",
"K 	c #93D7A7",
"L 	c #6E8DAE",
"M 	c #6297CD",
"N 	c #4A94E1",
"O 	c #50B6F8",
"P 	c #3CC2FF",
"Q 	c #3A71FF",
"R 	c #B2F3FF",
"S 	c #8EC7FF",
"T 	c #3B5DFE",
"U 	c #3558FE",
"V 	c #2037D1",
"W 	c #1B34D1",
"X 	c #0E2191",
"Y 	c #C5EFD3",
"Z 	c #9FEEB9",
"` 	c #7ED197",
" .	c #6CC888",
"..	c #678AAF",
"+.	c #5996D4",
"@.	c #4297EA",
"#.	c #3DC1F7",
"$.	c #20C8FE",
"%.	c #2D65FF",
"&.	c #B5F0FC",
"*.	c #80C1FF",
"=.	c #2E50FF",
"-.	c #233FF0",
";.	c #1B34D2",
">.	c #1631CF",
",.	c #09186F",
"'.	c #C4EED1",
").	c #85E5A3",
"!.	c #68C985",
"~.	c #56C076",
"{.	c #46BA69",
"].	c #4C81B6",
"^.	c #357ECF",
"/.	c #257EDC",
"(.	c #1CBFF8",
"_.	c #2054FF",
":.	c #3E9AFC",
"<.	c #7BB5FD",
"[.	c #2449F8",
"}.	c #1A38E9",
"|.	c #1632D7",
"1.	c #0B23A2",
"2.	c #06187A",
"3.	c #C1EBCE",
"4.	c #50BE71",
"5.	c #40B864",
"6.	c #34C15E",
"7.	c #25C755",
"8.	c #3174BD",
"9.	c #1760B7",
"0.	c #14A8DD",
"a.	c #00C8FE",
"b.	c #194FFC",
"c.	c #184CF3",
"d.	c #1030E1",
"e.	c #0E2ACE",
"f.	c #0D2BD8",
"g.	c #071A8A",
"h.	c #041988",
"i.	c #76CC90",
"j.	c #3AB65E",
"k.	c #2AB052",
"l.	c #1AAA45",
"m.	c #16CF4D",
"n.	c #16C64A",
"o.	c #11519F",
"p.	c #0C92D2",
"q.	c #00D7F9",
"r.	c #0A29D7",
"s.	c #0A2BCE",
"t.	c #0A29CB",
"u.	c #0721BE",
"v.	c #0620B8",
"w.	c #031788",
"x.	c #021DB7",
"y.	c #23AD4C",
"z.	c #13A73F",
"A.	c #16C349",
"B.	c #18D34F",
"C.	c #154A88",
"D.	c #0B4F84",
"E.	c #0282BB",
"F.	c #00B1EE",
"G.	c #052BD1",
"H.	c #052ACC",
"I.	c #052ECB",
"J.	c #0321CB",
"K.	c #0127B8",
"L.	c #0040DA",
"M.	c #1DAB47",
"N.	c #15C248",
"O.	c #17CB4C",
"P.	c #164377",
"Q.	c #0D4476",
"R.	c #064F6F",
"S.	c #009ABA",
"T.	c #00ADE1",
"U.	c #003FCE",
"V.	c #0040D1",
"W.	c #004BF2",
"X.	c #0054FF",
"Y.	c #14BA46",
"Z.	c #174373",
"`.	c #0D416C",
" +	c #09577E",
".+	c #005D92",
"++	c #00A0BB",
"@+	c #13AC3F",
"#+	c #0D3768",
"$+	c #0D4875",
"%+	c #07477D",
"&+	c #005E90",
"*+	c #0075AB",
"=+	c #0089C8",
"-+	c #15B845",
";+	c #1AE255",
">+	c #0B5075",
",+	c #063F7B",
"'+	c #025D8A",
")+	c #007997",
"!+	c #0087B0",
"~+	c #0081C5",
"{+	c #007E85",
"]+	c #00888F",
"^+	c #008D99",
"/+	c #009FAF",
"                                                ",
"        . . . . . . . .                         ",
"      . + + + + @ # $ % .                       ",
"        . & * = - ; % .                         ",
"          . > , ' ) .   . . . . . . . .         ",
"          . ! ~ { ] . . ^ / ( _ : < $ % .       ",
"          . [ } | 1 .   . 2 3 4 5 6 % .         ",
"        . . 7 8 9 0 . .   . a b c d .           ",
"      . e f e g h i j . . . k l m ] .           ",
"    . e n + o p 7 q . r . . s t u v .           ",
"    . f + + w x y z . r A . B C D E . .         ",
"  . 7 F G + H e I [ . r J K . L M N O P .       ",
"  . Q R S T U V W X . Y Z `  .. ..+.@.#.$..     ",
"  . %.&.*.=.-.;.>.,.. '.).!.~.{.. ].^./.(..     ",
"  . _.:.<.[.}.|.1.2.. 3.).4.5.6.7.. 8.9.0.a..   ",
"    . b.c.d.e.f.g.h.. J i.j.k.l.m.n.. o.p.q..   ",
"    . r.s.t.u.v.w.x.. i.i.y.z.A.B.. C.D.E.F..   ",
"      . G.H.I.J.K.L.. i.M.z.N.O.. P.Q.R.S.T..   ",
"        . . U.V.W.X.. 4.z.Y.A.. Z.`. +.+++.     ",
"            . . . . . z.@+A.. #+$+%+&+*+=+.     ",
"                    . -+;+. >+,+'+)+!+~+.       ",
"                    . ;+. . {+]+^+/+. .         ",
"                      .     . . . .             ",
"                                                "};
