/* XPM */
static char * del_xpm[] = {
"24 24 145 2",
"  	c None",
". 	c #000000",
"+ 	c #C0DEFE",
"@ 	c #CBECF5",
"# 	c #8A9BDB",
"$ 	c #B9D6FF",
"% 	c #ACC9E4",
"& 	c #7786BC",
"* 	c #EEFCFF",
"= 	c #C9E6ED",
"- 	c #7887BE",
"; 	c #D7F6FB",
"> 	c #6F7FAB",
", 	c #7280B4",
"' 	c #FDE2E2",
") 	c #9DB6DF",
"! 	c #8191CB",
"~ 	c #E1EFDB",
"{ 	c #ECF4DA",
"] 	c #E7F2DB",
"^ 	c #9CB1FF",
"/ 	c #90A4DE",
"( 	c #707EB2",
"_ 	c #F6E9E8",
": 	c #FBE2E2",
"< 	c #5B6790",
"[ 	c #717FB2",
"} 	c #8090CA",
"| 	c #D2DFCD",
"1 	c #CADCCF",
"2 	c #8A9BDA",
"3 	c #5F6B96",
"4 	c #8799D6",
"5 	c #99ABA6",
"6 	c #97A9A4",
"7 	c #E2EDE8",
"8 	c #2C2C2C",
"9 	c #272B2A",
"0 	c #6875A4",
"a 	c #7C8BC4",
"b 	c #8293CE",
"c 	c #EDF8E0",
"d 	c #90A2E4",
"e 	c #6D7AAB",
"f 	c #232726",
"g 	c #242827",
"h 	c #434B49",
"i 	c #D9F3EC",
"j 	c #2D3231",
"k 	c #5C6764",
"l 	c #3D4442",
"m 	c #687471",
"n 	c #6A726F",
"o 	c #4A4746",
"p 	c #E5ECE7",
"q 	c #DBF5EE",
"r 	c #DDF8F2",
"s 	c #CAE2DC",
"t 	c #C9E1DB",
"u 	c #8B9A96",
"v 	c #8E9D99",
"w 	c #282626",
"x 	c #6D716E",
"y 	c #EDE7E3",
"z 	c #303535",
"A 	c #EBFFFF",
"B 	c #242826",
"C 	c #232625",
"D 	c #BFD3CE",
"E 	c #8E9E99",
"F 	c #90A29D",
"G 	c #252827",
"H 	c #5A6462",
"I 	c #404946",
"J 	c #6B7A76",
"K 	c #B7CCC7",
"L 	c #3D4543",
"M 	c #A9BAB5",
"N 	c #DCF0EA",
"O 	c #E4FBF4",
"P 	c #EAFFFF",
"Q 	c #6D7A77",
"R 	c #2D3331",
"S 	c #BCD2CC",
"T 	c #2C3130",
"U 	c #ADC0BB",
"V 	c #A4B8B2",
"W 	c #4E5956",
"X 	c #E8EAE6",
"Y 	c #586060",
"Z 	c #707A7A",
"` 	c #2E3533",
" .	c #AFC4BE",
"..	c #58605F",
"+.	c #F5FFFF",
"@.	c #262B29",
"#.	c #99AAA7",
"$.	c #74827E",
"%.	c #F2FFFF",
"&.	c #FFFFFF",
"*.	c #EDFCE8",
"=.	c #272B2B",
"-.	c #9FA5A5",
";.	c #4C4646",
">.	c #FBF1F1",
",.	c #FFF1F1",
"'.	c #F0FCEC",
").	c #A9BEB9",
"!.	c #9CAAAA",
"~.	c #4B4F4F",
"{.	c #F2FBFB",
"].	c #FFFBFB",
"^.	c #B1C1C1",
"/.	c #F2FCEC",
"(.	c #232826",
"_.	c #5A6662",
":.	c #484F4F",
"<.	c #F0EEEA",
"[.	c #D4CECE",
"}.	c #6B7975",
"|.	c #69746F",
"1.	c #F7FBDF",
"2.	c #AABDB5",
"3.	c #9CB1AB",
"4.	c #262A29",
"5.	c #4E4949",
"6.	c #7A7A7A",
"7.	c #5E6A67",
"8.	c #303534",
"9.	c #252927",
"0.	c #C6C9B2",
"a.	c #AAB9AF",
"b.	c #83948F",
"c.	c #4F4444",
"d.	c #7A7373",
"e.	c #81918D",
"f.	c #453F3F",
"g.	c #7A7878",
"h.	c #A3B7B1",
"i.	c #A7BBB5",
"j.	c #B9CFC9",
"k.	c #A2B5AF",
"l.	c #424A48",
"m.	c #616C69",
"n.	c #626E6B",
"                                                ",
"          . . . . .           . . .             ",
"          . + @ # .         . $ % & .           ",
"          . * = - . . . . . . ; > , .           ",
"        . ' . ) ! . ~ { ] . ^ / ( . . .         ",
"      . _ : . < [ } . | 1 . 2 3 4 . 5 6 .       ",
"      . 7 8 9 0 a b . c . d 4 e . f g h h .     ",
"      . 7 7 i j k k k l l j j g g m n o h .     ",
"        . p q r i i i s t u v m m m w x h .     ",
"        . y z A j j i i B C D E F . G H h .     ",
"        . i I A J j i K g L C M F . g h h .     ",
"        . N O z P Q R S j j T U V . W h h .     ",
"        . X X Y A Z `  .j m m  .V . W h .       ",
"          . i ..+.Z `  .j m F  .V @.#.h .       ",
"          . i $.%.&.A  .m F i *.V =.-.;..       ",
"          . i V >.,.A i m F F '.).@.!.~..       ",
"        . i i i {.].^.S m F m /.^.(._.:..       ",
"        . i i i <.[.}. .F F |.1.2.3.4.5.6..     ",
"        . V i i 7.8.j i F i 9.0.a.b.. c.d..     ",
"        . V V i i m i i g F g V 5 e.f.d.g..     ",
"          . . i S S h.i.K g j.k.l.h h . .       ",
"              . . . . S m m.n.h h . .           ",
"                      . . . . . .               ",
"                                                "};
