/* XPM */
static char * del_com_xpm[] = {
"20 20 21 1",
" 	c None",
".	c #000000",
"+	c #B3C2A7",
"@	c #708C58",
"#	c #859D71",
"$	c #627B4D",
"%	c #97AB86",
"&	c #566C43",
"*	c #A2BD9E",
"=	c #789774",
"-	c #88AC84",
";	c #C46D74",
">	c #9F3C44",
",	c #B5444E",
"'	c #BD5A62",
")	c #698566",
"!	c #7B2D34",
"~	c #688251",
"{	c #8C343C",
"]	c #6D8956",
"^	c #4F633E",
"           ..       ",
"          .+@.      ",
"          .#$.      ",
"         .%@.       ",
"   ..    .#&.       ",
"  .*=.  ..@.    .   ",
"  .--...;>..   .,.  ",
"   .-=..,,.   .',.  ",
"   .--)..,>. .',!.  ",
"    .--~.,,..',{.   ",
"     .-]^.,,,,>.    ",
"     .--..,,,,.     ",
"      .).',,,.      ",
"       .',,,,.      ",
"      .',{..,{.     ",
"     .;,{. .>,.     ",
"     .,{.   .,>.    ",
"      ..    .>,.    ",
"             ..     ",
"                    "};
