/* XPM */
static char * del_com_xpm[] = {
"24 24 195 2",
"  	c None",
". 	c #000000",
"+ 	c #FFFFFF",
"@ 	c #E4EEF6",
"# 	c #D3E1EE",
"$ 	c #E0EBF4",
"% 	c #F3F8FB",
"& 	c #ABD3FF",
"* 	c #CCF8FF",
"= 	c #C9F8FF",
"- 	c #9DC3FF",
"; 	c #8AA6FF",
"> 	c #5B6BD2",
", 	c #515EBB",
"' 	c #6473E9",
") 	c #B4CBDE",
"! 	c #A3BDD4",
"~ 	c #445F78",
"{ 	c #46627B",
"] 	c #A2BCD3",
"^ 	c #B5CCDF",
"/ 	c #4D6A84",
"( 	c #CADBEA",
"_ 	c #6575F2",
": 	c #525EBE",
"< 	c #505BB5",
"[ 	c #3A4385",
"} 	c #6777F6",
"| 	c #DCE6EE",
"1 	c #D1DDEA",
"2 	c #C6D6E5",
"3 	c #97B1CA",
"4 	c #7594AF",
"5 	c #375066",
"6 	c #213343",
"7 	c #243747",
"8 	c #385268",
"9 	c #47637C",
"0 	c #4F5ABA",
"a 	c #515EBC",
"b 	c #31376F",
"c 	c #5560BF",
"d 	c #E1E1E1",
"e 	c #57738B",
"f 	c #68849C",
"g 	c #E1E6EA",
"h 	c #2A3F52",
"i 	c #243748",
"j 	c #597893",
"k 	c #1C2C39",
"l 	c #A6C0D6",
"m 	c #859EFF",
"n 	c #6777F5",
"o 	c #3F488E",
"p 	c #5966CA",
"q 	c #C3C3C3",
"r 	c #4D657B",
"s 	c #647E94",
"t 	c #E2E2E2",
"u 	c #2D4356",
"v 	c #7897B1",
"w 	c #7998B3",
"x 	c #273B4D",
"y 	c #87A1FF",
"z 	c #3D468C",
"A 	c #5C6BDC",
"B 	c #B0B0B0",
"C 	c #485E72",
"D 	c #C5C8CA",
"E 	c #C6D0D9",
"F 	c #2E4457",
"G 	c #CBDBE8",
"H 	c #AAC3D8",
"I 	c #293E51",
"J 	c #DCE8F2",
"K 	c #7082FF",
"L 	c #6675EE",
"M 	c #4751A0",
"N 	c #6576F2",
"O 	c #597084",
"P 	c #D5D5D6",
"Q 	c #E4E7EA",
"R 	c #2F4559",
"S 	c #ECF2F8",
"T 	c #C3D5E7",
"U 	c #54728D",
"V 	c #D5EFDD",
"W 	c #C4E8CF",
"X 	c #6371E4",
"Y 	c #5A66CC",
"Z 	c #4D58AF",
"` 	c #5F6EE3",
" .	c #6373EC",
"..	c #D5D7DA",
"+.	c #D3DEE7",
"@.	c #D5E3EF",
"#.	c #A4BED4",
"$.	c #425E76",
"%.	c #C8DAEA",
"&.	c #ABDFBB",
"*.	c #6474EB",
"=.	c #525DBC",
"-.	c #5A6AD4",
";.	c #6271E7",
">.	c #AEC6DB",
",.	c #3D576E",
"'.	c #BCD0E2",
").	c #A1DCB3",
"!.	c #7BCD93",
"~.	c #535FB6",
"{.	c #4A56A8",
"].	c #5E6ED1",
"^.	c #ECF8F0",
"/.	c #C8EAD2",
"(.	c #A4DDB5",
"_.	c #A0BAD2",
":.	c #8FAFFF",
"<.	c #A4CDFF",
"[.	c #89D39F",
"}.	c #68C684",
"|.	c #44B967",
"1.	c #454D8B",
"2.	c #374083",
"3.	c #DAF1E1",
"4.	c #B6E3C3",
"5.	c #92D6A6",
"6.	c #6DC888",
"7.	c #456179",
"8.	c #8EACFF",
"9.	c #8098FF",
"0.	c #4EBD6F",
"a.	c #2EB155",
"b.	c #12A73F",
"c.	c #7FCF97",
"d.	c #5BC27A",
"e.	c #89A5BD",
"f.	c #273C4F",
"g.	c #83A1BB",
"h.	c #87A2F8",
"i.	c #9FC6E5",
"j.	c #778EFF",
"k.	c #7387FF",
"l.	c #13A73F",
"m.	c #49BB6B",
"n.	c #95A9BA",
"o.	c #809CB4",
"p.	c #203241",
"q.	c #8BA8C2",
"r.	c #7F9AFE",
"s.	c #7F99E4",
"t.	c #7F98EB",
"u.	c #6B7BF9",
"v.	c #13AA40",
"w.	c #14B243",
"x.	c #213240",
"y.	c #597288",
"z.	c #48637A",
"A.	c #456079",
"B.	c #738CE4",
"C.	c #5A6ACB",
"D.	c #5563C9",
"E.	c #525DB9",
"F.	c #535FBF",
"G.	c #13B544",
"H.	c #14AF42",
"I.	c #18D44F",
"J.	c #758491",
"K.	c #20303E",
"L.	c #253646",
"M.	c #516D85",
"N.	c #516E87",
"O.	c #C9DAE9",
"P.	c #6270E0",
"Q.	c #5560C0",
"R.	c #515DB7",
"S.	c #444D99",
"T.	c #434C95",
"U.	c #3D4479",
"V.	c #18DE53",
"W.	c #18DC52",
"X.	c #3B5061",
"Y.	c #3F5466",
"Z.	c #475F73",
"`.	c #6A88A2",
" +	c #616FDB",
".+	c #4E58AA",
"++	c #5260B7",
"@+	c #5D7080",
"#+	c #566A7B",
"$+	c #8594A0",
"%+	c #617A90",
"&+	c #ABBECE",
"*+	c #5E6BD4",
"=+	c #5866D1",
"-+	c #6F81FF",
"                                                ",
"                                                ",
"                  . . . . .   . .               ",
"                . + + + + + . + @ . .           ",
"        . . . . . . . . # @ $ % + + + . . .     ",
"      . & * = - ; > , ' . . ) ! ~ { ] ^ / ( .   ",
"        . _ : < [ [ } . | 1 2 3 4 5 6 7 8 9 .   ",
"          . 0 a b c . d e f g h i j k l . .     ",
"          . m n o p . q r s t u v w x ! .       ",
"          . y } z A . B C D E F G H I J .       ",
"        . . K L M N . . O P Q R S T U $ .       ",
"      . V W . X Y Z `  .. ..+.. @.#.$.%..       ",
"    . V + V &.. *.p =.-.;.. . + . >.,.'..       ",
"    . . V W ).!.. ~.M {.].. ^./.(.. $._..       ",
"  . :.<.. ).[.}.|.. 1.2.. 3.4.5.6.. 7.! .       ",
"  . 8.& 9.. }.0.a.b.. . /.(.c.d.. e.f.g..       ",
"  . h.i.j.k.. a.l.b.b.4.5.6.m.. n.o.p.q..       ",
"  . r.s.t.u.L . b.b.l.l.v.w.. x.y.z.A.q..       ",
"    . B.C.D.E.F.. G.l.H.I.. J.K.L.M.N.O..       ",
"    . P.Q.R.S.T.U.. V.W.. . X.Y.Z.M.`..         ",
"      .  +E.R.R..+++. . . @+#+$+%+&+.           ",
"        . . c *+=+-+. . . . . . . .             ",
"            . . . .                             ",
"                                                "};
