/* XPM */
static char * del_all_xpm[] = {
"24 24 105 2",
"  	c None",
". 	c #969696",
"+ 	c #949494",
"@ 	c #000000",
"# 	c #818181",
"$ 	c #737373",
"% 	c #606060",
"& 	c #828282",
"* 	c #7D7D7D",
"= 	c #BA4B18",
"- 	c #793110",
"; 	c #803310",
"> 	c #646464",
", 	c #929292",
"' 	c #D9571C",
") 	c #873610",
"! 	c #6C6C6C",
"~ 	c #F8641F",
"{ 	c #FE932E",
"] 	c #FF9C31",
"^ 	c #9F4015",
"/ 	c #9E3F14",
"( 	c #D1541B",
"_ 	c #8A8A8A",
": 	c #FE7828",
"< 	c #FFF652",
"[ 	c #FF9A30",
"} 	c #E65C1D",
"| 	c #BD4C18",
"1 	c #C8521A",
"2 	c #ED6321",
"3 	c #959595",
"4 	c #FE7D28",
"5 	c #FFD444",
"6 	c #FFAD36",
"7 	c #FD6521",
"8 	c #E35A1E",
"9 	c #913B13",
"0 	c #848484",
"a 	c #FF9B32",
"b 	c #FFDA44",
"c 	c #FF8A2C",
"d 	c #893712",
"e 	c #783110",
"f 	c #993E14",
"g 	c #888888",
"h 	c #FFA532",
"i 	c #FF9A31",
"j 	c #FF6D22",
"k 	c #BE4B18",
"l 	c #9E4014",
"m 	c #853611",
"n 	c #8D3912",
"o 	c #676767",
"p 	c #FF7124",
"q 	c #FFB93A",
"r 	c #FF7B28",
"s 	c #CC5018",
"t 	c #843511",
"u 	c #823411",
"v 	c #B64917",
"w 	c #717171",
"x 	c #FF8424",
"y 	c #FFA736",
"z 	c #FF6921",
"A 	c #AC4516",
"B 	c #9B3F14",
"C 	c #9C3F14",
"D 	c #636363",
"E 	c #D95C1C",
"F 	c #FE812B",
"G 	c #E55B1B",
"H 	c #B24817",
"I 	c #E75C1D",
"J 	c #E65E1F",
"K 	c #B04716",
"L 	c #AE4616",
"M 	c #7E3310",
"N 	c #AB4516",
"O 	c #D4551B",
"P 	c #E75E1D",
"Q 	c #963C13",
"R 	c #8B3812",
"S 	c #B74A18",
"T 	c #D8571C",
"U 	c #F26120",
"V 	c #B94B18",
"W 	c #FF7626",
"X 	c #B44817",
"Y 	c #58240B",
"Z 	c #9A3E14",
"` 	c #FF7E29",
" .	c #BB5E1E",
"..	c #5F260C",
"+.	c #933B13",
"@.	c #8C3812",
"#.	c #E75C1B",
"$.	c #A24A18",
"%.	c #5D250C",
"&.	c #903A13",
"*.	c #AD4616",
"=.	c #A84416",
"-.	c #DD581D",
";.	c #8E3912",
">.	c #A94416",
"                                                ",
"                                                ",
"                            . . . . +           ",
"                @ @ @     . # $ % & * *         ",
"              @ = - ; @ . > @       , *         ",
"              @ ' ) ; . ! @         . *         ",
"            @ ~ { ] ^ / @ ( @         _ @       ",
"            @ : < [ } | 1 2 ( @       3 @       ",
"          @ 4 5 6 7 8 = 9 9 = @       0 @       ",
"          @ a b c 7 = d e f @         g @       ",
"          @ h i j k l m n = @         , o       ",
"        @ p q r s = t u v @         . w         ",
"        @ x y z = A B C = @         . D         ",
"      @ = E F G = B B = @                       ",
"      @ H I J K L M B = @                       ",
"      @ N O P | Q R S @                         ",
"      @ M T 7 U t V = @                         ",
"      @ M ' W X Y Z @                           ",
"      @ 9 = `  ...+.@                           ",
"      @ e @.#.$.%.&.@                           ",
"      @ *.=.N -.;.>.@                           ",
"        @ @ @ @ @ @                             ",
"                                                ",
"                                                "};
