/* XPM */
static char * delcommini_xpm[] = {
"10 10 17 1",
" 	c None",
".	c #000000",
"+	c #19E931",
"@	c #17E531",
"#	c #21FE46",
"$	c #1DD72B",
"%	c #1BF435",
"&	c #D4FA11",
"*	c #97EE16",
"=	c #2BD929",
"-	c #16D62D",
";	c #7DE519",
">	c #5BE01F",
",	c #3ADF27",
"'	c #1FFB3A",
")	c #46DD23",
"!	c #3BFF48",
"          ",
"          ",
"        . ",
"       .+.",
"      .@#.",
" ..  .$%. ",
".&*..=-.  ",
" .;>,'.   ",
"  .)!.    ",
"   ..     "};
