/* XPM */
static char * delcommini_xpm[] = {
"10 11 54 1",
" 	c None",
".	c #1C1E1A",
"+	c #303928",
"@	c #4B5741",
"#	c #506141",
"$	c #0C0E0B",
"%	c #000000",
"&	c #758B62",
"*	c #151A10",
"=	c #374336",
"-	c #759271",
";	c #190E0F",
">	c #5A292D",
",	c #21291A",
"'	c #17080A",
")	c #230D0F",
"!	c #658062",
"~	c #4F634C",
"{	c #211111",
"]	c #9B3B43",
"^	c #240D0F",
"/	c #221012",
"(	c #9E434B",
"_	c #3B1619",
":	c #1F271E",
"<	c #769572",
"[	c #485A3B",
"}	c #5F292B",
"|	c #7C2E35",
"1	c #331417",
"2	c #A2444C",
"3	c #67272C",
"4	c #40513E",
"5	c #657F5C",
"6	c #11100B",
"7	c #B4434E",
"8	c #B3434D",
"9	c #732B31",
"0	c #38362D",
"a	c #954148",
"b	c #B4434D",
"c	c #9E3B44",
"d	c #1E1112",
"e	c #9A424A",
"f	c #7D2F36",
"g	c #130708",
"h	c #823138",
"i	c #45191D",
"j	c #4E2225",
"k	c #6D292F",
"l	c #301214",
"m	c #953840",
"n	c #0F0506",
"o	c #471A1E",
"     .+   ",
"     @#   ",
" $  %&*   ",
"=-%;>,  ')",
" !~{]^ /(_",
" :<[}|123 ",
"  456789  ",
"   0abc%  ",
"  defghi  ",
"  jk  lmn ",
"       o  "};
