/* XPM */
static char * delcommini_xpm[] = {
"12 12 78 1",
" 	c None",
".	c #555555",
"+	c #808080",
"@	c #5C7280",
"#	c #586E80",
"$	c #364274",
"%	c #2A3168",
"&	c #6E7479",
"*	c #CBDBE8",
"=	c #A2B0BC",
"-	c #96A2AC",
";	c #46515C",
">	c #1F2551",
",	c #4A57BA",
"'	c #3A428D",
")	c #585C7D",
"!	c #A4BACC",
"~	c #A0B2C2",
"{	c #4B657C",
"]	c #425666",
"^	c #202D39",
"/	c #000000",
"(	c #5F70F6",
"_	c #4652AF",
":	c #8EA6BA",
"<	c #8F9EAA",
"[	c #9BB4CA",
"}	c #748899",
"|	c #37427F",
"1	c #6577F2",
"2	c #4E5BC2",
"3	c #2D3574",
"4	c #9CA4AC",
"5	c #9AABBA",
"6	c #CADAE9",
"7	c #90A5B8",
"8	c #465580",
"9	c #AAD0FF",
"0	c #6273EC",
"a	c #5360CA",
"b	c #4A57B8",
"c	c #2E3672",
"d	c #AFBFCD",
"e	c #C2D4E3",
"f	c #7790A6",
"g	c #96BBFF",
"h	c #7187FE",
"i	c #5967D9",
"j	c #5664D3",
"k	c #3C4696",
"l	c #5666D1",
"m	c #2D3C4A",
"n	c #A4BDD3",
"o	c #657F96",
"p	c #83A2F0",
"q	c #667AF4",
"r	c #4D5AC0",
"s	c #333D7D",
"t	c #5F74CC",
"u	c #22303C",
"v	c #7E9AB3",
"w	c #607A91",
"x	c #313B70",
"y	c #4D5ABE",
"z	c #4651AC",
"A	c #414CA3",
"B	c #424EA6",
"C	c #364070",
"D	c #67829A",
"E	c #516E87",
"F	c #637688",
"G	c #293064",
"H	c #4E5ABF",
"I	c #5565D4",
"J	c #303A77",
"K	c #242C32",
"L	c #505D68",
"M	c #4E5A66",
"            ",
"    .++..   ",
"  @#$%&*=-; ",
"  >,')!~{]^ ",
"  /(_+:<[}/ ",
"  |1234567/ ",
" 890abcdef/ ",
"/ghijklmno/ ",
"/pqirstuvw/ ",
" xyzABCDEF  ",
"  GHIJKLM   ",
"   //       "};
