/* XPM */
static char * delmini_xpm[] = {
"10 11 82 1",
" 	c None",
".	c #2D322A",
"+	c #3E413C",
"@	c #31332F",
"#	c #262A23",
"$	c #262923",
"%	c #2A2D26",
"&	c #242622",
"*	c #7A8375",
"=	c #A3B199",
"-	c #A9B3A1",
";	c #60665B",
">	c #4C5347",
",	c #6F7867",
"'	c #93A188",
")	c #5F6758",
"!	c #1B1D18",
"~	c #292E27",
"{	c #B2BFAC",
"]	c #C0CAB8",
"^	c #ACB9A2",
"/	c #9CAA91",
"(	c #97A48C",
"_	c #98A68C",
":	c #8D9C82",
"<	c #1F251B",
"[	c #809477",
"}	c #A9B9A2",
"|	c #A9B9A4",
"1	c #92A589",
"2	c #889C7E",
"3	c #7F9076",
"4	c #74846D",
"5	c #5A6A56",
"6	c #161A15",
"7	c #272C25",
"8	c #60715C",
"9	c #60705C",
"0	c #596855",
"a	c #4F5A4A",
"b	c #485245",
"c	c #3E453C",
"d	c #232622",
"e	c #3B4738",
"f	c #687165",
"g	c #505A4E",
"h	c #454D44",
"i	c #465044",
"j	c #424B40",
"k	c #424A3F",
"l	c #3B4638",
"m	c #A1B09C",
"n	c #7C8E76",
"o	c #667563",
"p	c #687C63",
"q	c #60725B",
"r	c #556351",
"s	c #040404",
"t	c #A0B09C",
"u	c #7B8E76",
"v	c #667562",
"w	c #556350",
"x	c #050505",
"y	c #3C4839",
"z	c #9FAF9B",
"A	c #677663",
"B	c #3B4538",
"C	c #2D362A",
"D	c #83987D",
"E	c #7A8F74",
"F	c #72866D",
"G	c #6B8165",
"H	c #65785F",
"I	c #5C6D57",
"J	c #262C23",
"K	c #060606",
"L	c #21281F",
"M	c #252D23",
"N	c #242C22",
"O	c #232A21",
"P	c #222920",
"Q	c #1D221B",
"  .+@#$%  ",
"&*=-;>,')!",
"~{]^/(__:#",
"<[}|123456",
" 7890abcd ",
" efghijkl ",
" emnopqrls",
" etuvpqwlx",
" yzuApqwBx",
" CDEFGHIJK",
"  LMNOPQs "};
