/* XPM */
static char * delmini_xpm[] = {
"10 10 17 1",
" 	c None",
".	c #000000",
"+	c #1BE7D3",
"@	c #1BE6D2",
"#	c #17C6B5",
"$	c #14AA9B",
"%	c #1BE9D4",
"&	c #17CDBB",
"*	c #1DF4E8",
"=	c #16B6A6",
"-	c #22FEFB",
";	c #14AE9F",
">	c #18C8B7",
",	c #22FDFA",
"'	c #1AE0CC",
")	c #16BCAB",
"!	c #1AE1CD",
"   ....   ",
"  .+@#$.  ",
" .%&....  ",
" ......   ",
"  .#..$.  ",
"  .*$$=.  ",
"  .-;.>.  ",
"  .,'.).  ",
"  .+!$$.  ",
"   ....   "};
