/* XPM */
static char * dnd_xpm[] = {
"24 24 176 2",
"  	c None",
". 	c #000000",
"+ 	c #FFFFFF",
"@ 	c #C8E8F7",
"# 	c #F2FBFF",
"$ 	c #89BDD8",
"% 	c #B6DDF1",
"& 	c #6EA5C1",
"* 	c #D5EFFB",
"= 	c #94C7E0",
"- 	c #E5F5FD",
"; 	c #ABABAB",
"> 	c #B1B1B1",
", 	c #C1C1C1",
"' 	c #DADADA",
") 	c #F0F0F0",
"! 	c #C4E4F3",
"~ 	c #8DC1DB",
"{ 	c #DDF1FC",
"] 	c #A7ADB0",
"^ 	c #9BB4BF",
"/ 	c #AFCBD8",
"( 	c #82B4CD",
"_ 	c #87BAD5",
": 	c #ACD7ED",
"< 	c #FAFDFF",
"[ 	c #95B6C6",
"} 	c #B8D5E3",
"| 	c #6BA1BC",
"1 	c #D4EEFA",
"2 	c #E4F5FD",
"3 	c #C0E3F5",
"4 	c #D8D8D8",
"5 	c #F1F1F1",
"6 	c #92C4DD",
"7 	c #CDEAF9",
"8 	c #D2ECFA",
"9 	c #E9F7FE",
"0 	c #D2D2D2",
"a 	c #EBEBEB",
"b 	c #89BBD4",
"c 	c #DBEFFA",
"d 	c #D9F0FB",
"e 	c #9FCEE6",
"f 	c #CEEBF9",
"g 	c #C2C2C2",
"h 	c #A0C8DD",
"i 	c #F4F7F9",
"j 	c #BADFF3",
"k 	c #78AECA",
"l 	c #9BCCE4",
"m 	c #C5C5C5",
"n 	c #C5D4DB",
"o 	c #B5D6E7",
"p 	c #E1F1F9",
"q 	c #86A7FF",
"r 	c #A6D0FF",
"s 	c #7791FF",
"t 	c #6E85FE",
"u 	c #6B82FE",
"v 	c #5665D9",
"w 	c #4653A4",
"x 	c #344BA5",
"y 	c #2A4BBD",
"z 	c #3450AC",
"A 	c #677AEC",
"B 	c #B3B3B3",
"C 	c #CACACA",
"D 	c #CDDCE3",
"E 	c #C5E1F0",
"F 	c #D0EAF8",
"G 	c #7E9FFF",
"H 	c #95CFFC",
"I 	c #6E87FF",
"J 	c #6A7FFF",
"K 	c #5E6EF2",
"L 	c #5665DA",
"M 	c #5364D7",
"N 	c #3E4988",
"O 	c #294293",
"P 	c #2748B0",
"Q 	c #2C4781",
"R 	c #607AD1",
"S 	c #A9A9A9",
"T 	c #A7B3B9",
"U 	c #B6CAD3",
"V 	c #A1C9DE",
"W 	c #9CCAE2",
"X 	c #7793FF",
"Y 	c #749DFC",
"Z 	c #749AFD",
"` 	c #6172F9",
" .	c #5B6CEC",
"..	c #5767DE",
"+.	c #3750AF",
"@.	c #2F448E",
"#.	c #233B83",
"$.	c #2447A1",
"%.	c #3851A7",
"&.	c #6E8FFE",
"*.	c #A4A4A4",
"=.	c #9EAAAF",
"-.	c #A8CADC",
";.	c #75A9C5",
">.	c #9ACBE3",
",.	c #698EFC",
"'.	c #4E6FF3",
").	c #4963E5",
"!.	c #455DD5",
"~.	c #4660DD",
"{.	c #394C9D",
"].	c #264193",
"^.	c #2E4EB6",
"/.	c #3456C3",
"(.	c #5272C9",
"_.	c #9F9F9F",
":.	c #A2A2A2",
"<.	c #B9BFC3",
"[.	c #99BFD2",
"}.	c #689DB9",
"|.	c #99CAE2",
"1.	c #495FD6",
"2.	c #455CD3",
"3.	c #3752C5",
"4.	c #3651C0",
"5.	c #304799",
"6.	c #304FBD",
"7.	c #3654C8",
"8.	c #3F5AD9",
"9.	c #6A89F9",
"0.	c #A4A8AB",
"a.	c #B1BCC2",
"b.	c #7CABC2",
"c.	c #5B8FAA",
"d.	c #8ABED8",
"e.	c #455DD4",
"f.	c #4157C3",
"g.	c #4664DE",
"h.	c #5970F0",
"i.	c #5C75FE",
"j.	c #A0A0A0",
"k.	c #7895A4",
"l.	c #81A6B8",
"m.	c #6698B1",
"n.	c #50829D",
"o.	c #A9D4EB",
"p.	c #485FD6",
"q.	c #5364D9",
"r.	c #4B68F3",
"s.	c #6579FF",
"t.	c #788E98",
"u.	c #82939B",
"v.	c #7F939C",
"w.	c #8599A3",
"x.	c #94AAB5",
"y.	c #6492A9",
"z.	c #76A8C2",
"A.	c #89BCD6",
"B.	c #CAE9F8",
"C.	c #86959D",
"D.	c #698797",
"E.	c #7192A2",
"F.	c #80A4B7",
"G.	c #7CAAC2",
"H.	c #92C1DA",
"I.	c #B8DDF1",
"J.	c #879BA5",
"K.	c #8DA3AE",
"L.	c #9CB4BF",
"M.	c #AFC9D6",
"N.	c #AFD2E5",
"O.	c #E5F3FA",
"P.	c #A8BDC6",
"Q.	c #D4D9DD",
"R.	c #BCD9E7",
"S.	c #F9F9F9",
"                                                ",
"        . . . . . . . .                         ",
"      . + + + + + @ @ + .                       ",
"        . # @ @ $ $ + .                         ",
"          . % @ & * .   . . . . . . . .         ",
"          . + + = - . . ; > , ' ) ! @ + .       ",
"          . + + ~ { .   . ] ^ / ( _ + .         ",
"        . . + + : < . .   . [ } | 1 .           ",
"      . + + + + 2 3 - # . . 4 5 6 - .           ",
"    . + + + + + + - 7 8 9 . 0 a b c .           ",
"    . + + + + + 2 d : e f . g ' h i . .         ",
"  . + + + + + + 2 + j k l # . m n o p # .       ",
"  . q r s t u v v w x y z A . B C D E F 9 .     ",
"  . G H I J K L M N O P Q R . S T U V W f .     ",
"  . X Y Z `  ...+.@.#.$.%.&.. *.=.C -.;.>.# .   ",
"    . ,.'.).!.~.{.].^./.(.. _.:.; <.[.}.|.+ .   ",
"    . ..1.2.3.4.5.6.7.8.9.. _.:.0.a.b.c.d.9 .   ",
"      . v e.2.2.f.g.h.i.. _.j.*.k.l.m.n.o.9 .   ",
"        . . p.q.r.s.. . t.u.v.w.x.y.z.A.B..     ",
"            . . . . . _.C.v.D.E.F.G.H.I.2 .     ",
"                      . *.J.K.L.M.N.O.9 .       ",
"                        . . P.Q.R.S.. .         ",
"                            . . . .             ",
"                                                "};
