/* XPM */
static char * dndoffline_xpm[] = {
"10 8 3 1",
" 	c None",
".	c #000000",
"+	c #FF5050",
"  .    .  ",
" .+.  .+. ",
"..+.  .+..",
"+++.  .+++",
"+++.  .+++",
"..+.  .+..",
" .+.  .+. ",
"  .    .  "};
