/* XPM */
static char * dndtrash_bar_xpm[] = {
"24 24 283 2",
"  	c None",
". 	c #212121",
"+ 	c #202021",
"@ 	c #202020",
"# 	c #242427",
"$ 	c #41425C",
"% 	c #282830",
"& 	c #212020",
"* 	c #80711C",
"= 	c #9B811F",
"- 	c #856823",
"; 	c #584424",
"> 	c #252220",
", 	c #222223",
"' 	c #66679A",
") 	c #797AC6",
"! 	c #262628",
"~ 	c #3D3D3D",
"{ 	c #585025",
"] 	c #F8CD1E",
"^ 	c #FEC125",
"/ 	c #FFB02D",
"( 	c #FF9F34",
"_ 	c #EC843A",
": 	c #88492C",
"< 	c #282321",
"[ 	c #585979",
"} 	c #A6A8FE",
"| 	c #575888",
"1 	c #383838",
"2 	c #2F2F2F",
"3 	c #25262D",
"4 	c #212122",
"5 	c #2E2E2E",
"6 	c #323232",
"7 	c #604E36",
"8 	c #FF9C35",
"9 	c #B06F3C",
"0 	c #C0683D",
"a 	c #FE6832",
"b 	c #DA4C27",
"c 	c #442520",
"d 	c #393A4E",
"e 	c #9A9EF5",
"f 	c #9699F9",
"g 	c #313240",
"h 	c #404040",
"i 	c #3C3C5D",
"j 	c #7072C9",
"k 	c #515284",
"l 	c #232426",
"m 	c #724F30",
"n 	c #FF893D",
"o 	c #45332A",
"p 	c #343434",
"q 	c #7A4638",
"r 	c #F84020",
"s 	c #F12E17",
"t 	c #5F384A",
"u 	c #8C8FFA",
"v 	c #7A7BD5",
"w 	c #272728",
"x 	c #353535",
"y 	c #232327",
"z 	c #5F609C",
"A 	c #9193FA",
"B 	c #292930",
"C 	c #8C5636",
"D 	c #FE773A",
"E 	c #252528",
"F 	c #282828",
"G 	c #72362F",
"H 	c #FE1A0D",
"I 	c #C4100C",
"J 	c #7072D0",
"K 	c #525491",
"L 	c #252429",
"M 	c #61619B",
"N 	c #A05436",
"O 	c #FE6130",
"P 	c #8A8EE5",
"Q 	c #686CA8",
"R 	c #4E527A",
"S 	c #262626",
"T 	c #C61614",
"U 	c #EB0202",
"V 	c #5D61B1",
"W 	c #383959",
"X 	c #2D2D2E",
"Y 	c #A74B31",
"Z 	c #FE4B25",
"` 	c #8D93F7",
" .	c #8086E3",
"..	c #4E517E",
"+.	c #2C1F20",
"@.	c #DB0505",
"#.	c #B80F16",
"$.	c #4A5091",
"%.	c #323450",
"&.	c #222222",
"*.	c #A9422D",
"=.	c #FE391C",
"-.	c #424465",
";.	c #2A2B36",
">.	c #501919",
",.	c #C90606",
"'.	c #D70202",
").	c #4A242C",
"!.	c #2A2B3C",
"~.	c #2F314A",
"{.	c #48497B",
"].	c #2D2D39",
"^.	c #A23628",
"/.	c #FE2412",
"(.	c #C2150E",
"_.	c #DF0706",
":.	c #F10000",
"<.	c #C60909",
"[.	c #8E5623",
"}.	c #896E21",
"|.	c #886724",
"1.	c #352E27",
"2.	c #5C5EAB",
"3.	c #262632",
"4.	c #6B3E29",
"5.	c #844229",
"6.	c #302B34",
"7.	c #3C3D5D",
"8.	c #25252A",
"9.	c #74322D",
"0.	c #EB150D",
"a.	c #E20A08",
"b.	c #AC1818",
"c.	c #722725",
"d.	c #A0842A",
"e.	c #F6BD25",
"f.	c #D48F2C",
"g.	c #332C27",
"h.	c #242436",
"i.	c #4F2E20",
"j.	c #F85D2E",
"k.	c #D84E29",
"l.	c #3D3957",
"m.	c #7979DE",
"n.	c #6F6FC6",
"o.	c #46466F",
"p.	c #38383E",
"q.	c #424255",
"r.	c #505280",
"s.	c #2B2B33",
"t.	c #363228",
"u.	c #4D3E23",
"v.	c #EF9633",
"w.	c #F78A3A",
"x.	c #563726",
"y.	c #512E20",
"z.	c #E6582C",
"A.	c #D94826",
"B.	c #3B201A",
"C.	c #24242F",
"D.	c #2E2E3D",
"E.	c #27272F",
"F.	c #252529",
"G.	c #1C1C1E",
"H.	c #696993",
"I.	c #9898F7",
"J.	c #8A8CFC",
"K.	c #8082F1",
"L.	c #787AE6",
"M.	c #6C6ED2",
"N.	c #323451",
"O.	c #6C442A",
"P.	c #FC7A3B",
"Q.	c #EB6332",
"R.	c #F2562B",
"S.	c #C34224",
"T.	c #281A18",
"U.	c #0D0D0D",
"V.	c #121212",
"W.	c #151515",
"X.	c #181818",
"Y.	c #141414",
"Z.	c #212123",
"`.	c #585883",
" +	c #9B9BFB",
".+	c #9191FE",
"++	c #8C8DFF",
"@+	c #888AFE",
"#+	c #8889FC",
"$+	c #8284F2",
"%+	c #37385A",
"&+	c #30241F",
"*+	c #E05A2E",
"=+	c #FF5228",
"-+	c #ED4121",
";+	c #2E1E1C",
">+	c #030303",
",+	c #010101",
"'+	c #4D4E79",
")+	c #8A8AF2",
"!+	c #8787F2",
"~+	c #7F7FE6",
"{+	c #6061A3",
"]+	c #515283",
"^+	c #545585",
"/+	c #303042",
"(+	c #3F261D",
"_+	c #DC542B",
":+	c #E54925",
"<+	c #C7361F",
"[+	c #FE2D16",
"}+	c #B01F15",
"|+	c #1B1818",
"1+	c #0E0E0E",
"2+	c #30303E",
"3+	c #7376C4",
"4+	c #6F70BF",
"5+	c #515185",
"6+	c #27272E",
"7+	c #272727",
"8+	c #171717",
"9+	c #552A1D",
"0+	c #ED562B",
"a+	c #CF4224",
"b+	c #362324",
"c+	c #30201E",
"d+	c #E4180E",
"e+	c #FE0804",
"f+	c #8B1010",
"g+	c #3D1B1B",
"h+	c #1D1D1D",
"i+	c #4E4F78",
"j+	c #4F4F7C",
"k+	c #2E2F3D",
"l+	c #232323",
"m+	c #2D2D2D",
"n+	c #0C0C0C",
"o+	c #261612",
"p+	c #ED542A",
"q+	c #FC4D26",
"r+	c #5F251E",
"s+	c #2A2A3E",
"t+	c #621715",
"u+	c #F80603",
"v+	c #F60000",
"w+	c #DD0000",
"x+	c #C80101",
"y+	c #361919",
"z+	c #2C2C36",
"A+	c #41415F",
"B+	c #191919",
"C+	c #31221F",
"D+	c #862D1F",
"E+	c #87261B",
"F+	c #441C1A",
"G+	c #5C5E98",
"H+	c #3D1D1E",
"I+	c #7E1211",
"J+	c #761212",
"K+	c #6F1212",
"L+	c #620F0F",
"M+	c #181212",
"N+	c #000000",
"O+	c #232326",
"P+	c #1B1B1B",
"Q+	c #111111",
"R+	c #2A2A35",
"S+	c #7F81E7",
"T+	c #6667B8",
"U+	c #313146",
"V+	c #161616",
"W+	c #101010",
"X+	c #0F0F0F",
"Y+	c #0B0B0B",
"Z+	c #505182",
"`+	c #9192FD",
" @	c #4C4C74",
".@	c #6C6CA7",
"+@	c #4C4C68",
"@@	c #18171A",
"#@	c #242428",
"$@	c #262629",
"%@	c #111113",
"                              . +               ",
"      @ @ @ @               # $ %               ",
"      & * = - ; > @       , ' ) ! ~             ",
"    @ { ] ^ / ( _ : <   . [ } | 1 2             ",
"+ 3 4 5 6 7 8 9 0 a b c d e f g h               ",
". i j k l m n o p q r s t u v w x               ",
"  y z A B C D E @ F G H I J K 2                 ",
"    L M # N O P Q R S T U V W X                 ",
"      , + Y Z `  ...+.@.#.$.%.4                 ",
"        &.*.=.-.;.>.,.'.).!.~.{.].+ @ @         ",
"        . ^./.(._.:.<.[.}.|.1.2.3.4.5.6.7.8.4   ",
"        @ 9.0.a.b.c.d.e./ f.g.h.i.j.k.l.m.n.o.+ ",
"        @ 5 p.q.r.s.t.u.v.w.x.y.z.A.B.C.D.E.F.G.",
"        . H.I.J.K.L.M.N.O.P.Q.R.S.T.U.V.W.X.Y.  ",
"      Z.`. +.+++@+#+$+%+&+*+=+-+;+>+,+          ",
"    4 '+)+!+~+{+]+^+/+(+_+:+<+[+}+|+1+          ",
"    2+3+4+5+6+S 7+8+9+0+a+b+c+d+e+f+g+h+        ",
"  + i+j+k+l+m+&.n+o+p+q+r+s+t+u+v+w+x+y+,+      ",
"  z+A+y S m+B+    C+D+E+F+G+H+I+J+K+L+M+N+      ",
"  O+4 P+S Q+          P+R+S+T+U+V+W+n+          ",
"      X+Y+              4 Z+`+ @V+              ",
"                          O+.@+@@@              ",
"                            #@$@%@              ",
"                              Y.>+              "};
