/* XPM */
static char * down_xpm[] = {
"20 12 54 1",
" 	c None",
".	c #000000",
"+	c #FFFFFF",
"@	c #F3F3F3",
"#	c #E7E7E7",
"$	c #DCDCDC",
"%	c #D0D0D0",
"&	c #C4C4C4",
"*	c #B9B9B9",
"=	c #ADADAD",
"-	c #A1A1A1",
";	c #969696",
">	c #8A8A8A",
",	c #848484",
"'	c #F6F6F6",
")	c #EBEBEB",
"!	c #DFDFDF",
"~	c #D3D3D3",
"{	c #C8C8C8",
"]	c #BCBCBC",
"^	c #B0B0B0",
"/	c #A5A5A5",
"(	c #999999",
"_	c #8D8D8D",
":	c #EEEEEE",
"<	c #E2E2E2",
"[	c #D7D7D7",
"}	c #CBCBCB",
"|	c #BFBFBF",
"1	c #B4B4B4",
"2	c #A8A8A8",
"3	c #9C9C9C",
"4	c #919191",
"5	c #858585",
"6	c #DADADA",
"7	c #CECECE",
"8	c #C3C3C3",
"9	c #B7B7B7",
"0	c #ABABAB",
"a	c #A0A0A0",
"b	c #949494",
"c	c #888888",
"d	c #C6C6C6",
"e	c #BABABA",
"f	c #AFAFAF",
"g	c #A3A3A3",
"h	c #979797",
"i	c #8C8C8C",
"j	c #B2B2B2",
"k	c #A6A6A6",
"l	c #9B9B9B",
"m	c #8F8F8F",
"n	c #9E9E9E",
"o	c #929292",
"                    ",
"....................",
" ..+++@#$%&*=-;>,.. ",
"  ..+')!~{]^/(_,..  ",
"   ..:<[}|12345..   ",
"    ..67890abc..    ",
"     ..defghi..     ",
"      ..jklm..      ",
"       ..no..       ",
"        ....        ",
"         ..         ",
"                    "};
