/* XPM */
static char * down_bar_xpm[] = {
"24 24 49 1",
" 	c None",
".	c #000000",
"+	c #2B2B2B",
"@	c #E1EADF",
"#	c #FFFFFF",
"$	c #9DBB90",
"%	c #9ABB8F",
"&	c #90B387",
"*	c #83AA7C",
"=	c #3F6534",
"-	c #F0F4EF",
";	c #F3F7F3",
">	c #F4F7F4",
",	c #EFF3EE",
"'	c #88AC80",
")	c #83AA7A",
"!	c #87AC7D",
"~	c #80A776",
"{	c #5D8554",
"]	c #D4E0D1",
"^	c #EDF2EB",
"/	c #F1F5F0",
"(	c #749A6B",
"_	c #37592F",
":	c #82A87B",
"<	c #85A879",
"[	c #537C49",
"}	c #CEDCCB",
"|	c #EBF1EA",
"1	c #84A778",
"2	c #749868",
"3	c #3B5E31",
"4	c #E4EBE2",
"5	c #86A97C",
"6	c #C9D8C5",
"7	c #E5ECE3",
"8	c #DEE7DC",
"9	c #7EA476",
"0	c #759C6D",
"a	c #4B7040",
"b	c #D7E3D5",
"c	c #CBDAC7",
"d	c #759B6C",
"e	c #445840",
"f	c #181818",
"g	c #EEF3ED",
"h	c #59814F",
"i	c #B1C7AC",
"j	c #3A5934",
"                        ",
"                        ",
"                        ",
"                        ",
"                        ",
"                        ",
"     ......+.......     ",
"     .@#####$%%&*=.     ",
"      .-;>,,')!~{.      ",
"      .]^/,,*!~(_.      ",
"       .-,,,':<[.       ",
"       .}|||*123.       ",
"        ./|4<5[.        ",
"        .67890a.        ",
"         .-b1[.         ",
"         .c8de.         ",
"          fgh.          ",
"          .ij.          ",
"           ..           ",
"           ..           ",
"                        ",
"                        ",
"                        ",
"                        "};
