/* XPM */
static char * down_bar_xpm[] = {
"24 24 128 2",
"  	c None",
". 	c #000000",
"+ 	c #FCFFFF",
"@ 	c #F6FFFF",
"# 	c #DEFFFF",
"$ 	c #CFFBFF",
"% 	c #EEFEFF",
"& 	c #F7FFFF",
"* 	c #E2FEFF",
"= 	c #CCF6FE",
"- 	c #9BB8CE",
"; 	c #A6C5DC",
"> 	c #ABCEDD",
", 	c #8CA6B9",
"' 	c #C3EAFD",
") 	c #D5FCFF",
"! 	c #96B5C0",
"~ 	c #C7EFFE",
"{ 	c #B2D4EC",
"] 	c #D0FDFF",
"^ 	c #ABCDDE",
"/ 	c #D6FCFE",
"( 	c #F8FFFF",
"_ 	c #CCF5FE",
": 	c #C3EAFE",
"< 	c #FEFFFF",
"[ 	c #B6DAED",
"} 	c #BCDFF9",
"| 	c #DEFDFE",
"1 	c #FDFFFF",
"2 	c #D2FAFE",
"3 	c #BCE1F7",
"4 	c #BEE2FC",
"5 	c #F9FEFF",
"6 	c #FEFEFE",
"7 	c #DFFDFE",
"8 	c #B0D1E8",
"9 	c #AACAE1",
"0 	c #BFE3FD",
"a 	c #F1FEFE",
"b 	c #FFFFFF",
"c 	c #FAFFFF",
"d 	c #D6FDFF",
"e 	c #C1E7FE",
"f 	c #A5C4DA",
"g 	c #EDFEFF",
"h 	c #DDFDFE",
"i 	c #C3E9FE",
"j 	c #B4D6EF",
"k 	c #8EA9BD",
"l 	c #B7DAF3",
"m 	c #DEFCEA",
"n 	c #C0F5D0",
"o 	c #9BDFAD",
"p 	c #75D28E",
"q 	c #E4FEFE",
"r 	c #FCFEFF",
"s 	c #D7FEFF",
"t 	c #D0FBFF",
"u 	c #9CBAD0",
"v 	c #A7C6DD",
"w 	c #D5FFFF",
"x 	c #B4D9E5",
"y 	c #9CBACD",
"z 	c #91ACC1",
"A 	c #9DBBD1",
"B 	c #F1FBF6",
"C 	c #C3F0D1",
"D 	c #A2E1B3",
"E 	c #8CDAA2",
"F 	c #7F95EC",
"G 	c #889BED",
"H 	c #7D93EC",
"I 	c #7D94EC",
"J 	c #6878CD",
"K 	c #5866AE",
"L 	c #6373C4",
"M 	c #7285E2",
"N 	c #ACCCE4",
"O 	c #9AB7CD",
"P 	c #9FC1CA",
"Q 	c #B4D9E3",
"R 	c #F5FCF8",
"S 	c #CBF3D8",
"T 	c #A5E2B6",
"U 	c #8FDBA3",
"V 	c #778BEB",
"W 	c #6879CD",
"X 	c #6676C7",
"Y 	c #6171C1",
"Z 	c #7688E8",
"` 	c #CDF5DA",
" .	c #B8E8C5",
"..	c #6D7FD8",
"+.	c #C5EED2",
"@.	c #AEE5BD",
"#.	c #86D89C",
"$.	c #A0E0B1",
"%.	c #7AD492",
"&.	c #80D697",
"*.	c #71D18B",
"=.	c #DDFFF7",
"-.	c #C4FDE0",
";.	c #97ECAF",
">.	c #7CD594",
",.	c #6FD18A",
"'.	c #60CC7E",
").	c #51C771",
"!.	c #3FC464",
"~.	c #3CD264",
"{.	c #8FF8AC",
"].	c #76D390",
"^.	c #68CF84",
"/.	c #5DCB7B",
"(.	c #50C770",
"_.	c #43C767",
":.	c #42DA6A",
"<.	c #5DCD7C",
"[.	c #57D179",
"}.	c #52DA77",
"|.	c #45D66D",
"1.	c #4EFE81",
"2.	c #4BD06F",
"3.	c #45D56D",
"4.	c #41DE6A",
"5.	c #4DF77E",
"6.	c #43E56E",
"7.	c #4EFB81",
"                                                ",
"                                . . . .         ",
"      . . . .                 . + @ # $ .       ",
"    . % & * = .                 . - ; .         ",
"      . > , .                   . ' - .         ",
"      . ) ! .                   . ~ { .         ",
"      . ] ^ .                 . / ( _ : .       ",
"    . < < [ } .             . | + 1 2 3 4 .     ",
"  . 5 6 7 8 9 0 . . . . . . a b c d e f { 0 .   ",
"  . g h i j k l . m n o p . q r s t e u v l .   ",
"  . w x y z A j . B C D E . F G H I J K L M .   ",
"    . N O P Q . . R S T U . . V W X Y J Z .     ",
"      . . . .   . `  .D E .   . V V ..V .       ",
"                . +.@.o #..     . . . .         ",
"                . @.$.U %..                     ",
"            . . . o U &.*.. . .                 ",
"          . =.-.;.#.>.,.'.).!.~..               ",
"            . {.].*.^./.(._.:..                 ",
"              . '.<.[.}.|.1..                   ",
"                . 2.3.4.5..                     ",
"                  . 6.7..                       ",
"                    . .                         ",
"                                                ",
"                                                "};
