/* XPM */
static char * downmini_xpm[] = {
"10 10 55 1",
" 	c None",
".	c #121312",
"+	c #454644",
"@	c #484848",
"#	c #5E5E5E",
"$	c #2C3529",
"%	c #2C3528",
"&	c #293326",
"*	c #1D281A",
"=	c #050804",
"-	c #1B1C1B",
";	c #B6B9B5",
">	c #F7FAF7",
",	c #F7F9F7",
"'	c #F5F8F5",
")	c #8FB285",
"!	c #8EB183",
"~	c #84A97A",
"{	c #4A6743",
"]	c #070C06",
"^	c #6A6F68",
"/	c #E7ECE5",
"(	c #F0F4EF",
"_	c #EFF3EE",
":	c #84AA7C",
"<	c #83A979",
"[	c #6A9061",
"}	c #1E2F1A",
"|	c #000000",
"1	c #C2C9C1",
"2	c #EDF2EC",
"3	c #85AA7C",
"4	c #7FA375",
"5	c #45663D",
"6	c #4C4F4B",
"7	c #E7EDE5",
"8	c #84A87A",
"9	c #6E9363",
"0	c #192615",
"a	c #141614",
"b	c #B5BEB3",
"c	c #DFE8DD",
"d	c #799F70",
"e	c #4C6C44",
"f	c #070B06",
"g	c #5D625C",
"h	c #DAE5D8",
"i	c #6D8F64",
"j	c #1F2C1D",
"k	c #131413",
"l	c #AFB5AD",
"m	c #425E3B",
"n	c #040503",
"o	c #485146",
"p	c #172415",
".+@@#$%&*=",
"-;>,')!~{]",
" ^/(_:<[} ",
" |122345| ",
"  627890  ",
"  abcdef  ",
"   ghij   ",
"   klmn   ",
"    op    ",
"    ||    "};
