/* XPM */
static char * downmini_xpm[] = {
"10 10 25 1",
" 	c None",
".	c #000000",
"+	c #FFFF1F",
"@	c #B1E016",
"#	c #DBFC1B",
"$	c #9FD817",
"%	c #B2F019",
"&	c #91D719",
"*	c #8DD018",
"=	c #8AE31C",
"-	c #F3FE1E",
";	c #E0FD20",
">	c #8FD318",
",	c #7AC919",
"'	c #68C119",
")	c #56B91A",
"!	c #4AC41D",
"~	c #3CD422",
"{	c #98E11A",
"]	c #48C01D",
"^	c #4BFF2A",
"/	c #47BC1C",
"(	c #3ED924",
"_	c #49C41E",
":	c #48F529",
"   ....   ",
"   .+@.   ",
"   .#$.   ",
"   .%&.   ",
"....*=....",
".-;>,')!~.",
" .{,')]^. ",
"  .')/(.  ",
"   ._:.   ",
"    ..    "};
