/* XPM */
static char * filters_xpm[] = {
"40 40 320 2",
"  	c None",
". 	c #000000",
"+ 	c #775F5F",
"@ 	c #6FACAC",
"# 	c #36E0E0",
"$ 	c #07FBFB",
"% 	c #00FFFF",
"& 	c #00DFDF",
"* 	c #00C8C8",
"= 	c #00BABA",
"- 	c #00BDBD",
"; 	c #00CDCD",
"> 	c #00E4E4",
", 	c #7C9292",
"' 	c #00B6B6",
") 	c #00B0B0",
"! 	c #00B3B3",
"~ 	c #00B8B8",
"{ 	c #00BBBB",
"] 	c #00BCBC",
"^ 	c #00C6C6",
"/ 	c #00E7E7",
"( 	c #00CECE",
"_ 	c #00ADAD",
": 	c #00B1B1",
"< 	c #00B4B4",
"[ 	c #00B7B7",
"} 	c #00BFBF",
"| 	c #00C1C1",
"1 	c #00C3C3",
"2 	c #00C4C4",
"3 	c #00DEDE",
"4 	c #00C2C2",
"5 	c #00C9C9",
"6 	c #00CACA",
"7 	c #00E1E1",
"8 	c #00ACAC",
"9 	c #00CBCB",
"0 	c #00CFCF",
"a 	c #00EDED",
"b 	c #00AFAF",
"c 	c #00C7C7",
"d 	c #00D0D0",
"e 	c #00D2D2",
"f 	c #00D3D3",
"g 	c #00D4D4",
"h 	c #00D5D5",
"i 	c #00D9D9",
"j 	c #00D1D1",
"k 	c #00D7D7",
"l 	c #00D8D8",
"m 	c #00DADA",
"n 	c #00F0F0",
"o 	c #00C5C5",
"p 	c #00D6D6",
"q 	c #00DBDB",
"r 	c #00DDDD",
"s 	c #00E8E8",
"t 	c #00E0E0",
"u 	c #00E2E2",
"v 	c #00E5E5",
"w 	c #00B2B2",
"x 	c #00E9E9",
"y 	c #00EAEA",
"z 	c #00B9B9",
"A 	c #00BEBE",
"B 	c #00ECEC",
"C 	c #00EEEE",
"D 	c #00EFEF",
"E 	c #00F2F2",
"F 	c #00F3F3",
"G 	c #00F4F4",
"H 	c #00F9F9",
"I 	c #00F7F7",
"J 	c #00F8F8",
"K 	c #5F775D",
"L 	c #AC6FA9",
"M 	c #E036DC",
"N 	c #1F04FB",
"O 	c #001FDF",
"P 	c #0052B7",
"Q 	c #0068BD",
"R 	c #0091C3",
"S 	c #00EC9D",
"T 	c #00EA55",
"U 	c #00EC1F",
"V 	c #00E706",
"W 	c #1FEA04",
"X 	c #E0CD36",
"Y 	c #AC9D6F",
"Z 	c #5F5777",
"` 	c #FF00FB",
" .	c #E500E1",
"..	c #D200CF",
"+.	c #7C00C2",
"@.	c #0000C3",
"#.	c #0020B1",
"$.	c #003AAA",
"%.	c #003AC1",
"&.	c #0047C6",
"*.	c #0093CD",
"=.	c #00E19A",
"-.	c #00DB2B",
";.	c #00DE0C",
">.	c #00CE07",
",.	c #00C303",
"'.	c #00BC00",
").	c #81BD00",
"!.	c #DAC800",
"~.	c #EBD700",
"{.	c #FFEA00",
"].	c #927C8F",
"^.	c #E400E1",
"/.	c #C300C0",
"(.	c #BD00BA",
"_.	c #BF00BD",
":.	c #C100BE",
"<.	c #5300C0",
"[.	c #0000C1",
"}.	c #001CA6",
"|.	c #002F9A",
"1.	c #0031B4",
"2.	c #0031CA",
"3.	c #0073D0",
"4.	c #00D571",
"5.	c #00D218",
"6.	c #00C311",
"7.	c #00AF0C",
"8.	c #00B005",
"9.	c #00B800",
"0.	c #56B900",
"a.	c #CBBA00",
"b.	c #CCBB00",
"c.	c #CDBC00",
"d.	c #D4C300",
"e.	c #ECD900",
"f.	c #92857C",
"g.	c #D700D3",
"h.	c #BC00B9",
"i.	c #BE00BB",
"j.	c #C500C2",
"k.	c #C700C4",
"l.	c #5600C5",
"m.	c #0000C7",
"n.	c #0012B5",
"o.	c #0027A1",
"p.	c #002CB1",
"q.	c #002DCE",
"r.	c #0072D4",
"s.	c #00CE72",
"t.	c #00CB1F",
"u.	c #00B217",
"v.	c #00A50F",
"w.	c #00B006",
"x.	c #00B900",
"y.	c #57BB00",
"z.	c #CDBD00",
"A.	c #CFBE00",
"B.	c #D0BF00",
"C.	c #D1C000",
"D.	c #D2C000",
"E.	c #D2C100",
"F.	c #E5D200",
"G.	c #BF00BC",
"H.	c #C200BF",
"I.	c #C500C1",
"J.	c #C900C6",
"K.	c #CB00C8",
"L.	c #CC00C9",
"M.	c #8100CB",
"N.	c #1900CC",
"O.	c #0000CC",
"P.	c #0010BC",
"Q.	c #001CC3",
"R.	c #002E92",
"S.	c #009120",
"T.	c #00B613",
"U.	c #00AC09",
"V.	c #18BA00",
"W.	c #80BC00",
"X.	c #D3C100",
"Y.	c #D5C300",
"Z.	c #D6C400",
"`.	c #E7D400",
" +	c #C800C5",
".+	c #CB00C7",
"++	c #CD00C9",
"@+	c #CF00CC",
"#+	c #D000CD",
"$+	c #D300D0",
"%+	c #8500D0",
"&+	c #4400D0",
"*+	c #1900D0",
"=+	c #031119",
"-+	c #033E03",
";+	c #18B500",
">+	c #41B800",
",+	c #7FBA00",
"'+	c #CEBD00",
")+	c #D7C500",
"!+	c #D8C600",
"~+	c #D9C700",
"{+	c #F0DC00",
"]+	c #CE00CB",
"^+	c #D300CF",
"/+	c #D400D1",
"(+	c #D600D3",
"_+	c #D700D4",
":+	c #D800D5",
"<+	c #D80684",
"[+	c #DC1203",
"}+	c #CC4404",
"|+	c #C78D01",
"1+	c #D4C200",
"2+	c #DCCA00",
"3+	c #DDCB00",
"4+	c #DECB00",
"5+	c #DECC00",
"6+	c #E0CE00",
"7+	c #D100CE",
"8+	c #D400D0",
"9+	c #DA00D7",
"0+	c #DB00D8",
"a+	c #DC00D8",
"b+	c #DC00D9",
"c+	c #DC0C44",
"d+	c #C72403",
"e+	c #BB4503",
"f+	c #CA6B02",
"g+	c #E0CD00",
"h+	c #E1CE00",
"i+	c #E2CF00",
"j+	c #F2DE00",
"k+	c #DA00D6",
"l+	c #DE00DA",
"m+	c #E000DC",
"n+	c #E000DD",
"o+	c #E100DD",
"p+	c #E01017",
"q+	c #BD3103",
"r+	c #B64003",
"s+	c #CC5203",
"t+	c #DFCD00",
"u+	c #E3D000",
"v+	c #E6D300",
"w+	c #FB07F7",
"x+	c #DD00D9",
"y+	c #E200DE",
"z+	c #E400E0",
"A+	c #E41200",
"B+	c #B73B03",
"C+	c #B53F03",
"D+	c #CD4303",
"E+	c #E8D500",
"F+	c #EAD600",
"G+	c #FBE607",
"H+	c #C700C3",
"I+	c #E300E0",
"J+	c #E500E2",
"K+	c #E700E4",
"L+	c #E900E5",
"M+	c #E91300",
"N+	c #BB3C03",
"O+	c #B93F03",
"P+	c #CF4203",
"Q+	c #EEDA00",
"R+	c #EEDB00",
"S+	c #D500D2",
"T+	c #C900C5",
"U+	c #E600E3",
"V+	c #EB00E8",
"W+	c #ED00E9",
"X+	c #ED00EA",
"Y+	c #ED1119",
"Z+	c #C93203",
"`+	c #C04003",
" @	c #D04F03",
".@	c #EDDA00",
"+@	c #F1DD00",
"@@	c #E800E4",
"#@	c #C600C2",
"$@	c #CA00C7",
"%@	c #EC00E9",
"&@	c #EF00EB",
"*@	c #F100ED",
"=@	c #F200EE",
"-@	c #F10E4A",
";@	c #DC2503",
">@	c #C74103",
",@	c #D16802",
"'@	c #F3DF00",
")@	c #F5E100",
"!@	c #F6E200",
"~@	c #F8E300",
"{@	c #CD00CA",
"]@	c #F200EF",
"^@	c #F500F1",
"/@	c #F600F2",
"(@	c #F50796",
"_@	c #F41403",
":@	c #D43C04",
"<@	c #D28F01",
"[@	c #F9E400",
"}@	c #FAE600",
"|@	c #EA00E6",
"1@	c #F800F4",
"2@	c #FA00F6",
"3@	c #FB121A",
"4@	c #EC3B03",
"5@	c #FAE500",
"6@	c #D000CC",
"7@	c #FC00F8",
"8@	c #FF089C",
"9@	c #FF9A01",
"0@	c #F9E500",
"a@	c #EE00EB",
"b@	c #F400F0",
"c@	c #FB00F7",
"d@	c #E800E5",
"e@	c #F000EC",
"                                                                                ",
"                              . . . . . . . . . .                               ",
"                          . . . + @ # $ $ # @ + . . .                           ",
"                        . . + # % & * = - ; > % # + . .                         ",
"                      . . , % & ' ) ! ' ~ { ] ^ / % , . .                       ",
"                    . . , % ( _ : < [ = - } | 1 2 3 % , . .                     ",
"                    . + % ( _ : < ~ { } 4 2 ^ * 5 6 7 % + .                     ",
"                  . . # 3 8 ) < ~ ] } 1 ^ 5 9 ; ( 0 0 a # . .                   ",
"                  . + % < b ! [ { } 1 c 6 ; d e f g h i % + .                   ",
"                  . @ 3 _ : ' = } 1 c 9 ( j g k l i m i n @ .                   ",
"                  . # o b < ~ - 4 ^ 6 ( e p i q r & & & s # .                   ",
"                  . $ ' : ' { } 2 5 ; j p i r t u > > > v $ .                   ",
"                  . $ [ w [ ] | ^ 9 d g i r 7 > / x x x y $ .                   ",
"                  . # * < z A 1 * ; e k q t > s B C D C E # .                   ",
"                  . @ 7 < = } 2 5 ( f l r u / B n F G F H @ .                   ",
"              . . . + % A = } o 6 0 g i & > x C F I H J % + . . .               ",
"          . . . K L M N O P Q R 6 0 h m & > x D S T U V W X Y Z . . .           ",
"        . . K M `  ...+.@.#.$.%.&.*.g i & > =.-.;.>.,.'.).!.~.{.X Z . .         ",
"      . . ].` ^./.(._.:.<.[.}.|.1.2.3.l r 4.5.6.7.8.9.0.a.b.c.d.e.{.f.. .       ",
"    . . ].` g.h.i.:./.j.k.l.m.n.o.p.q.r.s.t.u.v.w.x.y.z.A.B.C.D.E.F.{.f.. .     ",
"    . K ` g.h.G.H.I.k.J.K.L.M.N.O.P.Q.R.S.T.U.9.V.W.A.C.X.d.Y.Z.Z.Z.`.{.Z .     ",
"  . . M ^.h.G.H.j. +.+++@+#+..$+%+&+*+=+-+;+>+,+'+B.X.Y.)+!+~+!.!.!.~+{+X . .   ",
"  . K ` /.i.H.j. +K.]+#+^+/+(+_+:+:+<+[+}+|+a.'+C.1+Z.!+!.2+3+4+5+4+3+6+{.Z .   ",
"  . L  .(.:.I. +K.]+7+8+(+:+9+0+a+b+c+d+e+f+c.B.1+)+~+2+4+g+h+i+i+i+h+g+j+Y .   ",
"  . M .._./.k..+]+7+/+_+k+a+l+m+n+o+p+q+r+s+A.X.Z.~+2+t+h+u+F.v+v+v+F.u+~.X .   ",
"  . w+j.:.j.J.++#+8+_+9+x+m+y+z+^. .A+B+C+D+C.Y.!+2+t+i+F.`.E+F+F+F+E+`.E+G+.   ",
"  . w+H+/.k.K.@+^+(+k+x+n+I+J+K+L+L+M+N+O+P+X.)+!.4+h+F.E+F+e.Q+R+Q+e.F+~.G+.   ",
"  . M S+I.T+L.#+/+:+a+m+I+U+L+V+W+X+Y+Z+`+ @d.!+2+g+u+`.F+.@{+j+j+j+{+.@+@X .   ",
"  . L @@#@$@]+..(+9+l+y+J+L+%@&@*@=@-@;@>@,@Y.~+3+h+F.E+e.{+'@)@!@)@'@{+~@Y .   ",
"  . K ` {@.+@+$+_+0+m+z+K+V+&@]@^@/@(@_@:@<@Z.!.4+i+v+F+Q+j+)@[@}@[@)@'@{.Z .   ",
"  . . M |@K.@+8+:+a+n+^.L+W+*@^@1@2@1@3@4@E.Z.!.5+i+v+F+R+j+!@}@{.}@!@5@X . .   ",
"    . K ` o+6@8+:+b+o+ .L+X+=@/@2@` 7@8@9@F.Z.!.4+i+v+F+Q+j+)@[@}@[@0@{.Z .     ",
"    . . ].` I+8+:+a+n+^.L+W+*@^@1@7@` ].f.{.`.~+3+h+F.E+e.{+'@)@!@0@{.f.. .     ",
"      . . ].` a@a+0+m+z+K+V+&@b@c@` ].. . f.{.{+6+g+u+`.F+.@{+'@5@{.f.. .       ",
"        . . K M ` *@L+ .d@e@1@` M K . . . . Z X {.j+~.E+~.+@~@{.X Z . .         ",
"          . . . K L M w+w+M L K . . .     . . . Z Y X G+G+X Y Z . . .           ",
"              . . . . . . . . . .             . . . . . . . . . .               ",
"                                                                                ",
"                                                                                ",
"                                                                                "};
