/* XPM */
static char * filters_xpm[] = {
"40 40 47 1",
" 	c None",
".	c #000000",
"+	c #FFFFFF",
"@	c #5A74F4",
"#	c #5063AF",
"$	c #FF0000",
"%	c #C63D3D",
"&	c #C8E6FF",
"*	c #D0E9FF",
"=	c #D7EDFF",
"-	c #95CFFF",
";	c #CAE7FF",
">	c #D2EAFF",
",	c #DAEEFF",
"'	c #8CCAFF",
")	c #90CCFF",
"!	c #97D0FF",
"~	c #D4EBFF",
"{	c #92CDFF",
"]	c #9AD1FF",
"^	c #A1D4FF",
"/	c #D6ECFF",
"(	c #9CD2FF",
"_	c #A3D5FF",
":	c #ABD9FF",
"<	c #B3DCFF",
"[	c #BAE0FF",
"}	c #C2E3FF",
"|	c #C9E6FF",
"1	c #D1EAFF",
"2	c #D9EDFF",
"3	c #E0F1FF",
"4	c #E8F4FF",
"5	c #EFF8FF",
"6	c #F7FBFF",
"7	c #ADDAFF",
"8	c #B5DDFF",
"9	c #BCE1FF",
"0	c #C4E4FF",
"a	c #CCE7FF",
"b	c #D3EBFF",
"c	c #DBEEFF",
"d	c #E2F2FF",
"e	c #EAF5FF",
"f	c #F1F9FF",
"g	c #F9FCFF",
"h	c #C4E5FF",
"                                        ",
"                                        ",
"                                        ",
"                                        ",
"   ..                              ..   ",
"  .  ..                          ..  .  ",
" . ++  ..                      ..  +  . ",
" . +     ..                  ..  ++   . ",
"  .        ..              ..  ++    .  ",
"   ..@@#@++@@....      ....  ++    ..   ",
"     ..@#@@++@ ++.    .+  $$$$%%$..     ",
"       ..@#@@@..  .  .+ ..$$%%$..       ",
"         ..@#..#  .  .  %..%$..         ",
"           .@##@#.    .%%$+$.           ",
"            .@@##.    .$$+$.            ",
"            .##..      ..$$.            ",
"             ..##      %%..             ",
"              @##      $%%              ",
"              @@##    $$$$%             ",
"             @@@@#....$%$$%             ",
"            .@#@#@@&*=$%%$%.            ",
"          ..-@@#@@#;>,$$$$$+..          ",
"         .')!@@@#@@@~$$%$%$+++.         ",
"         .'{]^@#@##@/$%$$%++++.         ",
"          ..(_:<[}|123456+++..          ",
"            ..7890abcdefg+..            ",
"              ............              ",
"              .+.                       ",
"             .++.         .             ",
"             .++.   .    .+.            ",
"            .++++. .+.   .+.            ",
"            .++hh. .+.  .+++.           ",
"            .+hh+. .+.  .+h+.           ",
"             .++. .+++..+++h+.          ",
"              ..  .++h..+++h+.          ",
"                  .+h+. .+h+.           ",
"                   .+.   .+.            ",
"                    .     .             ",
"                                        ",
"                                        "};
