/* XPM */
static char * folder_xpm[] = {
"15 17 137 2",
"  	c None",
". 	c #000000",
"+ 	c #F8F5E6",
"@ 	c #F0ECD5",
"# 	c #DFDBBC",
"$ 	c #C6C19E",
"% 	c #F9F5DB",
"& 	c #F2EDC5",
"* 	c #E5DDAA",
"= 	c #D0C88E",
"- 	c #FAF5CD",
"; 	c #F6EEB4",
"> 	c #EDE39A",
", 	c #DFD481",
"' 	c #D1C46D",
") 	c #C6BA5E",
"! 	c #C1B356",
"~ 	c #C0B253",
"{ 	c #C0B353",
"] 	c #C0B252",
"^ 	c #C0B150",
"/ 	c #BFAF4D",
"( 	c #BFAB4B",
"_ 	c #FBF4BD",
": 	c #F9EEA4",
"< 	c #F4E78D",
"[ 	c #EDDF7A",
"} 	c #E6D76D",
"| 	c #E0D065",
"1 	c #DDCD61",
"2 	c #DDCE5F",
"3 	c #DDCC5E",
"4 	c #DCCB5D",
"5 	c #DCC95A",
"6 	c #DBC556",
"7 	c #D9C050",
"8 	c #FCF2AC",
"9 	c #FBEF97",
"0 	c #F9EB84",
"a 	c #F6E776",
"b 	c #F2E36F",
"c 	c #F1E16B",
"d 	c #EFE069",
"e 	c #EFE068",
"f 	c #EEDF66",
"g 	c #EEDC64",
"h 	c #EDD75F",
"i 	c #ECD159",
"j 	c #EBCB51",
"k 	c #FCF198",
"l 	c #FCEF89",
"m 	c #FBED7C",
"n 	c #FAEB73",
"o 	c #F9E96F",
"p 	c #F9E96D",
"q 	c #F8E86C",
"r 	c #F8E76B",
"s 	c #F7E569",
"t 	c #F7E266",
"u 	c #F5DD60",
"v 	c #F4D557",
"w 	c #F2CD4E",
"x 	c #FDEE86",
"y 	c #FDED7D",
"z 	c #FDED76",
"A 	c #FCEC71",
"B 	c #FCEB6F",
"C 	c #FCEB6E",
"D 	c #FCEA6D",
"E 	c #FBE96C",
"F 	c #FBE76A",
"G 	c #FAE365",
"H 	c #F9DD5E",
"I 	c #F7D353",
"J 	c #F5CA49",
"K 	c #FDED78",
"L 	c #FDEC74",
"M 	c #FDEC71",
"N 	c #FDEB6E",
"O 	c #FDEB6D",
"P 	c #FCEA6C",
"Q 	c #FCE86A",
"R 	c #FBE567",
"S 	c #FAE061",
"T 	c #F9D959",
"U 	c #F7D04E",
"V 	c #F5C744",
"W 	c #FDEB71",
"X 	c #FDEB6F",
"Y 	c #FDEA6D",
"Z 	c #FDE96B",
"` 	c #FCE96A",
" .	c #FCE869",
"..	c #FCE768",
"+.	c #FBE565",
"@.	c #FBE161",
"#.	c #F9DB5B",
"$.	c #F8D352",
"%.	c #F6CA48",
"&.	c #F4C340",
"*.	c #FCE769",
"=.	c #FCE667",
"-.	c #FBE364",
";.	c #FBE262",
">.	c #FAE060",
",.	c #FADD5D",
"'.	c #F9D958",
").	c #F7D352",
"!.	c #F6CC4A",
"~.	c #F5C542",
"{.	c #F4C03D",
"].	c #FAE262",
"^.	c #FAE161",
"/.	c #FADF5F",
"(.	c #F9DC5C",
"_.	c #F9DA5A",
":.	c #F9D858",
"<.	c #F8D656",
"[.	c #F7CF4E",
"}.	c #F4C13D",
"|.	c #F3BD3A",
"1.	c #F8D857",
"2.	c #F8D453",
"3.	c #F7D251",
"4.	c #F7CE4C",
"5.	c #F6CA47",
"6.	c #F3C03C",
"7.	c #F3BE3A",
"8.	c #F3BC38",
"9.	c #F6CD4B",
"0.	c #F5C845",
"a.	c #F5C643",
"b.	c #F4C23F",
"c.	c #F3C03D",
"d.	c #F3BE3B",
"e.	c #F3BD39",
"f.	c #F3BB37",
"                              ",
". . . . . .                   ",
". + @ # $ .                   ",
". % & * = . . . . . . . . . . ",
". - ; > , ' ) ! ~ { ] ^ / ( . ",
". _ : < [ } | 1 2 3 4 5 6 7 . ",
". 8 9 0 a b c d e f g h i j . ",
". k l m n o p q r s t u v w . ",
". x y z A B C D E F G H I J . ",
". K L M N O P P Q R S T U V . ",
". W X Y Z `  ...+.@.#.$.%.&.. ",
". Q *.=.+.-.;.>.,.'.).!.~.{.. ",
". ].^./.(._.:.<.$.[.%.~.}.|.. ",
". 1.<.2.3.[.4.!.5.V &.6.7.8.. ",
". 9.!.%.0.a.~.&.b.c.d.e.8.f.. ",
". . . . . . . . . . . . . . . ",
"                              "};
