/* XPM */
static char * ftpsearch_xpm[] = {
"40 40 494 2",
"  	c None",
". 	c #000000",
"+ 	c #C1C1C1",
"@ 	c #BBBBBB",
"# 	c #B5B5B5",
"$ 	c #AEAEAE",
"% 	c #A7A7A7",
"& 	c #A0A0A0",
"* 	c #999999",
"= 	c #D7D7D7",
"- 	c #D2D2D2",
"; 	c #CCCCCC",
"> 	c #C6C6C6",
", 	c #BFBFBF",
"' 	c #B8B8B8",
") 	c #B1B1B1",
"! 	c #AAAAAA",
"~ 	c #A3A3A3",
"{ 	c #9B9B9B",
"] 	c #949494",
"^ 	c #8C8C8C",
"/ 	c #858585",
"( 	c #E2E2E2",
"_ 	c #DDDDDD",
": 	c #D1D1D1",
"< 	c #CACACA",
"[ 	c #404040",
"} 	c #484848",
"| 	c #515151",
"1 	c #5A5A5A",
"2 	c #636363",
"3 	c #9E9E9E",
"4 	c #969696",
"5 	c #8E8E8E",
"6 	c #878787",
"7 	c #7F7F7F",
"8 	c #EFEFEF",
"9 	c #EDEDED",
"0 	c #E8E8E8",
"a 	c #242424",
"b 	c #2A2A2A",
"c 	c #323232",
"d 	c #3A3A3A",
"e 	c #6B382C",
"f 	c #68382C",
"g 	c #643629",
"h 	c #5F5F5F",
"i 	c #696969",
"j 	c #737373",
"k 	c #7C7C7C",
"l 	c #888888",
"m 	c #808080",
"n 	c #787878",
"o 	c #717171",
"p 	c #F3F3F3",
"q 	c #F7F7F7",
"r 	c #161616",
"s 	c #1C1C1C",
"t 	c #8D4C38",
"u 	c #904F3D",
"v 	c #8B4535",
"w 	c #804131",
"x 	c #834637",
"y 	c #7C4130",
"z 	c #824833",
"A 	c #7F4531",
"B 	c #763E32",
"C 	c #7A7A7A",
"D 	c #848484",
"E 	c #818181",
"F 	c #797979",
"G 	c #FFFFFF",
"H 	c #0E0E0E",
"I 	c #0A0A0A",
"J 	c #824732",
"K 	c #7A4531",
"L 	c #7E4C39",
"M 	c #824B3B",
"N 	c #6D3C29",
"O 	c #784637",
"P 	c #753E2E",
"Q 	c #844C36",
"R 	c #8D4A32",
"S 	c #854232",
"T 	c #7D4136",
"U 	c #838383",
"V 	c #8D8D8D",
"W 	c #979797",
"X 	c #727272",
"Y 	c #6A6A6A",
"Z 	c #844A2F",
"` 	c #794531",
" .	c #5D3828",
"..	c #503323",
"+.	c #4D3324",
"@.	c #56372C",
"#.	c #553A2A",
"$.	c #4D2E23",
"%.	c #5D362C",
"&.	c #663B2B",
"*.	c #844834",
"=.	c #8C4D3D",
"-.	c #7B4030",
";.	c #774129",
">.	c #81452C",
",.	c #626262",
"'.	c #653D2A",
").	c #553427",
"!.	c #463128",
"~.	c #3A2C23",
"{.	c #3C3029",
"].	c #3D2D29",
"^.	c #3F3027",
"/.	c #42302B",
"(.	c #4A3630",
"_.	c #503B2D",
":.	c #634236",
"<.	c #6A4238",
"[.	c #68392D",
"}.	c #75422D",
"|.	c #844B2F",
"1.	c #A1A1A1",
"2.	c #616161",
"3.	c #595959",
"4.	c #442D1D",
"5.	c #412D1E",
"6.	c #432D22",
"7.	c #44342A",
"8.	c #302820",
"9.	c #2C2727",
"0.	c #31272F",
"a.	c #372F34",
"b.	c #352F2E",
"c.	c #3B3632",
"d.	c #433F3B",
"e.	c #443A3A",
"f.	c #3E2F2C",
"g.	c #493027",
"h.	c #6C4738",
"i.	c #734332",
"j.	c #894B39",
"k.	c #A2A2A2",
"l.	c #ACACAC",
"m.	c #606060",
"n.	c #585858",
"o.	c #DBDBDB",
"p.	c #38281F",
"q.	c #3D2A1F",
"r.	c #574133",
"s.	c #786254",
"t.	c #3E342B",
"u.	c #2F2E2C",
"v.	c #3A3C43",
"w.	c #4A495A",
"x.	c #5A5864",
"y.	c #464645",
"z.	c #42433D",
"A.	c #6E6E71",
"B.	c #595763",
"C.	c #46454D",
"D.	c #3B3334",
"E.	c #4E3B38",
"F.	c #7E5C57",
"G.	c #7F4B3F",
"H.	c #884D36",
"I.	c #575757",
"J.	c #D4D4D4",
"K.	c #4F3A2B",
"L.	c #7D655B",
"M.	c #A18F89",
"N.	c #8B847E",
"O.	c #323032",
"P.	c #3D424D",
"Q.	c #515B6C",
"R.	c #6A7283",
"S.	c #5C5B63",
"T.	c #292A23",
"U.	c #717368",
"V.	c #F2F2F0",
"W.	c #989AA2",
"X.	c #545964",
"Y.	c #4B4D55",
"Z.	c #514A4C",
"`.	c #B7A7A1",
" +	c #B19087",
".+	c #8D6151",
"++	c #B0B0B0",
"@+	c #5D5D5D",
"#+	c #555555",
"$+	c #4E4E4E",
"%+	c #997C68",
"&+	c #C2AEA3",
"*+	c #BBB4B3",
"=+	c #85858A",
"-+	c #44444B",
";+	c #555B6E",
">+	c #626E83",
",+	c #7D8795",
"'+	c #373738",
")+	c #282A1E",
"!+	c #373929",
"~+	c #8B8C85",
"{+	c #606263",
"]+	c #545861",
"^+	c #4F525D",
"/+	c #4E4C4D",
"(+	c #AAA29C",
"_+	c #F0DCD7",
":+	c #CFB2A8",
"<+	c #B3B3B3",
"[+	c #BCBCBC",
"}+	c #535353",
"|+	c #4C4C4C",
"1+	c #C3C3C3",
"2+	c #AC8068",
"3+	c #C7AA9A",
"4+	c #D2C3BB",
"5+	c #CFC6C6",
"6+	c #938E95",
"7+	c #524F5A",
"8+	c #686B82",
"9+	c #787E98",
"0+	c #71768A",
"a+	c #323031",
"b+	c #2A2A1D",
"c+	c #2C2D1C",
"d+	c #2E2D27",
"e+	c #46484C",
"f+	c #727786",
"g+	c #65677A",
"h+	c #5D5961",
"i+	c #B3A8A5",
"j+	c #F8E7E2",
"k+	c #F0DDD5",
"l+	c #E2C0B1",
"m+	c #4A4A4A",
"n+	c #C4A182",
"o+	c #D0BBAA",
"p+	c #D6C7C6",
"q+	c #DCCFD2",
"r+	c #A6A3AD",
"s+	c #656474",
"t+	c #6A7089",
"u+	c #7982A2",
"v+	c #8389A9",
"w+	c #4F4E59",
"x+	c #2B2B2A",
"y+	c #2B2B28",
"z+	c #323139",
"A+	c #6F7A86",
"B+	c #7F8CA0",
"C+	c #676E83",
"D+	c #65626D",
"E+	c #CCC1C0",
"F+	c #FEF5ED",
"G+	c #FBF1EB",
"H+	c #EFD6CD",
"I+	c #474747",
"J+	c #B4B4B4",
"K+	c #C8A885",
"L+	c #CABFA8",
"M+	c #D9D0CA",
"N+	c #E1D5D6",
"O+	c #C1BDC6",
"P+	c #616271",
"Q+	c #6B758C",
"R+	c #7685A3",
"S+	c #7887A4",
"T+	c #7C849D",
"U+	c #5F687A",
"V+	c #5C6576",
"W+	c #767E97",
"X+	c #93A2BC",
"Y+	c #8794AF",
"Z+	c #757B93",
"`+	c #767583",
" @	c #EDEAEC",
".@	c #FEFCF6",
"+@	c #F8F7F2",
"@@	c #F7E7DF",
"#@	c #C7C7C7",
"$@	c #444444",
"%@	c #ADADAD",
"&@	c #CFB799",
"*@	c #DDCABD",
"=@	c #E8D5CE",
"-@	c #D9CFCF",
";@	c #8E8891",
">@	c #676C7D",
",@	c #76879C",
"'@	c #718398",
")@	c #7E8CA8",
"!@	c #8795B1",
"~@	c #8290AC",
"{@	c #94A2BE",
"]@	c #8493AC",
"^@	c #747B90",
"/@	c #747180",
"(@	c #B9B5BB",
"_@	c #F9F8F5",
":@	c #FCFCF2",
"<@	c #F7F8F0",
"[@	c #C2C2C2",
"}@	c #CBCBCB",
"|@	c #414141",
"1@	c #A5A5A5",
"2@	c #CB9C7B",
"3@	c #D8B49F",
"4@	c #DCC2B3",
"5@	c #E1D3CA",
"6@	c #D2C7C9",
"7@	c #6F6F77",
"8@	c #586270",
"9@	c #6F7D8C",
"0@	c #677489",
"a@	c #6B778F",
"b@	c #6E7990",
"c@	c #72798B",
"d@	c #767380",
"e@	c #A79EA2",
"f@	c #FAF5F1",
"g@	c #FAFAF4",
"h@	c #FCFBEF",
"i@	c #454545",
"j@	c #3E3E3E",
"k@	c #9F9F9F",
"l@	c #C17C58",
"m@	c #D6A183",
"n@	c #DDBAA3",
"o@	c #E4CEBD",
"p@	c #E1D6CE",
"q@	c #C9C2C0",
"r@	c #7C797F",
"s@	c #5B5B67",
"t@	c #565764",
"u@	c #5A5A67",
"v@	c #575664",
"w@	c #6D6D75",
"x@	c #9A949A",
"y@	c #F1E9EB",
"z@	c #FBF9F3",
"A@	c #FCF4EC",
"B@	c #FCE4D4",
"C@	c #C57C5D",
"D@	c #D39579",
"E@	c #E0AD95",
"F@	c #E4C9B8",
"G@	c #E1CABD",
"H@	c #D8C6BE",
"I@	c #BEB0AB",
"J@	c #928683",
"K@	c #7D726F",
"L@	c #706764",
"M@	c #87807B",
"N@	c #C8C1BA",
"O@	c #F6E7DE",
"P@	c #FBE3D8",
"Q@	c #F9E2D2",
"R@	c #F2D4BC",
"S@	c #EBBEA3",
"T@	c #3D3D3D",
"U@	c #909090",
"V@	c #919191",
"W@	c #CF8062",
"X@	c #D4886A",
"Y@	c #D89B7D",
"Z@	c #DDA587",
"`@	c #DDAA8E",
" #	c #DCAD92",
".#	c #E2AC97",
"+#	c #DFAC96",
"@#	c #E0B39B",
"##	c #E2B9A0",
"$#	c #E5B59E",
"%#	c #EAB099",
"&#	c #E9AA8F",
"*#	c #E5A887",
"=#	c #E5A783",
"-#	c #C8C8C8",
";#	c #D0D0D0",
">#	c #464646",
",#	c #3F3F3F",
"'#	c #393939",
")#	c #898989",
"!#	c #B76748",
"~#	c #C2704F",
"{#	c #D07954",
"]#	c #D17D56",
"^#	c #CA7C54",
"/#	c #CF835B",
"(#	c #D98A67",
"_#	c #D98E69",
":#	c #D38E67",
"<#	c #D39169",
"[#	c #DC916C",
"}#	c #E3906B",
"|#	c #DA865E",
"1#	c #CB7D50",
"2#	c #C4774F",
"3#	c #CFCFCF",
"4#	c #3B3B3B",
"5#	c #AF5E40",
"6#	c #B1603F",
"7#	c #AF5E3B",
"8#	c #BC6C47",
"9#	c #BF7451",
"0#	c #B56844",
"a#	c #B86943",
"b#	c #BB6A43",
"c#	c #BA693F",
"d#	c #C86F4A",
"e#	c #C66747",
"f#	c #D6D6D6",
"g#	c #424242",
"h#	c #3C3C3C",
"i#	c #A5593B",
"j#	c #A45837",
"k#	c #A95E3B",
"l#	c #A7593A",
"m#	c #A55535",
"n#	c #B3613E",
"o#	c #B35F3B",
"p#	c #B9633A",
"q#	c #CC6E47",
"r#	c #373737",
"s#	c #707070",
"t#	c #B56543",
"u#	c #B56340",
"v#	c #C36F4A",
"w#	c #686868",
"x#	c #666666",
"y#	c #656565",
"z#	c #4B4B4B",
"A#	c #5B5B5B",
"B#	c #565656",
"C#	c #4F4F4F",
"D#	c #6B6B6B",
"E#	c #646464",
"F#	c #6C6C6C",
"G#	c #7E7E7E",
"H#	c #989898",
"I#	c #F8FBFD",
"J#	c #F2F7FC",
"K#	c #EBF3FB",
"L#	c #E5F0F9",
"M#	c #DEECF8",
"N#	c #F7FAFD",
"O#	c #F0F7FC",
"P#	c #E9F2FA",
"Q#	c #E2EFF9",
"R#	c #828282",
"S#	c #9C9C9C",
"T#	c #EDF4FB",
"U#	c #E6F1FA",
"V#	c #E0EDF8",
"W#	c #D9E9F7",
"X#	c #D3E6F6",
"Y#	c #FAFCFE",
"Z#	c #F3F8FC",
"`#	c #DCEAF7",
" $	c #D5E7F6",
".$	c #CEE2F5",
"+$	c #9A9A9A",
"@$	c #929292",
"#$	c #E1EEF9",
"$$	c #DBEAF7",
"%$	c #C7DFF3",
"&$	c #BFDAF2",
"*$	c #ABABAB",
"=$	c #D6E7F6",
"-$	c #D0E4F5",
";$	c #B8D7F0",
">$	c #B1D2EF",
",$	c #C5C5C5",
"'$	c #A8A8A8",
")$	c #939393",
"!$	c #A4A4A4",
"~$	c #CBE1F4",
"{$	c #C4DDF3",
"]$	c #BEDAF2",
"^$	c #B7D6F0",
"/$	c #ABCFEE",
"($	c #A4CAEC",
"_$	c #AFAFAF",
":$	c #C0C0C0",
"<$	c #B9D7F1",
"[$	c #B3D3EF",
"}$	c #ACCFEE",
"|$	c #9DC7EB",
"1$	c #B4D4F0",
"2$	c #AED0EE",
"3$	c #A9CEED",
"4$	c #A2CAEC",
"5$	c #96C2E9",
"                                                                                ",
"                                                                                ",
"                                  . . . . . . .                                 ",
"                            . . . + @ # $ % & * . . .                           ",
"                          . = - ; > , ' ) ! ~ { ] ^ / .                         ",
"                      . . ( _ = : < [ } | 1 2 3 4 5 6 7 . .                     ",
"                    . 8 9 0 ( a b c d e f g h i j k l m n o .                   ",
"                  . p q p 9 r s t u v w x y z A B C D E F o i .                 ",
"                  . q G H I H J K L M N O P Q R S T U V W X Y .                 ",
"                . 9 p q I Z `  ...+.@.#.$.%.&.*.=.-.;.>.W o i ,..               ",
"              . ( 0 9 r H '.).!.~.{.].^./.(._.:.<.[.}.|.W 1.i 2.3..             ",
"              . _ ( a s 4.5.6.7.8.9.0.a.b.c.d.e.f.g.h.i.j.k.l.m.n..             ",
"              . = o.b p.q.r.s.t.u.v.w.x.y.z.A.B.C.D.E.F.G.H.$ h I..             ",
"            . ; : J.c K.L.M.N.O.P.Q.R.S.T.U.V.W.X.Y.Z.`. +.+++@+#+$+.           ",
"            . > < [ d %+&+*+=+-+;+>+,+'+)+!+~+{+]+^+/+(+_+:+<+[+}+|+.           ",
"            . , 1+} 2+3+4+5+6+7+8+9+0+a+b+c+d+e+f+g+h+i+j+k+l+, | m+.           ",
"            . ' [+| n+o+p+q+r+s+t+u+v+w+x+y+z+A+B+C+D+E+F+G+H+1+$+I+.           ",
"            . ) J+1 K+L+M+N+O+P+Q+R+S+T+U+V+W+X+Y+Z+`+ @.@+@@@#@|+$@.           ",
"            . ! %@2 h &@*@=@-@;@>@,@'@)@!@~@{@]@^@/@(@_@:@<@[@}@} |@.           ",
"            . ~ 1@% i 2@3@4@5@6@7@8@9@0@a@a@b@c@d@e@f@g@:@h@#@|+i@j@.           ",
"              . 3 k@j l@m@n@o@p@q@r@s@t@t@u@v@w@x@y@.@z@A@B@; } |@.             ",
"              . 4 W k C C@D@E@F@G@H@I@J@K@L@M@N@O@P@Q@R@S@< - $@T@.             ",
"              . 5 U@V@D U W@X@Y@Z@`@ #.#+#@###$#%#&#*#=#-#;#>#,#'#.             ",
"                . l )#)#V !#~#{#]#^#/#(#_#:#<#[#}#|#1#2#3#I+|@4#.               ",
"                  . E E W W W 5#6#7#8#9#0#a#b#c#d#e#-#3#f#g#h#.                 ",
"                  . F F F n 1.k.i#j#k#l#m#n#o#p#q#< ;#} g#T@r#.                 ",
"                    . X o o s#l.$ ++<+t#u#v#[@#@; - I+g#T@r#g#>#.               ",
"                      . . i w#x#y#,.[+, 1+#@}@$+m+>#|@h#1 |+>#z#.               ",
"                          . m.h @+A#3.B#}+C#|+} $@,#4#,.I.}+}+I.X .             ",
"        . . . . . . . . . . . . . }+| $+|+} i@|@. . D#x#E#x#Y F#G#H#.           ",
"        . I#J#K#L#M#. G G I#J#K#L#. G N#O#P#Q#. .   . k 7 E D R#/ S#.           ",
"        . T#U#V#W#X#. Y#Z#T#U#V#W#. O#P#Q#`# $.$.   . k@k@3 +$@$l +$%@.         ",
"        . #$$$. . . . . . #$$$. . . Q#`#. . %$&$.     . [+# *$k@V@H#! @ .       ",
"        . =$-$. . .     . =$-$.   .  $.$. . ;$>$.       . ,$' '$H#)$!$# .       ",
"        . ~${$]$^$.     . ~${$.   . %$&$;$>$/$($.       . 3#, _$3 5 3 _$:$.     ",
"        . &$<$[$}$.     . &$<$.   . ;$>$/$($|$. .         . > # !$)$* ! @ .     ",
"        . 1$2$. . .     . 1$2$.   . /$($. . . .             . @ ! * )$!$.       ",
"        . 3$4$.         . 3$4$.   . |$5$.                   . :$_$3 5 .         ",
"        . . . .         . . . .   . . . .                     . . . .           ",
"                                                                                "};
