/* XPM */
static char * load_xpm[] = {
"24 24 147 2",
"  	c None",
". 	c #080808",
"+ 	c #1F2828",
"@ 	c #7EABAB",
"# 	c #7DABAB",
"$ 	c #090909",
"% 	c #151515",
"& 	c #86B7B7",
"* 	c #7FACAC",
"= 	c #7CA9A9",
"- 	c #7AA6A6",
"; 	c #77A2A2",
"> 	c #080909",
", 	c #0B0B0B",
"' 	c #1E1E1E",
") 	c #D9D9D9",
"! 	c #D2D2D2",
"~ 	c #8CB4B4",
"{ 	c #7FADAD",
"] 	c #7DAAAA",
"^ 	c #78A3A3",
"/ 	c #131818",
"( 	c #0A0A0A",
"_ 	c #101010",
": 	c #E5E5E5",
"< 	c #DDDDDD",
"[ 	c #DBDBDB",
"} 	c #D7D7D7",
"| 	c #D4D4D4",
"1 	c #A8C0C0",
"2 	c #80AEAE",
"3 	c #7BA7A7",
"4 	c #78A4A4",
"5 	c #608383",
"6 	c #0E0F0F",
"7 	c #94CACA",
"8 	c #94C9C9",
"9 	c #C2D9D9",
"0 	c #A4A4A4",
"a 	c #686868",
"b 	c #DCDCDC",
"c 	c #D8D8D8",
"d 	c #D5D5D5",
"e 	c #C4CCCC",
"f 	c #80AFAF",
"g 	c #000000",
"h 	c #0E1010",
"i 	c #92C7C7",
"j 	c #95CBCB",
"k 	c #98CFCF",
"l 	c #A4CECE",
"m 	c #C8C8C8",
"n 	c #161616",
"o 	c #B7C6C6",
"p 	c #87B1B1",
"q 	c #7BA8A8",
"r 	c #FFFFFF",
"s 	c #0D0F0F",
"t 	c #D1DDDD",
"u 	c #C7C7C7",
"v 	c #CDD6D6",
"w 	c #ADC7C7",
"x 	c #8DB8B8",
"y 	c #83B2B2",
"z 	c #90C5C5",
"A 	c #93C8C8",
"B 	c #90C4C4",
"C 	c #A3CACA",
"D 	c #9FC6C6",
"E 	c #8ABCBC",
"F 	c #1A2424",
"G 	c #222D2D",
"H 	c #8EC2C2",
"I 	c #8DC0C0",
"J 	c #8BBDBD",
"K 	c #89BABA",
"L 	c #8CBFBF",
"M 	c #89BBBB",
"N 	c #87B8B8",
"O 	c #99C0C0",
"P 	c #B5CACA",
"Q 	c #CED2D2",
"R 	c #121515",
"S 	c #88B9B9",
"T 	c #8BBBBB",
"U 	c #C6D0D0",
"V 	c #D6D6D6",
"W 	c #040404",
"X 	c #020202",
"Y 	c #86B6B6",
"Z 	c #BACACA",
"` 	c #D0D0D0",
" .	c #CECECE",
"..	c #CBCBCB",
"+.	c #C5C5C5",
"@.	c #C3C3C3",
"#.	c #BFBFBF",
"$.	c #BCBCBC",
"%.	c #A7A7A7",
"&.	c #212121",
"*.	c #070707",
"=.	c #2B3838",
"-.	c #9BBBBB",
";.	c #CDCDCD",
">.	c #CACACA",
",.	c #C0C0C0",
"'.	c #BDBDBD",
").	c #B9B9B9",
"!.	c #B6B6B6",
"~.	c #FBFBFB",
"{.	c #578080",
"].	c #366060",
"^.	c #C3C7C7",
"/.	c #C9C9C9",
"(.	c #C4C4C4",
"_.	c #BABABA",
":.	c #B7B7B7",
"<.	c #B3B3B3",
"[.	c #A3A7A7",
"}.	c #366161",
"|.	c #355F5F",
"1.	c #83B3B3",
"2.	c #A4B9B9",
"3.	c #C2C2C2",
"4.	c #B4B4B4",
"5.	c #B1B1B1",
"6.	c #929292",
"7.	c #8F8F8F",
"8.	c #9D9D9D",
"9.	c #161C1C",
"0.	c #87ABAB",
"a.	c #BEBEBE",
"b.	c #939393",
"c.	c #898989",
"d.	c #ACB6B6",
"e.	c #B8B8B8",
"f.	c #AEAEAE",
"g.	c #909090",
"h.	c #979797",
"i.	c #719B9B",
"j.	c #809E9D",
"k.	c #9C9C9C",
"l.	c #8C8C8C",
"m.	c #0A0C0C",
"n.	c #3B6B6A",
"o.	c #3B6A6A",
"p.	c #8B8B8B",
"                                                ",
"                              . .               ",
"                        . . + @ # .             ",
"                    $ % & * = - ; >             ",
"              $ , ' ) ! ~ { ] - ^ /             ",
"        ( ( _ : < [ } | 1 2 ] 3 4 5 .           ",
"    ( 6 7 8 9 0 a b c d e f @ 3 4 g g           ",
"  h i j k j l m n b c d o p @ q 4 g r g         ",
"  s i 8 j 8 i t u v w x y f @ 3 4 g r r g       ",
"  $ z i A i B C D E F g g g g g g g r r r g     ",
"    G B B B H I J K g r r r r r r r r r r r g   ",
"    $ I I I L J M N g r r r r r r r r r r r r g ",
"    $ I J E E O P Q g r r r r r r r r r r r g   ",
"      R S T U V | ! W g X g g g g g r r r g     ",
"      $ N Y Z ! `  ...m +.@.#.$.%.&.r r g *.    ",
"        =.y -. .;.>.m +.@.,.'.).!.g ~.g {.].*.  ",
"        $ f 2 ^./.u (.@.,.'._.:.<.g g [.}.|.*.  ",
"        . 1.] 2.+.@.3.#.'._.:.4.5.6.7.8.*.*.    ",
"          9.3 0.3.,.a.$.).:.4.b.c.b.*.n         ",
"          . - ^ d.$._.e.f.g.h.*.*.*.            ",
"          . 2 i.j.e.k.l.8.*.*.                  ",
"            m.n.o.p.*.*.*.                      ",
"              *.*.*.                            ",
"                                                "};
