/* XPM */
static char * load_xpm[] = {
"24 24 132 2",
"  	c None",
". 	c #000000",
"+ 	c #E6FFFF",
"@ 	c #ABFBFB",
"# 	c #FCFFEF",
"$ 	c #F9FFE0",
"% 	c #AAFFFF",
"& 	c #8CFFFF",
"* 	c #6EE1E9",
"= 	c #5CBCD2",
"- 	c #FFFFFF",
"; 	c #F7FFD0",
"> 	c #F4FFC1",
", 	c #7DFFFF",
"' 	c #94F0FB",
") 	c #9AF3FC",
"! 	c #61C6DC",
"~ 	c #E7FFFF",
"{ 	c #F1FFB1",
"] 	c #97F1FB",
"^ 	c #9DF4FC",
"/ 	c #EBFFFF",
"( 	c #E5FFFF",
"_ 	c #B7FFFF",
": 	c #7CFDFE",
"< 	c #99F2FC",
"[ 	c #9FF5FD",
"} 	c #69D8F0",
"| 	c #6BDBF4",
"1 	c #6EDDF5",
"2 	c #8BEBF9",
"3 	c #91EEFA",
"4 	c #9CF3FC",
"5 	c #A2F6FD",
"6 	c #A3F7FD",
"7 	c #64CCE4",
"8 	c #91FFFF",
"9 	c #70DEF5",
"0 	c #76E1F6",
"a 	c #82E6F8",
"b 	c #87E9F9",
"c 	c #8DECFA",
"d 	c #93EFFB",
"e 	c #F4FEFF",
"f 	c #A9FAFF",
"g 	c #92FFFF",
"h 	c #73DFF5",
"i 	c #79E2F6",
"j 	c #7FE5F7",
"k 	c #85E8F8",
"l 	c #8AEBF9",
"m 	c #90EDFA",
"n 	c #95F0FB",
"o 	c #F3FDFE",
"p 	c #75E0F6",
"q 	c #7BE3F7",
"r 	c #81E6F8",
"s 	c #F1FCFE",
"t 	c #F2FDFE",
"u 	c #7E85EA",
"v 	c #DEFCEA",
"w 	c #C0F5D0",
"x 	c #9BDFAD",
"y 	c #75D28E",
"z 	c #7EE4F7",
"A 	c #F0FCFE",
"B 	c #F1FDFE",
"C 	c #F1FBF6",
"D 	c #C3F0D1",
"E 	c #A2E1B3",
"F 	c #8CDAA2",
"G 	c #80E6F8",
"H 	c #86E9F9",
"I 	c #F3FDFF",
"J 	c #F5FCF8",
"K 	c #CBF3D8",
"L 	c #A5E2B6",
"M 	c #8FDBA3",
"N 	c #89EAF9",
"O 	c #CDF5DA",
"P 	c #B8E8C5",
"Q 	c #6BE5F4",
"R 	c #8CEBFA",
"S 	c #E9FBFE",
"T 	c #C5EED2",
"U 	c #AEE5BD",
"V 	c #86D89C",
"W 	c #8EEDFA",
"X 	c #94EFFB",
"Y 	c #F3FEFF",
"Z 	c #D9E5E8",
"` 	c #D8E4E7",
" .	c #B1BDC0",
"..	c #A0E0B1",
"+.	c #7AD492",
"@.	c #8FFFFF",
"#.	c #76F1F4",
"$.	c #60C5DB",
"%.	c #CAD6D9",
"&.	c #BEC9CC",
"*.	c #B8C4C7",
"=.	c #80D697",
"-.	c #71D18B",
";.	c #6EE0E3",
">.	c #59B7CC",
",.	c #DDFFF7",
"'.	c #C4FDE0",
").	c #97ECAF",
"!.	c #7CD594",
"~.	c #6FD18A",
"{.	c #60CC7E",
"].	c #51C771",
"^.	c #3FC464",
"/.	c #3CD264",
"(.	c #8FF8AC",
"_.	c #76D390",
":.	c #68CF84",
"<.	c #5DCB7B",
"[.	c #50C770",
"}.	c #43C767",
"|.	c #42DA6A",
"1.	c #5DCD7C",
"2.	c #57D179",
"3.	c #52DA77",
"4.	c #45D66D",
"5.	c #4EFE81",
"6.	c #4BD06F",
"7.	c #45D56D",
"8.	c #41DE6A",
"9.	c #4DF77E",
"0.	c #43E56E",
"a.	c #4EFB81",
"                                                ",
"                          . .                   ",
"                    . . . + @ .                 ",
"              . . . # $ % & * = .               ",
"        . . . - # $ ; > , ' ) ! .               ",
"    . . ~ - # $ ; > { { { ] ^ = .               ",
"  . / ( _ : ; > { { { { { < [ } } .             ",
"    . , | 1 { { { { 2 3 ] 4 5 6 7 .             ",
"    . 8 | 9 0 { a b c d < [ e f } 7 .           ",
"    . g , h i j k l m n o e e . . . .           ",
"      . g p q r b s t o - u . v w x y .         ",
"      . g | z A s B u u u e . C D E F .         ",
"        . & G H s u t I e - . J K L M .         ",
"        . g | N s t o u u u . O P E F . .       ",
"          . Q R 3 t u e e S . T U x V .         ",
"          . g W X o Y Z `  .. U ..M +..         ",
"          . @.#.$.%.&.*.. . . x M =.-.. . .     ",
"            . ;.>.. . . ,.'.).V !.~.{.].^./..   ",
"              . .       . (._.-.:.<.[.}.|..     ",
"                          . {.1.2.3.4.5..       ",
"                            . 6.7.8.9..         ",
"                              . 0.a..           ",
"                                . .             ",
"                                                "};
