/* XPM */
static char * logmini_xpm[] = {
"10 10 47 1",
" 	c None",
".	c #000000",
"+	c #D6E3FF",
"@	c #DAE5FF",
"#	c #DEE8FF",
"$	c #CCDCFF",
"%	c #D0DEFF",
"&	c #D3E1FF",
"*	c #D7E3FF",
"=	c #DBE6FF",
"-	c #284DA5",
";	c #E2EBFF",
">	c #D0DFFF",
",	c #264AA5",
"'	c #274BA5",
")	c #284CA5",
"!	c #E3ECFF",
"~	c #E7EEFF",
"{	c #D5E2FF",
"]	c #D9E5FF",
"^	c #DDE7FF",
"/	c #E0EAFF",
"(	c #E4ECFF",
"_	c #E8EFFF",
":	c #ECF2FF",
"<	c #EFF4FF",
"[	c #B41245",
"}	c #B71345",
"|	c #BA1345",
"1	c #BE1345",
"2	c #C01345",
"3	c #F4F7FF",
"4	c #E6EEFF",
"5	c #EAF0FF",
"6	c #EEF3FF",
"7	c #F1F5FF",
"8	c #F5F8FF",
"9	c #F9FBFF",
"0	c #4BE954",
"a	c #4CEC54",
"b	c #4DEE54",
"c	c #F6F9FF",
"d	c #FAFBFF",
"e	c #FEFEFF",
"f	c #F3F7FF",
"g	c #F7F9FF",
"h	c #FBFCFF",
"     .... ",
".....+@#. ",
".$%&*=-;. ",
".>,')-!~. ",
".{]^/(_:<.",
".@#[}|123.",
" .;456789.",
" .~0abcde.",
" .:<fgh...",
" ......   "};
