/* XPM */
static char * logmini_xpm[] = {
"10 11 73 1",
" 	c None",
".	c #2C2D2C",
"+	c #646664",
"@	c #636563",
"#	c #E0E3E0",
"$	c #CED2CE",
"%	c #5F5E57",
"&	c #55574E",
"*	c #D1D6CF",
"=	c #E0E4E0",
"-	c #4E4F4E",
";	c #7A7564",
">	c #3D392C",
",	c #51544F",
"'	c #AEB1AE",
")	c #817C6C",
"!	c #3F3B2E",
"~	c #454640",
"{	c #9FA29F",
"]	c #C3C7C3",
"^	c #DCE0DB",
"/	c #616261",
"(	c #484948",
"_	c #7C7764",
":	c #827A5F",
"<	c #2A281F",
"[	c #484537",
"}	c #545551",
"|	c #2A2A29",
"1	c #959795",
"2	c #474234",
"3	c #7D7662",
"4	c #716A54",
"5	c #ABA07D",
"6	c #766E56",
"7	c #958B6D",
"8	c #867D62",
"9	c #393529",
"0	c #3B3C3B",
"a	c #595B59",
"b	c #625C48",
"c	c #7D7661",
"d	c #C0B79A",
"e	c #BBB192",
"f	c #B4A885",
"g	c #B4A884",
"h	c #ACA17E",
"i	c #333025",
"j	c #545654",
"k	c #66604E",
"l	c #A69C7D",
"m	c #C1B89B",
"n	c #BFB698",
"o	c #BAB08F",
"p	c #A39878",
"q	c #27241D",
"r	c #4F514F",
"s	c #B3B6B3",
"t	c #3D3D37",
"u	c #968C6F",
"v	c #C0B799",
"w	c #BBB090",
"x	c #B2A682",
"y	c #887F63",
"z	c #080705",
"A	c #534D3D",
"B	c #B7AC8B",
"C	c #BBB191",
"D	c #AB9F7D",
"E	c #615A47",
"F	c #827A61",
"G	c #A29777",
"H	c #221F18",
".++++++++.",
"@#$%&*===@",
".+-;>,+++.",
"@=')!~{]^@",
"./(_!:<[}|",
"@123456789",
"0abcdefghi",
"j1klmnogpq",
"rstuvvwxyz",
"   ABmCDE ",
"    FnCGH "};
