/* XPM */
static char * logo_xpm[] = {
"48 49 646 2",
"  	c None",
". 	c #C0C0C0",
"+ 	c #FFFFFF",
"@ 	c #D3D3D3",
"# 	c #C5C5C5",
"$ 	c #C9C9C9",
"% 	c #C6C6C6",
"& 	c #969696",
"* 	c #B4B4B4",
"= 	c #EAFFC2",
"- 	c #BBFF44",
"; 	c #94F633",
"> 	c #C2E6A4",
", 	c #D4D4D4",
"' 	c #848484",
") 	c #B9E0FF",
"! 	c #76C1FF",
"~ 	c #7DC4FF",
"{ 	c #89CAFF",
"] 	c #9CD2FF",
"^ 	c #B8DFFF",
"/ 	c #DAEEFF",
"( 	c #FBFDFE",
"_ 	c #E7E7E7",
": 	c #FAFEF3",
"< 	c #C3FF4F",
"[ 	c #B3FF3B",
"} 	c #74CF26",
"| 	c #427618",
"1 	c #94CEFF",
"2 	c #2B9FFF",
"3 	c #2C9FFF",
"4 	c #39A5FF",
"5 	c #71BEFF",
"6 	c #BBE0FF",
"7 	c #F9FCFE",
"8 	c #BFBFBF",
"9 	c #D7FF96",
"0 	c #B4FF3B",
"a 	c #8CEE2E",
"b 	c #3F7415",
"c 	c #253B14",
"d 	c #47ABFF",
"e 	c #B5DDFF",
"f 	c #F4F5F5",
"g 	c #FAFEF2",
"h 	c #BBFF4D",
"i 	c #A3FE35",
"j 	c #61B220",
"k 	c #1E3709",
"l 	c #8D9687",
"m 	c #6FBEFF",
"n 	c #F1F9FF",
"o 	c #9F9F9F",
"p 	c #E0E0E0",
"q 	c #D6FF8F",
"r 	c #B2FF3B",
"s 	c #84E62B",
"t 	c #386612",
"u 	c #203113",
"v 	c #F4F5F3",
"w 	c #55B2FF",
"x 	c #EDF7FF",
"y 	c #D6D6D6",
"z 	c #F2FFDB",
"A 	c #B8FF3D",
"B 	c #9FFB34",
"C 	c #59A21D",
"D 	c #1B3208",
"E 	c #8E9787",
"F 	c #C3C3C3",
"G 	c #5BB5FF",
"H 	c #F5FBFC",
"I 	c #C9FF6A",
"J 	c #AEFF39",
"K 	c #79D728",
"L 	c #2D520E",
"M 	c #3B4A2F",
"N 	c #F3F4F2",
"O 	c #79CDC0",
"P 	c #95F631",
"Q 	c #4C8B19",
"R 	c #182C08",
"S 	c #BDC2B9",
"T 	c #919191",
"U 	c #35A3FF",
"V 	c #44AAFF",
"W 	c #42A9FF",
"X 	c #36A4FF",
"Y 	c #2DA0FC",
"Z 	c #96E969",
"` 	c #AAFF38",
" .	c #71CD25",
"..	c #27480D",
"+.	c #616D58",
"@.	c #E9E9E9",
"#.	c #7EC5FF",
"$.	c #F4F4F4",
"%.	c #E3E3E3",
"&.	c #F4F5F6",
"*.	c #F5FAFF",
"=.	c #D9EEFF",
"-.	c #99D1FF",
";.	c #61C4B3",
">.	c #B6FF3C",
",.	c #92F330",
"'.	c #478217",
").	c #182B08",
"!.	c #C1C6BE",
"~.	c #9E9E9E",
"{.	c #C1C1C1",
"].	c #F6FBFF",
"^.	c #90CDFF",
"/.	c #2EA0FF",
"(.	c #37A7EE",
"_.	c #AAF64F",
":.	c #A8FE37",
"<.	c #68BE22",
"[.	c #213E0B",
"}.	c #626E58",
"|.	c #EDEDED",
"1.	c #ACDAFF",
"2.	c #2CA0FF",
"3.	c #73D297",
"4.	c #88EB2D",
"5.	c #3B6D13",
"6.	c #182A0C",
"7.	c #E2E5E2",
"8.	c #87C9FF",
"9.	c #A9F64E",
"0.	c #A2FE35",
"a.	c #0F2624",
"b.	c #C4CDD3",
"c.	c #F4FAFF",
"d.	c #7ED88B",
"e.	c #84E52B",
"f.	c #376512",
"g.	c #142608",
"h.	c #0B273A",
"i.	c #6E8599",
"j.	c #D7D7D7",
"k.	c #C4C4C4",
"l.	c #49B3D5",
"m.	c #B5FD3F",
"n.	c #9EFB34",
"o.	c #58A11D",
"p.	c #1A3008",
"q.	c #0E2523",
"r.	c #0C2D49",
"s.	c #2E5E86",
"t.	c #F7F8F9",
"u.	c #E9F5FF",
"v.	c #91E66D",
"w.	c #79D828",
"x.	c #12260E",
"y.	c #0A273F",
"z.	c #103B60",
"A.	c #1C64A0",
"B.	c #D7E7F4",
"C.	c #FCFCFC",
"D.	c #75C7D5",
"E.	c #B3FE3E",
"F.	c #97F832",
"G.	c #50931A",
"H.	c #0C262E",
"I.	c #0D304E",
"J.	c #165182",
"K.	c #217AC5",
"L.	c #A7D2F5",
"M.	c #FBFEF5",
"N.	c #C2FE5C",
"O.	c #ADFF39",
"P.	c #73CF26",
"Q.	c #294C0D",
"R.	c #12260F",
"S.	c #0B2942",
"T.	c #114068",
"U.	c #1C6AAA",
"V.	c #268DE2",
"W.	c #7FC3FB",
"X.	c #C2C2C2",
"Y.	c #ACACAC",
"Z.	c #989898",
"`.	c #BDBDBD",
" +	c #E2FFB0",
".+	c #B5FF3B",
"++	c #90F12F",
"@+	c #447D16",
"#+	c #152907",
"$+	c #0C252F",
"%+	c #0D3251",
"&+	c #17568A",
"*+	c #227FCD",
"=+	c #2897F3",
"-+	c #5FB6FE",
";+	c #BCBCBC",
">+	c #EAFFC6",
",+	c #C3FF5D",
"'+	c #A9FB59",
")+	c #E2F7D1",
"!+	c #9C9C9C",
"~+	c #858585",
"{+	c #FCFFF6",
"]+	c #B8FF44",
"^+	c #A6FE37",
"/+	c #66BB22",
"(+	c #203B0A",
"_+	c #10261D",
":+	c #0B2A44",
"<+	c #12436C",
"[+	c #1D6DAF",
"}+	c #268FE5",
"|+	c #2A9CFB",
"1+	c #45ABFF",
"2+	c #F5F5F5",
"3+	c #B1FF42",
"4+	c #8AF02D",
"5+	c #71B739",
"6+	c #F2F6EE",
"7+	c #CECECE",
"8+	c #93CDFD",
"9+	c #2B9EFE",
"0+	c #E1FFB0",
"a+	c #89EC2D",
"b+	c #3D7014",
"c+	c #14270A",
"d+	c #0B2638",
"e+	c #0E3657",
"f+	c #185B92",
"g+	c #2382D1",
"h+	c #2998F5",
"i+	c #2A9EFE",
"j+	c #34A3FF",
"k+	c #F9FBFD",
"l+	c #87EE2F",
"m+	c #8AF32D",
"n+	c #7DE529",
"o+	c #60B01F",
"p+	c #95BC75",
"q+	c #92C9F7",
"r+	c #2A9CFA",
"s+	c #F6FFE6",
"t+	c #A4FE36",
"u+	c #61B120",
"v+	c #0F251F",
"w+	c #0C2C48",
"x+	c #144A77",
"y+	c #1F74BB",
"z+	c #2792EB",
"A+	c #2A9DFC",
"B+	c #31A2FF",
"C+	c #D5D5D5",
"D+	c #B2DC91",
"E+	c #65BA21",
"F+	c #73D326",
"G+	c #6EC924",
"H+	c #59A41D",
"I+	c #C0DAAC",
"J+	c #90C0E9",
"K+	c #2894EE",
"L+	c #E4E4E4",
"M+	c #D3FF88",
"N+	c #B2FF3A",
"O+	c #82E32B",
"P+	c #356111",
"Q+	c #142609",
"R+	c #0B2739",
"S+	c #0F395C",
"T+	c #1A619C",
"U+	c #2488DA",
"V+	c #299AF8",
"W+	c #2FA1FF",
"X+	c #F8FBF6",
"Y+	c #74AE45",
"Z+	c #63B621",
"`+	c #72D125",
" @	c #6BC423",
".@	c #5AA121",
"+@	c #6A9DA7",
"@@	c #2383D2",
"#@	c #EFFFD5",
"$@	c #B5FF3C",
"%@	c #9CFB33",
"&@	c #559D1C",
"*@	c #192E08",
"=@	c #0D2529",
"-@	c #0C2D4A",
";@	c #144C7B",
">@	c #2077BF",
",@	c #2794EE",
"'@	c #2A9DFD",
")@	c #818181",
"!@	c #DFECD5",
"~@	c #54981E",
"{@	c #67BD22",
"]@	c #64B821",
"^@	c #458831",
"/@	c #1D69A5",
"(@	c #2589DD",
"_@	c #299AF7",
":@	c #D2FF87",
"<@	c #AFFF39",
"[@	c #7BDA28",
"}@	c #2E550F",
"|@	c #36472E",
"1@	c #0E2B43",
"2@	c #103C62",
"3@	c #1B64A1",
"4@	c #299AF9",
"5@	c #EBF6FF",
"6@	c #CADDBB",
"7@	c #59A11F",
"8@	c #6CC724",
"9@	c #71CF25",
"0@	c #60B120",
"a@	c #42873F",
"b@	c #1E71B7",
"c@	c #268FE6",
"d@	c #EAFFC5",
"e@	c #B7FF3D",
"f@	c #99F932",
"g@	c #182C07",
"h@	c #9AA49E",
"i@	c #103452",
"j@	c #165285",
"k@	c #217CC8",
"l@	c #2896F1",
"m@	c #2A9EFD",
"n@	c #32A2FF",
"o@	c #E6E6E6",
"p@	c #90BB6D",
"q@	c #5CA81E",
"r@	c #70CD25",
"s@	c #6ECA24",
"t@	c #5AA51E",
"u@	c #2C6F66",
"v@	c #2794ED",
"w@	c #F5F6F4",
"x@	c #C5FF61",
"y@	c #ACFF39",
"z@	c #72CD25",
"A@	c #28490D",
"B@	c #3E4D32",
"C@	c #D3D9DE",
"D@	c #1C6AAB",
"E@	c #268DE3",
"F@	c #38A5FF",
"G@	c #F9F9F9",
"H@	c #F1F6EE",
"I@	c #76A94D",
"J@	c #61B320",
"K@	c #72D225",
"L@	c #6AC223",
"M@	c #519824",
"N@	c #277082",
"O@	c #2382D2",
"P@	c #DBFF9E",
"Q@	c #8FF22F",
"R@	c #437B16",
"S@	c #1C2E0E",
"T@	c #D2D5CF",
"U@	c #BDCAD4",
"V@	c #175589",
"W@	c #227FCC",
"X@	c #4DAEFF",
"Y@	c #E7F0E0",
"Z@	c #5EA029",
"`@	c #68BF22",
" #	c #73D226",
".#	c #478929",
"+#	c #1E69A2",
"@#	c #F5F7F3",
"##	c #BBFF4E",
"$#	c #A6FE36",
"%#	c #67BB22",
"&#	c #6C7864",
"*#	c #9CB4C9",
"=#	c #1D6DB0",
"-#	c #6BBCFF",
";#	c #D8D8D8",
">#	c #B7D2A1",
",#	c #59A01F",
"'#	c #6FCC24",
")#	c #59A31D",
"!#	c #2D6A57",
"~#	c #2690E7",
"{#	c #CACACA",
"]#	c #253618",
"^#	c #F1F2F0",
"/#	c #719EC3",
"(#	c #2383D3",
"_#	c #8ECCFF",
":#	c #B0B0B0",
"<#	c #93BE7F",
"[#	c #62B520",
"}#	c #6BC523",
"|#	c #58A11E",
"1#	c #2B706F",
"2#	c #227DCA",
"3#	c #F7FFEB",
"4#	c #BCFF49",
"5#	c #A3FD36",
"6#	c #1D3609",
"7#	c #6E7965",
"8#	c #FCFDFD",
"9#	c #3C88C7",
"0#	c #BAE0FF",
"a#	c #95C3D5",
"b#	c #519A2A",
"c#	c #65B921",
"d#	c #72D226",
"e#	c #4E9225",
"f#	c #1F6897",
"g#	c #2486D8",
"h#	c #2999F6",
"i#	c #7EC4FE",
"j#	c #EEEEEC",
"k#	c #CEFF79",
"l#	c #B1FF3A",
"m#	c #81E22A",
"n#	c #335F11",
"o#	c #2C3D20",
"p#	c #F0F1EF",
"q#	c #D0E1EF",
"r#	c #2588DA",
"s#	c #30A1FF",
"t#	c #EAF5FF",
"u#	c #92C8F4",
"v#	c #2E85A1",
"w#	c #529921",
"x#	c #62B420",
"y#	c #448839",
"z#	c #1E6EAD",
"A#	c #268CE2",
"B#	c #7DC1FA",
"C#	c #F4FFE3",
"D#	c #569D1C",
"E#	c #192F08",
"F#	c #9FA699",
"G#	c #78B0DE",
"H#	c #56B2FF",
"I#	c #F8F8F8",
"J#	c #93CCFC",
"K#	c #378677",
"L#	c #5AA61D",
"M#	c #70CE25",
"N#	c #5DAB1F",
"O#	c #357752",
"P#	c #2076BE",
"Q#	c #7BBAEF",
"R#	c #EEEFED",
"S#	c #7ADA28",
"T#	c #4B5940",
"U#	c #F4F5F4",
"V#	c #BABABA",
"W#	c #DBE9F4",
"X#	c #2B8DDF",
"Y#	c #299BF9",
"Z#	c #B2B2B2",
"`#	c #93CEFE",
" $	c #268AD8",
".$	c #448B42",
"+$	c #5EAD1F",
"@$	c #71D025",
"#$	c #549A1E",
"$$	c #24677B",
"%$	c #78ADD9",
"&$	c #929292",
"*$	c #EDFFCD",
"=$	c #B7FF3C",
"-$	c #99F832",
";$	c #50921A",
">$	c #A0A79A",
",$	c #F0F0F0",
"'$	c #F8FAFC",
")$	c #529BD8",
"!$	c #E4F3FF",
"~$	c #2583C9",
"{$	c #4C9330",
"]$	c #66BC22",
"^$	c #66BB21",
"/$	c #4A8F2C",
"($	c #7BA6B2",
"_$	c #A3A3A3",
":$	c #F9FDF3",
"<$	c #C2FF5A",
"[$	c #ACFF38",
"}$	c #71CC25",
"|$	c #27480C",
"1$	c #515E46",
"2$	c #FBFCFB",
"3$	c #F4F7F9",
"4$	c #659DCB",
"5$	c #70BEFF",
"6$	c #2793ED",
"7$	c #2F869D",
"8$	c #56A01F",
"9$	c #78AA53",
"0$	c #F1F1F0",
"a$	c #E3FFB8",
"b$	c #90F22F",
"c$	c #457E16",
"d$	c #192C0A",
"e$	c #CCD0CA",
"f$	c #C1CDD7",
"g$	c #4277A3",
"h$	c #227ECB",
"i$	c #D5ECFF",
"j$	c #2A9BFA",
"k$	c #3C8965",
"l$	c #579F1C",
"m$	c #A5BE9E",
"n$	c #CDDDEB",
"o$	c #D0E5F8",
"p$	c #D1E9FE",
"q$	c #D1EAFF",
"r$	c #D6EEF5",
"s$	c #C2FF59",
"t$	c #A7FF37",
"u$	c #6BC223",
"v$	c #23400B",
"w$	c #293D33",
"x$	c #3A556C",
"y$	c #13456F",
"z$	c #1D6EB1",
"A$	c #77C1FF",
"B$	c #F1F1F1",
"C$	c #2588DB",
"D$	c #438D4C",
"E$	c #529820",
"F$	c #236884",
"G$	c #6CCBA3",
"H$	c #8CED2E",
"I$	c #3F7515",
"J$	c #152807",
"K$	c #0C2632",
"L$	c #185B93",
"M$	c #2999F5",
"N$	c #3DA7FF",
"O$	c #2896F2",
"P$	c #2986BE",
"Q$	c #58A31F",
"R$	c #69C122",
"S$	c #63B520",
"T$	c #458732",
"U$	c #1D6AA6",
"V$	c #258ADE",
"W$	c #3FA9DB",
"X$	c #B1FA46",
"Y$	c #A4FD36",
"Z$	c #1D3709",
"`$	c #0F251E",
" %	c #0B2B46",
".%	c #134773",
"+%	c #1E72B8",
"@%	c #BCE1FF",
"#%	c #2793EC",
"$%	c #348685",
"%%	c #58A21D",
"&%	c #6DC924",
"*%	c #40894F",
"=%	c #1F73B9",
"-%	c #7BCE80",
";%	c #82E42B",
">%	c #13260B",
",%	c #0B273B",
"'%	c #0F385A",
")%	c #195E97",
"!%	c #2485D7",
"~%	c #2999F7",
"{%	c #9BD2FF",
"]%	c #299BFA",
"^%	c #408B57",
"/%	c #74D426",
"(%	c #7AE028",
"_%	c #4F9B61",
":%	c #B2F844",
"<%	c #9DFB33",
"[%	c #5AA41D",
"}%	c #0D2528",
"|%	c #0C2E4A",
"1%	c #2888CA",
"2%	c #76D827",
"3%	c #84F12B",
"4%	c #99FF32",
"5%	c #9BFD33",
"6%	c #74D226",
"7%	c #2F570F",
"8%	c #0B273C",
"9%	c #103C61",
"0%	c #1B64A2",
"a%	c #258ADD",
"b%	c #41A9FF",
"c%	c #BEE2FF",
"d%	c #F3F3F3",
"e%	c #2895EF",
"f%	c #2881B4",
"g%	c #69C022",
"h%	c #77DB27",
"i%	c #7EE629",
"j%	c #74D526",
"k%	c #488418",
"l%	c #172C07",
"m%	c #0C2F4C",
"n%	c #155081",
"o%	c #217BC6",
"p%	c #96CFFF",
"q%	c #F2F9FF",
"r%	c #2690E8",
"s%	c #37887D",
"t%	c #6AC323",
"u%	c #549A1B",
"v%	c #112512",
"w%	c #0A2841",
"x%	c #103E65",
"y%	c #1C67A6",
"z%	c #258BE0",
"A%	c #2B9CFA",
"B%	c #33A2FF",
"C%	c #53B1FF",
"D%	c #83C7FF",
"E%	c #F7FBFE",
"F%	c #DEF0FF",
"G%	c #BDE1FF",
"H%	c #BCDFFB",
"I%	c #BAD7F0",
"J%	c #89B06B",
"K%	c #468017",
"L%	c #3D6F14",
"M%	c #213D0A",
"N%	c #1B2C0D",
"O%	c #A7B1B1",
"P%	c #B4BFC9",
"Q%	c #B5C6D3",
"R%	c #C2D7E9",
"S%	c #D1E7FA",
"T%	c #E4F2FE",
"U%	c #FAFAFA",
"V%	c #C7C7C7",
"W%	c #F8F9F6",
"X%	c #64844A",
"Y%	c #1A2F0A",
"Z%	c #304123",
"`%	c #B1B8AC",
" &	c #CFCFCF",
".&	c #ABABAB",
"                                                                                      . + + @   ",
"              # $ $ $ $ $ $ $ $ $ $ $ $ $ $ $ $ $ $ % & &                           * = - ; > , ",
"            ' ) ! ! ! ! ! ! ! ! ! ! ! ! ! ! ! ! ! ! ~ { ] ^ / ( _                   : < [ } | + ",
"            ' 1 2 2 2 2 2 2 2 2 2 2 2 2 2 2 2 2 2 2 2 2 2 2 3 4 5 6 7 8           . 9 0 a b c + ",
"            ' 1 2 2 2 2 2 2 2 2 2 2 2 2 2 2 2 2 2 2 2 2 2 2 2 2 2 2 d e f         g h i j k l # ",
"            ' 1 2 2 2 2 2 2 2 2 2 2 2 2 2 2 2 2 2 2 2 2 2 2 2 2 2 2 2 3 m n o   p q r s t u v   ",
"            ' 1 2 2 2 2 2 2 2 2 2 2 2 2 2 2 2 2 2 2 2 2 2 2 2 2 2 2 2 2 2 w x y z A B C D E F   ",
"            ' 1 2 2 2 2 2 2 2 2 2 2 2 2 2 2 2 2 2 2 2 2 2 2 2 2 2 2 2 2 2 2 G H I J K L M N     ",
"            ' 1 2 2 2 2 2 2 2 2 2 2 2 2 2 2 2 2 2 2 2 2 2 2 2 2 2 2 2 2 2 2 2 O 0 P Q R S T     ",
"            ' 1 2 2 2 2 2 2 2 2 U V V V V V V V V W X 2 2 2 2 2 2 2 2 2 2 2 Y Z `  ...+.@.      ",
"            ' 1 2 2 2 2 2 2 2 2 #.$.%.%.%.%.%.%.%.&.*.=.-.V 2 2 2 2 2 2 2 2 ;.>.,.'.).!.        ",
"            ' 1 2 2 2 2 2 2 2 2 #.~.                    {.].^./.2 2 2 2 2 (._.:.<.[.}.@.        ",
"            ' 1 2 2 2 2 2 2 2 2 #.~.                        |.1.2.2 2 2 2 3.r 4.5.6.7.          ",
"            ' 1 2 2 2 2 2 2 2 2 #.~.                          |.8.2 2 2 (.9.0.j k a.b.          ",
"            ' 1 2 2 2 2 2 2 2 2 #.~.                            c.W 2 2 d.r e.f.g.h.i.j.        ",
"            ' 1 2 2 2 2 2 2 2 2 #.~.                            k.] 2 l.m.n.o.p.q.r.s.t.        ",
"            ' 1 2 2 2 2 2 2 2 2 #.~.                              u./.v.J w.L x.y.z.A.B.        ",
"            ' 1 2 2 2 2 2 2 2 2 #.~.                              C.D.E.F.G.R H.I.J.K.L.T       ",
"            ' 1 2 2 2 2 2 2 2 2 #.~.                              M.N.O.P.Q.R.S.T.U.V.W.X.      ",
"  Y.j.j.Z.  ' 1 2 2 2 2 2 2 2 2 #.~.                            `. +.+++@+#+$+%+&+*+=+-+|.      ",
";+>+,+'+)+!+~+1 2 2 2 2 2 2 2 2 #.~.                            {+]+^+/+(+_+:+<+[+}+|+1+2+      ",
"+ 3+.+4+5+6+7+8+9+2 2 2 2 2 2 2 #.~.                          `.0+[ a+b+c+d+e+f+g+h+i+j+k+      ",
"+ l+m+n+o+p++ q+r+2 2 2 2 2 2 2 #.~.                          s+- t+u+k v+w+x+y+z+A+2 B+n       ",
"C+D+E+F+G+H+I+J+K+A+2 2 2 2 2 2 #.~.                        L+M+N+O+P+Q+R+S+T+U+V+2 2 W+u.      ",
"  X+Y+Z+`+ @.@+@@@=+i+2 2 2 2 2 #.~.                        #@$@%@&@*@=@-@;@>@,@'@2 2 W+u.      ",
"  )@!@~@{@F+]@^@/@(@_@9+2 2 2 2 #.~.                      %.:@<@[@}@|@1@2@3@(@4@2 2 2 W+5@      ",
"    $ 6@7@8@9@0@a@b@c@r+2 2 2 2 #.~.                    Z.d@e@f@G.g@h@i@j@k@l@m@2 2 2 n@c.      ",
"      o@p@q@r@s@t@u@K.v@A+2 2 2 #.~.                    w@x@y@z@A@B@C@T.D@E@r+2 2 2 2 F@G@      ",
"        H@I@J@K@L@M@N@O@=+i+2 2 #.~.                  k.P@.+Q@R@S@T@U@V@W@=+i+2 2 2 2 X@2+      ",
"          Y@Z@`@ #]@.#+#(@_@9+2 #.~.                  @###$#%#(+&#+ *#=#}+|+2 2 2 2 2 -#;#      ",
"          {.>#,#G+'#)#!#b@~#|+2 #.~.                {#P@r a+b+]#^#+ /#(#h+i+2 2 2 2 2 _#:#      ",
"            p <#[#`+}#|#1#2#l@'@#.~.                3#4#5#u+6#7#L+8#9#z+A+2 2 2 2 2 2 0#        ",
"            ' a#b#c#d#{@e#f#g#h#i#~.              j#k#l#m#n#o#p## q#r#V+2 2 2 2 2 2 s#t#        ",
"            ' u#v#w#L@`+x#y#z#A#B#~.              C#0 %@D#E#F#* %.G#K+'@2 2 2 2 2 2 H#I#        ",
"            ' J#~#K#L#s@M#N#O#P#Q#~.            R#k#J S#}@T#U#V#W#X#Y#2 2 2 2 2 2 2 ] Z#        ",
"            ' `#_@ $.$+$@$ @#$$$%$~.          &$*$=$-$;$g@>$,$'$)$l@m@2 2 2 2 2 2 s#!$          ",
"            ' 1 m@=+~${$]$ #^$/$($_$          :$<$[$}$|$1$2$3$4$E@r+2 2 2 2 2 2 2 5$L+          ",
"            ' 1 2 A+6$7$8$}#`+J@9$0$        _$a$[ b$c$d$e$f$g$h$=+i+2 2 2 2 2 2 /.i$            ",
"            ' 1 2 2 j$c@k$H+'#G+l$m$n$o$p$q$r$s$t$u$v$w$x$y$z$c@|+2 2 2 2 2 2 2 A$B$            ",
"            ' 1 2 2 9+_@C$D$]@F+`@E$F$g+=+m@G$0 H$I$J$K$e+L$(#M$9+2 2 2 2 2 2 N$u.              ",
"            ' 1 2 2 2 m@O$P$Q$R$`+S$T$U$V$W$X$Y$u+Z$`$ %.%+%z+A+2 2 2 2 2 2 /.@%#               ",
"            ' 1 2 2 2 2 A+#%$%%%&%M#x#*%=%-%N+;%P+>%,%'%)%!%~%9+2 2 2 2 2 3 {%,$                ",
"            ' 1 2 2 2 2 2 ]%V.^%+$9@/%(%_%:%<%[%D }%|%;@P##%'@2 2 2 2 2 /.{%f                   ",
"            ' 1 2 2 2 2 2 i+h+1%/$x#2%3%4%5%6%7%>%8%9%0%a%Y#2 2 2 2 2 b%c%d%                    ",
"            ' 1 2 2 2 2 2 2 '@e%f%M@g%h%i%j%k%l%=@m%n%o%l@m@2 2 2 N$p%q%8                       ",
"            ' 1 2 2 2 2 2 2 2 |+r%s%&@{@t%u%[.v%w%x%y%z%A%B%C%D%c%E%@                           ",
"              F%G%G%G%G%G%G%G%G%H%I%J%K%L%M%N%O%P%Q%R%S%T%7 U%V%                                ",
"                                    W%X%Y%Z%`% &                                                ",
"                                      d%+ I#.&                                                  "};
