/* XPM */
static char * mainlog_xpm[] = {
"40 40 289 2",
"  	c None",
". 	c #000000",
"+ 	c #C69E6B",
"@ 	c #C49C69",
"# 	c #C29967",
"$ 	c #E0C8AA",
"% 	c #C69E6C",
"& 	c #C59C6A",
"* 	c #C39A68",
"= 	c #926031",
"- 	c #936132",
"; 	c #946232",
"> 	c #956332",
", 	c #B28655",
"' 	c #B08453",
") 	c #AE8151",
"! 	c #946132",
"~ 	c #956232",
"{ 	c #966332",
"] 	c #966432",
"^ 	c #976532",
"/ 	c #986532",
"( 	c #B68B59",
"_ 	c #B48857",
": 	c #AF8251",
"< 	c #9E6A33",
"[ 	c #C8A06E",
"} 	c #976432",
"| 	c #996632",
"1 	c #9A6732",
"2 	c #9B6833",
"3 	c #9C6933",
"4 	c #9D6933",
"5 	c #9F6B33",
"6 	c #C79F6C",
"7 	c #C59D6A",
"8 	c #9B6732",
"9 	c #9C6833",
"0 	c #9D6A33",
"a 	c #A06C33",
"b 	c #C7A06D",
"c 	c #C69D6B",
"d 	c #C49B69",
"e 	c #9B6832",
"f 	c #A16C33",
"g 	c #A16D33",
"h 	c #9A6632",
"i 	c #CBEDFB",
"j 	c #CCEDFA",
"k 	c #CEEDF9",
"l 	c #CFEDF8",
"m 	c #D0ECF7",
"n 	c #A26D33",
"o 	c #A36E33",
"p 	c #C7EEFE",
"q 	c #C8EEFD",
"r 	c #C9EEFC",
"s 	c #CAEEFB",
"t 	c #CDEDFA",
"u 	c #D1ECF6",
"v 	c #D3ECF6",
"w 	c #A46F33",
"x 	c #C6EFFF",
"y 	c #CBEDFA",
"z 	c #D2ECF6",
"A 	c #D4ECF5",
"B 	c #A57034",
"C 	c #CBA471",
"D 	c #CAA26F",
"E 	c #D3ECF5",
"F 	c #D5EBF4",
"G 	c #A67134",
"H 	c #E5E5EE",
"I 	c #FFFFFF",
"J 	c #CAA370",
"K 	c #C8A16E",
"L 	c #C6EEFE",
"M 	c #CAEDFB",
"N 	c #CFECF8",
"O 	c #D4EBF5",
"P 	c #D7EBF3",
"Q 	c #A87234",
"R 	c #A97334",
"S 	c #F2F2F6",
"T 	c #D8D8E6",
"U 	c #C79F6D",
"V 	c #CDEDF9",
"W 	c #D1ECF7",
"X 	c #D8EBF2",
"Y 	c #D9EAF1",
"Z 	c #AA7434",
"` 	c #CBCBDD",
" .	c #B1B1CD",
"..	c #9897BC",
"+.	c #C7EEFD",
"@.	c #D4EBF4",
"#.	c #D65555",
"$.	c #D75656",
"%.	c #DAEAF0",
"&.	c #AB7534",
"*.	c #BEBED5",
"=.	c #A5A4C4",
"-.	c #8B8AB4",
";.	c #7170A3",
">.	c #CAEEFC",
",.	c #D0ECF8",
"'.	c #D6EBF4",
").	c #DCEAF0",
"!.	c #AC7634",
"~.	c #7E7DAB",
"{.	c #64639B",
"].	c #575792",
"^.	c #CEEDF8",
"/.	c #D75555",
"(.	c #DBEAF0",
"_.	c #DCEAEF",
":.	c #DDEAEF",
"<.	c #AD7634",
"[.	c #C19865",
"}.	c #D6EBF3",
"|.	c #D55454",
"1.	c #DCE9EE",
"2.	c #BF9664",
"3.	c #BE9462",
"4.	c #A06B33",
"5.	c #B04646",
"6.	c #BE9563",
"7.	c #BC9361",
"8.	c #AD4545",
"9.	c #B44747",
"0.	c #BB4A4A",
"a.	c #BD9361",
"b.	c #BB915F",
"c.	c #A26E33",
"d.	c #AA4343",
"e.	c #B14646",
"f.	c #B84949",
"g.	c #BF4C4C",
"h.	c #D7EBF2",
"i.	c #D35454",
"j.	c #664520",
"k.	c #57391D",
"l.	c #BA905E",
"m.	c #A36F33",
"n.	c #A46F34",
"o.	c #B54848",
"p.	c #BC4B4B",
"q.	c #C34D4D",
"r.	c #CA5050",
"s.	c #D9EBF2",
"t.	c #585793",
"u.	c #959797",
"v.	c #6D4C20",
"w.	c #5B3D1D",
"x.	c #50351B",
"y.	c #B98E5D",
"z.	c #B78C5B",
"A.	c #A47034",
"B.	c #C04C4C",
"C.	c #C74F4F",
"D.	c #CE5252",
"E.	c #DDE9ED",
"F.	c #919293",
"G.	c #868686",
"H.	c #65461D",
"I.	c #583A1E",
"J.	c #B88D5B",
"K.	c #A77134",
"L.	c #CB5151",
"M.	c #D25353",
"N.	c #DEE8EC",
"O.	c #DCE5E9",
"P.	c #D6DEE0",
"Q.	c #CAD1D3",
"R.	c #BABEBF",
"S.	c #A7A9A9",
"T.	c #949696",
"U.	c #878888",
"V.	c #818181",
"W.	c #67481E",
"X.	c #6D4C1F",
"Y.	c #664322",
"Z.	c #B68B5A",
"`.	c #B58958",
" +	c #A77234",
".+	c #D9EBF1",
"++	c #DAEAF1",
"@+	c #DFE9ED",
"#+	c #DFE8EB",
"$+	c #DCE4E7",
"%+	c #D6DCDE",
"&+	c #C9CCCE",
"*+	c #B7B9BA",
"=+	c #A5A6A6",
"-+	c #969797",
";+	c #8D8D8D",
">+	c #8B8B8B",
",+	c #919191",
"'+	c #7E5824",
")+	c #765025",
"!+	c #754D27",
"~+	c #7D522A",
"{+	c #B38857",
"]+	c #A87334",
"^+	c #E0E9EC",
"/+	c #E0E8EB",
"(+	c #DEE3E6",
"_+	c #D8DCDE",
":+	c #CCCFD0",
"<+	c #BDBFBF",
"[+	c #AFAFAF",
"}+	c #A4A4A4",
"|+	c #A0A0A0",
"1+	c #A1A1A1",
"2+	c #A9A9A9",
"3+	c #92662A",
"4+	c #9D6E2D",
"5+	c #8E602D",
"6+	c #88592E",
"7+	c #AA7534",
"8+	c #DEE9EE",
"9+	c #E2E9EC",
"0+	c #E2E7EA",
"a+	c #E1E5E7",
"b+	c #DCDFE0",
"c+	c #D4D6D6",
"d+	c #CBCBCB",
"e+	c #C1C1C1",
"f+	c #BBBBBB",
"g+	c #B9B9B9",
"h+	c #A5732F",
"i+	c #AE7A31",
"j+	c #986730",
"k+	c #8E5E30",
"l+	c #B18554",
"m+	c #AF8352",
"n+	c #E2E9EB",
"o+	c #E3E8EB",
"p+	c #E3E7E9",
"q+	c #E3E6E7",
"r+	c #E1E3E3",
"s+	c #DDDDDD",
"t+	c #D8D8D8",
"u+	c #A97631",
"v+	c #A77530",
"w+	c #A87630",
"x+	c #AA7630",
"y+	c #AE7931",
"z+	c #9B6931",
"A+	c #9D6A32",
"B+	c #916031",
"C+	c #B08452",
"D+	c #AE8150",
"E+	c #AD7734",
"F+	c #AE7735",
"G+	c #AF7835",
"H+	c #E1E9EC",
"I+	c #E4E8EA",
"J+	c #E5E8E9",
"K+	c #B67E35",
"L+	c #B57D34",
"M+	c #9A6831",
"N+	c #9C6A31",
"O+	c #905F31",
"P+	c #915F31",
"Q+	c #AD804F",
"R+	c #AE7835",
"S+	c #B07935",
"T+	c #B47C35",
"U+	c #B47D35",
"V+	c #B57E35",
"W+	c #B67F36",
"X+	c #B77F36",
"Y+	c #B88036",
"Z+	c #A06C32",
"`+	c #9F6C32",
" @	c #AC7F4E",
".@	c #AA7C4C",
"+@	c #B17A35",
"@@	c #B27B35",
"#@	c #B37C35",
"$@	c #B57D35",
"%@	c #AA7D4C",
"&@	c #A97B4A",
"*@	c #B17B35",
"=@	c #A97C4B",
"-@	c #A77A49",
";@	c #A67848",
">@	c #A57746",
"                                                                                ",
"                                                                                ",
"                        . . . . .                                               ",
"                  . . . . + @ # . .                                             ",
"                . . $ $ % & * = - . .       . . . . .                           ",
"                . $ $ $ = = = - ; > . . . . . , ' ) . .                         ",
"                . $ $ = = - ! ~ { ] ^ / ( _ , ' : < - .                         ",
"                . [ % = - ; > { } / | | 1 2 3 4 < 5 - .                         ",
"      . . . . . . 6 7 - ; > ] } / | 1 8 9 4 0 < 5 a - . .                       ",
"  . . . $ $ $ $ b c d ~ { ] ^ / | 1 e 9 4 < 5 a f g - - .                       ",
"  . $ $ $ $ = = - ; > { } / | h 1 2 3 i j k l m n o g - .                       ",
"  . . $ = = - - ; > ] } / | p q r s i t k l m u v w g - .                       ",
"    . $ $ - ; ~ { x x x x p q r s y t k . m z v A B g - . .         . . . .     ",
"    . C D ; > { x x x x . q r s j t k . . z E A F G g - - .       . . H I .     ",
"    . J K > ] } x x L . . r M j t k N m z E O F P Q R g - .   . . . S S T . .   ",
"    . . U } / / x L p q r i j V k N W z E O F P X Y Z g - . . . H I H `  ....   ",
"      . + @ | 1 L +.q r i j V k N W z E @.#.$.X Y %.&.g - = T S S T *.=.-.;..   ",
"      . 7 * 1 e +.q >.i j V k ,.W z E @.'.$.X Y %.).!.!.` H I H `  ...~.{.]..   ",
"      . d # e 3 4 >.i j V ^.,.W z E @.'./.$.Y (._.:.<.T S S T *.=.-.;.].. . .   ",
"      . . [.3 0 < i j V l ,.W z E F }.|.$.$.(._.1.` H I H `  ...~.{.].. .       ",
"        . 2.3.5 4.j V l ,.5.z E F }.P $.$.(._.*.T S S T *.=.-.;.].. . .         ",
"        . 6.7.a f k l m 8.9.0.F }.P #.$.$._.I H I H `  ...~.{.. . .             ",
"        . a.b.g c.o m d.e.f.g.}.h.i.$.$._.I I I T *.=.-.;.j.k.. .               ",
"        . . l.c.m.n.u v o.p.q.r.s.$.$.$.t.t.I I  ...~.u.v.w.x.x..               ",
"          . y.z.A.B v A F B.C.D.|.$.$.E.t.t.I I I ;.F.G.H.H.w.I..               ",
"          . J.( G K.A F }.X L.M.$.$.$.N.O.P.Q.R.S.T.U.V.W.X.j.Y.. .             ",
"          . Z.`. +Q R }.X .+++#.$.$.@+#+$+%+&+*+=+-+;+>+,+'+)+!+~+.             ",
"          . . {+]+R Z X Y ++(.:.$.$.^+/+(+_+:+<+[+}+|+1+2+3+4+5+6+.             ",
"            . , ' 7+&.Y %.(.:.8+@+^+9+0+a+b+c+d+e+f+g+f+e+h+i+j+k+.             ",
"            . l+m+!.!.%.).:.8+@+^+n+o+p+q+r+s+t+u+v+w+x+y+j+z+A+B+. .           ",
"            . C+D+E+F+G+:.8+@+H+n+o+I+J+K+K+K+L+L+M+M+z+N+O+P+= = - .           ",
"            . . Q+R+G+S+8+@+H+T+U+V+W+X+Y+Z+Z+`+`+P+P+B+B+= . . . . .           ",
"              .  @.@S++@@@#@U+$@K+g g g g - - - - - . . . . .                   ",
"              . %@&@*@@@#@g g g g - - - - - . . . . .                           ",
"              . =@-@g g g - - - - - . . . . .                                   ",
"              . . ;@- - - - . . . . .                                           ",
"                . >@. . . . .                                                   ",
"                . . .                                                           ",
"                                                                                ",
"                                                                                "};
