/* XPM */
static char * ofolder_xpm[] = {
"15 17 106 2",
"  	c None",
". 	c #000000",
"+ 	c #FFFFFF",
"@ 	c #FCEA6C",
"# 	c #F3BB37",
"$ 	c #F1EDD4",
"% 	c #DED9B8",
"& 	c #C0BB91",
"* 	c #F5EEC1",
"= 	c #E9E1A8",
"- 	c #D6CC8A",
"; 	c #C0B56C",
"> 	c #ADA256",
", 	c #A19649",
"' 	c #9B9043",
") 	c #998E41",
"! 	c #988D40",
"~ 	c #988B3D",
"{ 	c #988739",
"] 	c #978233",
"^ 	c #957C2C",
"/ 	c #F8EEA9",
"( 	c #F2E696",
"_ 	c #E8DB81",
": 	c #DCCF6E",
"< 	c #D3C561",
"[ 	c #CDBF5A",
"} 	c #CABC57",
"| 	c #C9BA55",
"1 	c #C8B954",
"2 	c #C8B651",
"3 	c #C7B14B",
"4 	c #C5A943",
"5 	c #C4A13A",
"6 	c #FAED90",
"7 	c #F8E984",
"8 	c #F4E478",
"9 	c #EFDF6E",
"0 	c #EBDA67",
"a 	c #E8D864",
"b 	c #E7D662",
"c 	c #E7D561",
"d 	c #E6D35F",
"e 	c #E6D05B",
"f 	c #E4C953",
"g 	c #E3C14A",
"h 	c #E1B840",
"i 	c #FBEA7D",
"j 	c #FAE976",
"k 	c #F8E770",
"l 	c #F7E56C",
"m 	c #F6E369",
"n 	c #F5E267",
"o 	c #F5E166",
"p 	c #F4DF64",
"q 	c #F4DD61",
"r 	c #F3D85C",
"s 	c #F2D154",
"t 	c #F0C94A",
"u 	c #EFC041",
"v 	c #FAE66E",
"w 	c #FAE56C",
"x 	c #FAE569",
"y 	c #F9E467",
"z 	c #F9E366",
"A 	c #F8E264",
"B 	c #F8E062",
"C 	c #F8DE60",
"D 	c #F7DB5C",
"E 	c #F6D757",
"F 	c #F5D04F",
"G 	c #F4C846",
"H 	c #F2C13F",
"I 	c #FAE063",
"J 	c #FAE062",
"K 	c #F9E061",
"L 	c #F9DF60",
"M 	c #F9DE5F",
"N 	c #F9DC5D",
"O 	c #F8DA5A",
"P 	c #F8D757",
"Q 	c #F7D454",
"R 	c #F6D04E",
"S 	c #F5CA48",
"T 	c #F4C441",
"U 	c #F3BF3C",
"V 	c #F8D657",
"W 	c #F7D656",
"X 	c #F7D554",
"Y 	c #F7D352",
"Z 	c #F6D04F",
"` 	c #F6CE4C",
" .	c #F5CB49",
"..	c #F5C845",
"+.	c #F3C03D",
"@.	c #F3BD39",
"#.	c #F6CD4B",
"$.	c #F6CC4A",
"%.	c #F5CC4A",
"&.	c #F5C947",
"*.	c #F4C744",
"=.	c #F4C542",
"-.	c #F3C340",
";.	c #F3C13E",
">.	c #F3BF3B",
",.	c #F3BC38",
"              .               ",
". . . . . . . + .             ",
". @ @ # # . + + + .           ",
". @ # # . + + + + + . . . . . ",
". @ # . + + + + + + + . # # . ",
". . . . . + + + + + + + . # . ",
". $ % & . . . . . . . . . . . ",
". * = - ; > , ' ) ! ~ { ] ^ . ",
". / ( _ : < [ } | 1 2 3 4 5 . ",
". 6 7 8 9 0 a b c d e f g h . ",
". i j k l m n o p q r s t u . ",
". v w x y z A B C D E F G H . ",
". I J K L M N O P Q R S T U . ",
". P V W W X Y Z `  ...T +.@.. ",
". #.$.%.%. .&.*.=.-.;.>.@.,.. ",
". . . . . . . . . . . . . . . ",
"                              "};
