/* XPM */
static char * openlog_xpm[] = {
"27 25 186 2",
"  	c None",
". 	c #000000",
"+ 	c #B0C8D0",
"@ 	c #B0C8D1",
"# 	c #C8E4EE",
"$ 	c #AFC7D0",
"% 	c #B6CCD4",
"& 	c #D9F1FA",
"* 	c #B7D1DA",
"= 	c #BDDAE4",
"- 	c #A6BFC8",
"; 	c #A1BAC2",
"> 	c #ACC5CD",
", 	c #B5CCD4",
"' 	c #C6DDE5",
") 	c #C9DEE5",
"! 	c #DEF3FA",
"~ 	c #E2F5FB",
"{ 	c #CEDDE1",
"] 	c #E2F0F5",
"^ 	c #ECF8FC",
"/ 	c #D1EEF8",
"( 	c #ACC7D0",
"_ 	c #AB090A",
": 	c #9FB8C1",
"< 	c #B6CFD8",
"[ 	c #C8E2EB",
"} 	c #B2C7CE",
"| 	c #BCCED4",
"1 	c #CADBE1",
"2 	c #DFEFF4",
"3 	c #E7F6FB",
"4 	c #C6E2EC",
"5 	c #A2B8C1",
"6 	c #D1EFF9",
"7 	c #ADC6CF",
"8 	c #AE0C0D",
"9 	c #B10D0F",
"0 	c #9FB5BD",
"a 	c #B40F11",
"b 	c #B61112",
"c 	c #B71214",
"d 	c #B91315",
"e 	c #BA1416",
"f 	c #BC1517",
"g 	c #E8F7FC",
"h 	c #A4BDC6",
"i 	c #95ACB3",
"j 	c #D3F0F9",
"k 	c #91A6AD",
"l 	c #A0B6BE",
"m 	c #B6CFD7",
"n 	c #B2C8CF",
"o 	c #A2B5BB",
"p 	c #C4D8DE",
"q 	c #D6EAF1",
"r 	c #D9EBF1",
"s 	c #E6F6FB",
"t 	c #E9F7FC",
"u 	c #A90809",
"v 	c #93ABB3",
"w 	c #899CA3",
"x 	c #B6CED6",
"y 	c #98ACB2",
"z 	c #A3B8BF",
"A 	c #B0C6CD",
"B 	c #BAD0D7",
"C 	c #B9CDD3",
"D 	c #CFE3E9",
"E 	c #E1F4FA",
"F 	c #E3F5FB",
"G 	c #EAF7FC",
"H 	c #EDF8FC",
"I 	c #AC0B0C",
"J 	c #A70C0E",
"K 	c #7F9097",
"L 	c #D8F1FA",
"M 	c #1E711E",
"N 	c #20731F",
"O 	c #B9CED5",
"P 	c #D1E7EF",
"Q 	c #D3E8EF",
"R 	c #E5F6FB",
"S 	c #EBF8FC",
"T 	c #EEF9FC",
"U 	c #90A5AC",
"V 	c #9AB0B8",
"W 	c #9DB2B9",
"X 	c #DBF2FA",
"Y 	c #B8CBD2",
"Z 	c #237923",
"` 	c #D2E8EF",
" .	c #C7DAE1",
"..	c #288127",
"+.	c #2A8329",
"@.	c #2B862A",
"#.	c #2D882C",
"$.	c #2F8B2E",
"%.	c #F0F9FC",
"&.	c #A0B5BC",
"*.	c #9FB3B9",
"=.	c #B9CBD1",
"-.	c #D8EAF1",
";.	c #E4F5FB",
">.	c #F1FAFD",
",.	c #F4FBFD",
"'.	c #1F721E",
").	c #ABBFC5",
"!.	c #9CADB3",
"~.	c #CFE0E6",
"{.	c #B6C6CA",
"].	c #DBEBF1",
"^.	c #F0FAFC",
"/.	c #F3FAFD",
"(.	c #F6FBFD",
"_.	c #227822",
":.	c #C6DBE1",
"<.	c #9FAEB4",
"[.	c #D6E5EA",
"}.	c #465FE4",
"|.	c #4862E6",
"1.	c #E0F0F4",
"2.	c #506CE9",
"3.	c #526EEA",
"4.	c #5471EB",
"5.	c #5773EC",
"6.	c #F5FBFD",
"7.	c #F8FCFE",
"8.	c #B8CAD0",
"9.	c #CFE2E9",
"0.	c #BAC9CF",
"a.	c #D9E6EB",
"b.	c #4C67E8",
"c.	c #4F6AE9",
"d.	c #F2FAFD",
"e.	c #F7FCFD",
"f.	c #FAFDFE",
"g.	c #FCFEFE",
"h.	c #D5E7ED",
"i.	c #C6D4DA",
"j.	c #E5F0F4",
"k.	c #CFD8DB",
"l.	c #FFFFFF",
"m.	c #4761E4",
"n.	c #D0DFE2",
"o.	c #ADB9BC",
"p.	c #EFF9FC",
"q.	c #E9F2F4",
"r.	c #BC46DE",
"s.	c #BD47E0",
"t.	c #C149E2",
"u.	c #C34BE4",
"v.	c #C54CE6",
"w.	c #4B66E6",
"x.	c #4A64DC",
"y.	c #BCC6C9",
"z.	c #BA44DE",
"A.	c #BC46DF",
"B.	c #F9FCFE",
"C.	c #E4EFF3",
"D.	c #C8D1D4",
"E.	c #CDD6D9",
"F.	c #F6FCFD",
"G.	c #C14AE3",
"H.	c #FCFDFE",
"I.	c #FDFEFE",
"J.	c #E5EEF0",
"K.	c #DAE2E5",
"L.	c #FBFDFE",
"M.	c #B843DC",
"N.	c #AE41CF",
"O.	c #B9BCBE",
"P.	c #F5FAFB",
"Q.	c #B645D6",
"R.	c #C8CACC",
"S.	c #929394",
"T.	c #636464",
"U.	c #4D4D4D",
"V.	c #494949",
"W.	c #484848",
"X.	c #4C4C4C",
"Y.	c #F9FCFD",
"Z.	c #F4F6F7",
"`.	c #DFE1E1",
" +	c #BABBBB",
".+	c #959595",
"                                                      ",
"              . . . . . . .                           ",
"            . + @ # $ + % & . . . . . .               ",
"            . * = - ; > , ' ) ! ~ { ] ^ .             ",
"    . . . . . / ( _ : < [ } ) | 1 2 3 ^ .             ",
"  . + @ 4 5 . 6 7 8 9 0 a b c d e f g ^ .             ",
"  . * = h i . j $ k l m n o p q r s t ^ .             ",
"  . / ( u v w . x y z A B C D E F 3 G H .             ",
"  . 6 7 I J K . L M N O P Q D ~ R g S T .             ",
"  . j $ U V W . X Y Z `  ...+.@.#.$.H %..             ",
"    . x y &.*.. ! =.=.q -.~ ;.s t ^ T >.,..           ",
"    . L M '.).!.. ~.{.r ].R 3 t S T ^./.(..           ",
"    . X Y _.:.<.. [.}.|.1.g G 2.3.4.5.6.7..           ",
"    . ! =.8.9.0.. g a.b.c.S H T ^.d.6.e.f.g..         ",
"      . ~.{.h.i.. ^ ^ j.k.T %.>./.6.e.f.g.l..         ",
"      . [.}.m.n.o.. p.%.q.>./.r.s.t.u.v.l.l..         ",
"      . g a.w.x.y.. d./.z.A.(.e.B.f.g.l.l.l..         ",
"      . ^ ^ C.D.E.. (.F.e.G.B.f.H.I.l.l.l.l..         ",
"        . p.%.J.K.. B.f.f.L.g.I.l.. . . . .           ",
"        . d./.M.N.O.. . . . . . . .                   ",
"        . (.F.P.Q.R.S.T.U.V.W.W.X..                   ",
"        . B.f.Y.Z.`. +.+. . . . .                     ",
"          . . . . . . .                               ",
"                                                      ",
"                                                      "};
