/* XPM */
static char * paused_xpm[] = {
"16 16 12 1",
" 	c None",
".	c #000000",
"+	c #F2F2F2",
"@	c #C9D8E8",
"#	c #C0D6EA",
"$	c #CEDBE5",
"%	c #D3E0EA",
"&	c #EDF4F9",
"*	c #A5C4E2",
"=	c #E25F68",
"-	c #D62831",
";	c #B5222C",
"     ..         ",
"   ..++.        ",
"  .+@@.         ",
" .+@@#+.        ",
"  ..@+#.        ",
"    .+++...     ",
"    .++++$$..   ",
"    .%+++&*@@.  ",
" .  ...++&#*@.  ",
".=...=-.+&***@. ",
".-=.=-.+&##**@. ",
" .-=-.&%##**@@. ",
"  .-;-.#****@.  ",
" .=;.;;.**@@@.  ",
".=-. .;.@@@..   ",
" ..   .....     "};
