/* XPM */
static char * percent3_xpm[] = {
"24 24 178 2",
"  	c None",
". 	c #000000",
"+ 	c #CDD1F2",
"@ 	c #C8CDF0",
"# 	c #C3C8EF",
"$ 	c #F4FAFC",
"% 	c #F2F9FB",
"& 	c #F0F7FB",
"* 	c #EDF6FA",
"= 	c #EBF5FA",
"- 	c #E9F4F9",
"; 	c #E6F3F8",
"> 	c #9CA4E5",
", 	c #97A0E3",
"' 	c #929BE2",
") 	c #DDEEF6",
"! 	c #DAEDF5",
"~ 	c #D8ECF5",
"{ 	c #D5EBF4",
"] 	c #7985DC",
"^ 	c #7480DA",
"/ 	c #CEE8F3",
"( 	c #C2C8EF",
"_ 	c #BDC3EE",
": 	c #B8BFEC",
"< 	c #F4F9FC",
"[ 	c #F1F8FB",
"} 	c #EFF7FB",
"| 	c #EAF5F9",
"1 	c #E8F4F9",
"2 	c #E5F3F8",
"3 	c #919BE2",
"4 	c #8C96E1",
"5 	c #8792DF",
"6 	c #DCEEF6",
"7 	c #D7ECF5",
"8 	c #6E7BD9",
"9 	c #6977D8",
"0 	c #CEE8F2",
"a 	c #C7CCF0",
"b 	c #CBCFF1",
"c 	c #EEF7FA",
"d 	c #ECF6FA",
"e 	c #A0A8E5",
"f 	c #8E98E1",
"g 	c #A6AEE8",
"h 	c #D9EDF5",
"i 	c #858FDE",
"j 	c #818CDE",
"k 	c #CDE7F2",
"l 	c #BEC4ED",
"m 	c #6D6F85",
"n 	c #40424F",
"o 	c #505253",
"p 	c #BAC0C3",
"q 	c #81878A",
"r 	c #4D5153",
"s 	c #7E868A",
"t 	c #ADB4E9",
"u 	c #A2ABE6",
"v 	c #7C82B3",
"w 	c #494F52",
"x 	c #788388",
"y 	c #D7EBF4",
"z 	c #D4EAF4",
"A 	c #54597E",
"B 	c #858CCA",
"C 	c #B6BCEB",
"D 	c #686C83",
"E 	c #B9BFEC",
"F 	c #D4DBDE",
"G 	c #1A1B1C",
"H 	c #B6BFC2",
"I 	c #333637",
"J 	c #323537",
"K 	c #8287B5",
"L 	c #9BA4E4",
"M 	c #32354C",
"N 	c #DBEEF5",
"O 	c #A7B7BE",
"P 	c #BBD0D9",
"Q 	c #212332",
"R 	c #98A1E8",
"S 	c #CCE7F2",
"T 	c #ADB5E9",
"U 	c #AAB1E8",
"V 	c #BFC4EE",
"W 	c #9EA4A6",
"X 	c #4E5153",
"Y 	c #B5BEC2",
"Z 	c #CAD7DC",
"` 	c #4B5052",
" .	c #7C83B3",
"..	c #949DE3",
"+.	c #30334B",
"@.	c #8F9DA3",
"#.	c #8E9CA2",
"$.	c #5E686D",
"%.	c #757BB1",
"&.	c #8D97E1",
"*.	c #A1A9E6",
"=.	c #666A83",
"-.	c #E7F3F9",
";.	c #4C5052",
">.	c #191B1C",
",.	c #99A2E4",
"'.	c #2F324A",
").	c #909EA3",
"!.	c #474E51",
"~.	c #A5B6BE",
"{.	c #5D686C",
"].	c #4E537C",
"^.	c #434C50",
"/.	c #8893DF",
"(.	c #B2B9EB",
"_.	c #CFD9DD",
":.	c #E6F3F9",
"<.	c #666C6E",
"[.	c #7E8689",
"}.	c #E1F0F7",
"|.	c #636B6D",
"1.	c #434665",
"2.	c #8D96E0",
"3.	c #BDD1D9",
"4.	c #464E51",
"5.	c #BACFD8",
"6.	c #919BEA",
"7.	c #8699A0",
"8.	c #979ECE",
"9.	c #A7AFE8",
"0.	c #A4ACE7",
"a.	c #CDD8DD",
"b.	c #E4F2F8",
"c.	c #7D8589",
"d.	c #DFF0F7",
"e.	c #7B8588",
"f.	c #32344B",
"g.	c #7480DF",
"h.	c #D6EBF4",
"i.	c #D0E8F3",
"j.	c #8D97E2",
"k.	c #8698A0",
"l.	c #7F86B4",
"m.	c #232533",
"n.	c #34374C",
"o.	c #323637",
"p.	c #97A0A4",
"q.	c #E2F1F7",
"r.	c #C8D5DB",
"s.	c #313536",
"t.	c #4A4F52",
"u.	c #8E98E4",
"v.	c #6171EE",
"w.	c #2F3436",
"x.	c #CFE8F3",
"y.	c #9DA6E5",
"z.	c #9AA3E4",
"A.	c #E0F0F7",
"B.	c #DFEFF6",
"C.	c #DDEFF6",
"D.	c #97A0E6",
"E.	c #6776E9",
"F.	c #6475F5",
"G.	c #D3EAF4",
"H.	c #D1E9F3",
"I.	c #95A0F5",
"J.	c #C7E4F0",
"K.	c #5766D3",
"L.	c #6070EA",
"M.	c #6273F0",
"N.	c #DEEFF6",
"O.	c #6B7DF9",
"P.	c #798CFC",
"Q.	c #8DA4FF",
"R.	c #D2E9F3",
"S.	c #6778F6",
"T.	c #8199FF",
"U.	c #C6E4F0",
"                                                ",
"                                                ",
"                                                ",
"                                                ",
"                                                ",
"  . . . . . . . . . . . . . . . . . . . . . .   ",
"  . + @ # $ % & * = - ; > , ' ) ! ~ { ] ^ / .   ",
"  . ( _ : < [ } * | 1 2 3 4 5 6 ! 7 { 8 9 0 .   ",
"  . a b @ % & c d | 1 2 e f g 6 h 7 { i j k .   ",
"  . l m n o p * = q r s t u v w x y z A B k .   ",
"  . C D E F G = H I 2 J K L M N x O P Q R S .   ",
"  . T U V W X | Y G Z `  ...+.h @.#.$.%.R S .   ",
"  . &.*.=.G H 1 -.;.>.J ,.&.'.).!.~.{.].'.^..   ",
"  . /.,.(._.. :.<.[.}.|.1.2.2.@.3.4.5.'.6.7..   ",
"  . 8.9.0.a.G b.` c.d.e.f.2.g.h.~.{.i.'.j.k..   ",
"  . l.m.n.o.p.q.r.s.t.s.B u.v.{ w.5.x.].'.^..   ",
"  . y.z., q.}.A.B.C.6 N D.E.F.G.H.i.k 2.I.J..   ",
"  . K.L.M.A.B.N.C.6 ! h O.P.Q.R.i./ S S.T.U..   ",
"  . . . . . . . . . . . . . . . . . . . . . .   ",
"                                                ",
"                                                ",
"                                                ",
"                                                ",
"                                                "};
