/* XPM */
static char * percent_xpm[] = {
"24 24 20 1",
" 	c None",
".	c #000000",
"+	c #87AC7D",
"@	c #FFFFFF",
"#	c #78996F",
"$	c #5A7253",
"%	c #698661",
"&	c #AAAAAA",
"*	c #E3E3E3",
"=	c #C7C7C7",
"-	c #2D3929",
";	c #1E261B",
">	c #0F130E",
",	c #555555",
"'	c #1D1D1D",
")	c #393939",
"!	c #8E8E8E",
"~	c #4B5F45",
"{	c #727272",
"]	c #3C4C37",
"                        ",
"                        ",
"                        ",
"                        ",
"                        ",
" ...................... ",
" .++++++++@@@@@@@@@@@@. ",
" .++++++++@@@@@@@@@@@@. ",
" .+#$%+++#&*@@@&*@@=*@. ",
" .%.-;-+$>,'&@)!'**'@@. ",
" .~$++.+-$@&,@.@,&{!@@. ",
" .++~>~+#;,)*@'*)&'@@@. ",
" .++%~>#]-&,{@=,&{,))=. ",
" .++++-$.+@@.@@@*',&&,. ",
" .]-+#>#>$@&'@@@{!,&&,. ",
" .#;.>$+#>.'*@@*'@=))*. ",
" .++++++++@@@@@@@@@@@@. ",
" .++++++++@@@@@@@@@@@@. ",
" ...................... ",
"                        ",
"                        ",
"                        ",
"                        ",
"                        "};
