/* XPM */
static char * percent1_xpm[] = {
"24 24 130 2",
"  	c None",
". 	c #000000",
"+ 	c #FBFDFD",
"@ 	c #F9FCFD",
"# 	c #F7FBFC",
"$ 	c #F4FAFC",
"% 	c #F2F9FB",
"& 	c #F0F7FB",
"* 	c #EDF6FA",
"= 	c #EBF5FA",
"- 	c #E9F4F9",
"; 	c #E6F3F8",
"> 	c #E4F1F7",
", 	c #E1F0F7",
"' 	c #DFEFF6",
") 	c #DDEEF6",
"! 	c #DAEDF5",
"~ 	c #D8ECF5",
"{ 	c #D5EBF4",
"] 	c #D3EAF4",
"^ 	c #D0E9F3",
"/ 	c #CEE8F3",
"( 	c #F6FAFC",
"_ 	c #F4F9FC",
": 	c #F1F8FB",
"< 	c #EFF7FB",
"[ 	c #EAF5F9",
"} 	c #E8F4F9",
"| 	c #E5F3F8",
"1 	c #E3F1F7",
"2 	c #DEEFF6",
"3 	c #DCEEF6",
"4 	c #D7ECF5",
"5 	c #CEE8F2",
"6 	c #EEF7FA",
"7 	c #ECF6FA",
"8 	c #D9EDF5",
"9 	c #D2E9F4",
"0 	c #D0E8F3",
"a 	c #CDE7F2",
"b 	c #878A8C",
"c 	c #505353",
"d 	c #505253",
"e 	c #BAC0C3",
"f 	c #81878A",
"g 	c #4D5153",
"h 	c #7E868A",
"i 	c #E2F1F7",
"j 	c #E0F0F7",
"k 	c #ACBABF",
"l 	c #494F52",
"m 	c #788388",
"n 	c #D7EBF4",
"o 	c #D4EAF4",
"p 	c #748187",
"q 	c #B9CED8",
"r 	c #868A8B",
"s 	c #D4DBDE",
"t 	c #1A1B1C",
"u 	c #B6BFC2",
"v 	c #333637",
"w 	c #323537",
"x 	c #AFBBC0",
"y 	c #DBEEF5",
"z 	c #A7B7BE",
"A 	c #BBD0D9",
"B 	c #2E3436",
"C 	c #CFE8F3",
"D 	c #CCE7F2",
"E 	c #9EA4A6",
"F 	c #4E5153",
"G 	c #B5BEC2",
"H 	c #CAD7DC",
"I 	c #4B5052",
"J 	c #AEBBC0",
"K 	c #8F9DA3",
"L 	c #8E9CA2",
"M 	c #5E686D",
"N 	c #A3B5BD",
"O 	c #83888B",
"P 	c #E7F3F9",
"Q 	c #4C5052",
"R 	c #191B1C",
"S 	c #DDEFF6",
"T 	c #494F51",
"U 	c #909EA3",
"V 	c #474E51",
"W 	c #A5B6BE",
"X 	c #5D686C",
"Y 	c #738187",
"Z 	c #444D50",
"` 	c #434C50",
" .	c #CFD9DD",
"..	c #E6F3F9",
"+.	c #666C6E",
"@.	c #7E8689",
"#.	c #636B6D",
"$.	c #626A6D",
"%.	c #BDD1D9",
"&.	c #464E51",
"*.	c #BACFD8",
"=.	c #454D51",
"-.	c #8699A0",
";.	c #CDD8DD",
">.	c #E4F2F8",
",.	c #7D8589",
"'.	c #DFF0F7",
").	c #7B8588",
"!.	c #D8EDF5",
"~.	c #D6EBF4",
"{.	c #CCE7F1",
"].	c #8698A0",
"^.	c #B3BDC1",
"/.	c #4C5152",
"(.	c #323637",
"_.	c #97A0A4",
":.	c #C8D5DB",
"<.	c #313536",
"[.	c #4A4F52",
"}.	c #C2D3DA",
"|.	c #D7EBF5",
"1.	c #2F3436",
"2.	c #728086",
"3.	c #D1E9F3",
"4.	c #CBE7F1",
"5.	c #CAE5F1",
"6.	c #C7E4F0",
"7.	c #D2E9F3",
"8.	c #C8E5F1",
"9.	c #C6E4F0",
"                                                ",
"                                                ",
"                                                ",
"                                                ",
"                                                ",
"  . . . . . . . . . . . . . . . . . . . . . .   ",
"  . + @ # $ % & * = - ; > , ' ) ! ~ { ] ^ / .   ",
"  . @ # ( _ : < * [ } | 1 , 2 3 ! 4 { ] ^ 5 .   ",
"  . # ( $ % & 6 7 [ } | 1 , 2 3 8 4 { 9 0 a .   ",
"  . $ b c d e * = f g h i j k l m n o p q a .   ",
"  . % r & s t = u v | w x ' l y m z A B C D .   ",
"  . & < 6 E F [ G t H I J 2 l 8 K L M N / D .   ",
"  . * * O t u } P Q R w ' S T U V W X Y Z ` .   ",
"  . = [ [  .. ..+.@., #.$.3 8 K %.&.*.=.D -..   ",
"  .  .} } ;.t >.I ,.'.).l ! !.~.W X 0 Z {.]..   ",
"  . ^.v /.(._.i :.<.[.<.}.8 |.{ 1.*.C 2.` ` .   ",
"  . > 1 1 i , j ' S 3 y 8 4 { ] 3.0 a 4.5.6..   ",
"  . , , , j ' 2 S 3 ! 8 4 ~.] 7.0 / D 5.8.9..   ",
"  . . . . . . . . . . . . . . . . . . . . . .   ",
"                                                ",
"                                                ",
"                                                ",
"                                                ",
"                                                "};
