/* XPM */
static char * percent2_xpm[] = {
"24 24 181 2",
"  	c None",
". 	c #000000",
"+ 	c #B6BCEC",
"@ 	c #B1B8EA",
"# 	c #ACB3E9",
"$ 	c #A7AFE8",
"% 	c #A2AAE6",
"& 	c #9DA6E5",
"* 	c #98A1E4",
"= 	c #939DE3",
"- 	c #E9F4F9",
"; 	c #E6F3F8",
"> 	c #E4F1F7",
", 	c #E1F0F7",
"' 	c #DFEFF6",
") 	c #DDEEF6",
"! 	c #DAEDF5",
"~ 	c #D8ECF5",
"{ 	c #D5EBF4",
"] 	c #D3EAF4",
"^ 	c #D0E9F3",
"/ 	c #CEE8F3",
"( 	c #020202",
"_ 	c #A8B0E8",
": 	c #A3ABE7",
"< 	c #9EA7E5",
"[ 	c #99A2E4",
"} 	c #949EE3",
"| 	c #8F99E2",
"1 	c #8B95E0",
"2 	c #8690DF",
"3 	c #E3F1F7",
"4 	c #DAECF4",
"5 	c #D7EBF4",
"6 	c #D6EBF4",
"7 	c #D3E9F3",
"8 	c #CFE8F2",
"9 	c #CEE8F2",
"0 	c #050505",
"a 	c #9BA3E4",
"b 	c #A1A9E6",
"c 	c #B5BBEB",
"d 	c #A5ADE7",
"e 	c #8791DF",
"f 	c #828DDE",
"g 	c #7D88DD",
"h 	c #8691DE",
"i 	c #EAF4F8",
"j 	c #E8F4F8",
"k 	c #E4F1F6",
"l 	c #E1F0F6",
"m 	c #DCEEF5",
"n 	c #D7EBF3",
"o 	c #D4E9F3",
"p 	c #D2E9F3",
"q 	c #CEE7F2",
"r 	c #080808",
"s 	c #A6ADE7",
"t 	c #FFFFFF",
"u 	c #D5D9F4",
"v 	c #E2E4F7",
"w 	c #D2D6F3",
"x 	c #7481DB",
"y 	c #9FA7E5",
"z 	c #EEEFFA",
"A 	c #4E5153",
"B 	c #81878A",
"C 	c #E7F3F8",
"D 	c #E4F2F8",
"E 	c #B0BCC0",
"F 	c #4B5052",
"G 	c #7C8588",
"H 	c #DDEEF5",
"I 	c #788387",
"J 	c #BCD0D9",
"K 	c #B7BEEC",
"L 	c #A7AEE7",
"M 	c #7682DB",
"N 	c #717DDA",
"O 	c #6774D7",
"P 	c #CACFF1",
"Q 	c #939CE2",
"R 	c #ECF6F9",
"S 	c #343637",
"T 	c #B4BCC1",
"U 	c #E6F2F8",
"V 	c #E3F1F6",
"W 	c #7D8588",
"X 	c #AEBABF",
"Y 	c #C3D2DA",
"Z 	c #303436",
"` 	c #D1E9F3",
" .	c #0C0C0C",
"..	c #060606",
"+.	c #727EDA",
"@.	c #6D7AD9",
"#.	c #AAB2E8",
"$.	c #EDEEFA",
"%.	c #5968D3",
"&.	c #6875D6",
"*.	c #D9DCF4",
"=.	c #D2DADD",
"-.	c #4E5253",
";.	c #B5BDC1",
">.	c #4C5052",
",.	c #E2F1F6",
"'.	c #97A0A5",
").	c #96A0A4",
"!.	c #636A6D",
"~.	c #ACB9BF",
"{.	c #D9EDF5",
"].	c #D4EAF4",
"^.	c #161616",
"/.	c #6472D6",
"(.	c #5F6DD5",
"_.	c #7E89DD",
":.	c #A0A8E5",
"<.	c #EBEDF9",
"[.	c #B3B9EA",
"}.	c #C6CBF0",
"|.	c #1A1B1C",
"1.	c #E7F2F7",
"2.	c #E4F2F7",
"3.	c #646A6D",
"4.	c #7B8488",
"5.	c #494F51",
"6.	c #474E51",
"7.	c #222222",
"8.	c #070707",
"9.	c #5766D3",
"0.	c #5664D2",
"a.	c #8E97E1",
"b.	c #EBF4F9",
"c.	c #686D6E",
"d.	c #666C6E",
"e.	c #E3F0F6",
"f.	c #E0F0F6",
"g.	c #95A0A4",
"h.	c #C6D4DA",
"i.	c #4A4F52",
"j.	c #DAEDF4",
"k.	c #8E9DA2",
"l.	c #1A1A1A",
"m.	c #090909",
"n.	c #E9F4F8",
"o.	c #DDEFF6",
"p.	c #DCEDF4",
"q.	c #ABB8BF",
"r.	c #62696D",
"s.	c #DCEEF6",
"t.	c #D9EDF4",
"u.	c #8E9BA2",
"v.	c #323637",
"w.	c #C8D6DA",
"x.	c #DAECF5",
"y.	c #C1D2DA",
"z.	c #778287",
"A.	c #464D51",
"B.	c #202020",
"C.	c #5B6BDF",
"D.	c #6475F5",
"E.	c #6B7DF9",
"F.	c #7487FE",
"G.	c #DFEFF5",
"H.	c #D7ECF4",
"I.	c #D0E9F1",
"J.	c #D0E8F2",
"K.	c #CDE7F1",
"L.	c #131313",
"M.	c #040404",
"N.	c #7386FE",
"O.	c #8095FF",
"P.	c #93ACFF",
"Q.	c #DBEEF5",
"R.	c #D0E7F2",
"S.	c #CFE8F3",
"T.	c #CCE6F1",
"U.	c #CBE6F1",
"V.	c #C8E5F0",
"W.	c #010101",
"X.	c #030303",
"                                                ",
"                                                ",
"                                                ",
"                                                ",
"                                                ",
"  . . . . . . . . . . . . . . . . . . . . . .   ",
"  . + @ # $ % & * = - ; > , ' ) ! ~ { ] ^ / .   ",
"  ( _ : < [ } | 1 2 - ; 3 , ' ) 4 5 6 7 8 9 .   ",
"  0 a b c d e f g h i j k 3 l ' m ! n o p q (   ",
"  r s t u v w x y z A B C D E F G H ! I J 8 0   ",
"  r K L M N t O P Q R S T U F V W X Y Z 6 `  .  ",
"  ..+.@.#.$.d %.&.*.=.-.;.; >.,.'.).!.~.{.].^.  ",
"  0 /.(._.:.<.&.[.}.|.S 1.2.>.).F E 3.4.5.6.7.  ",
"  8.9.0.0.0.}.a.t 0.b.c.d.e.f.g.h.i.h.i.j.k.l.  ",
"  m.[.}.0.&.<.&.<.a.n.B >.f.o.p.q.r.s.5.t.u.l.  ",
"   .&.*.t <.a.0.&.<.>.v.w.o.x.{.Z y.~ z.6.A.B.  ",
"  m.C.D.D.D.D.D.E.F., G.m {.H.{ ].7 p I.J.K.L.  ",
"  M.D.D.D.D.D.N.O.P.m Q.~ 6 ] 7 R.S.9 T.U.V.r   ",
"  W.( M.0 M.X.X.X.M.0 M.X.W.W.W.( ( X.X.M.X.(   ",
"                                                ",
"                                                ",
"                                                ",
"                                                ",
"                                                "};
