/* XPM */
static char * prefs_xpm[] = {
"24 24 121 2",
"  	c None",
". 	c #000000",
"+ 	c #FBFEFF",
"@ 	c #F6FCFE",
"# 	c #7DA4A4",
"$ 	c #71AFAF",
"% 	c #90DFE7",
"& 	c #69C8D9",
"* 	c #DFF3FF",
"= 	c #C8DAE5",
"- 	c #78D5D8",
"; 	c #56A4B5",
"> 	c #71BCD2",
", 	c #6DB6CD",
"' 	c #CBDDE8",
") 	c #6DCBD9",
"! 	c #4A8EA9",
"~ 	c #D0E3EE",
"{ 	c #95D5D7",
"] 	c #5E90A4",
"^ 	c #C2D3DE",
"/ 	c #E1E9E9",
"( 	c #9BB8BC",
"_ 	c #7BA0AE",
": 	c #5E8898",
"< 	c #407991",
"[ 	c #3C7389",
"} 	c #A7B4B4",
"| 	c #E3E3E3",
"1 	c #A6B8BF",
"2 	c #768A91",
"3 	c #627F8B",
"4 	c #466C7B",
"5 	c #68B0C7",
"6 	c #356579",
"7 	c #F0F7FB",
"8 	c #82A7A7",
"9 	c #CCD0D0",
"0 	c #BECBD0",
"a 	c #9F9F9F",
"b 	c #7E8C91",
"c 	c #5B737C",
"d 	c #8BBBCA",
"e 	c #65A7BC",
"f 	c #346376",
"g 	c #DCF7F7",
"h 	c #698080",
"i 	c #8EADB8",
"j 	c #72858C",
"k 	c #6F7B80",
"l 	c #A7DBDB",
"m 	c #729B9B",
"n 	c #56909B",
"o 	c #6490A2",
"p 	c #77949E",
"q 	c #89A4A4",
"r 	c #8BC7C7",
"s 	c #365C6B",
"t 	c #D6D9D9",
"u 	c #778C8C",
"v 	c #61A4BB",
"w 	c #6AB1C7",
"x 	c #346477",
"y 	c #464C50",
"z 	c #454B4F",
"A 	c #96A8A8",
"B 	c #578C8C",
"C 	c #458498",
"D 	c #44819A",
"E 	c #5998AF",
"F 	c #707A81",
"G 	c #ADA6A5",
"H 	c #CFBFBD",
"I 	c #DFECEC",
"J 	c #5D8A8A",
"K 	c #376A79",
"L 	c #3E768D",
"M 	c #5C9DB2",
"N 	c #AEA5A4",
"O 	c #D3BDBC",
"P 	c #E7C6C3",
"Q 	c #D3AEAA",
"R 	c #F7F8F8",
"S 	c #739B9B",
"T 	c #3F7890",
"U 	c #407B92",
"V 	c #325F71",
"W 	c #D4BEBC",
"X 	c #E8C3C0",
"Y 	c #EFBDB8",
"Z 	c #CC9A95",
"` 	c #C7908B",
" .	c #A0C2C2",
"..	c #9BCECE",
"+.	c #427D95",
"@.	c #3D748B",
"#.	c #EEAFA9",
"$.	c #EBA099",
"%.	c #C37D77",
"&.	c #C27B74",
"*.	c #C1FCFC",
"=.	c #63AEAF",
"-.	c #5C9DB3",
";.	c #6EB8CE",
">.	c #2F5A6C",
",.	c #E88F87",
"'.	c #E58278",
").	c #AB5D56",
"!.	c #AB6159",
"~.	c #519AB7",
"{.	c #3C7288",
"].	c #528FA4",
"^.	c #D67970",
"/.	c #E16F65",
"(.	c #BA554C",
"_.	c #8B443E",
":.	c #BF6D64",
"<.	c #396C81",
"[.	c #CA5C52",
"}.	c #96362E",
"|.	c #A94D45",
"                                                ",
"                                                ",
"      . .                     . . . .           ",
"    . + @ . . .             . # $ % & .         ",
"    . + * * = .           . - ; > , .           ",
"      . * * ' .           . ) ! . .             ",
"      . + + ~ .           . { ] .       . .     ",
"        . . ^ * .       . / ( _ : . . . < [ .   ",
"            . ^ + .   . } | 1 2 3 4 5 6 6 .     ",
"              . 7 + . 8 9 0 a b c d e f .       ",
"                . . g h i j k . . . . .         ",
"                . l m n o p .                   ",
"              . q r < ! s .                     ",
"            . t u v w x y z . . .               ",
"          . A B C D E . . y F G H .             ",
"        . I J K L M .     . N O P Q .           ",
"      . R S T U V .       . W X Y Z ` .         ",
"    .  ...+.@.f .           . Y #.$.%.&..       ",
"  . *.=.-.;.>..               . $.,.'.).!..     ",
"  . ~.U {.]..                   . ^./.(._.:..   ",
"  . D <.]..                       . [.}.|..     ",
"    . . .                           . (..       ",
"                                      .         ",
"                                                "};
