/* XPM */
static char * queues_xpm[] = {
"40 40 292 2",
"  	c None",
". 	c #000000",
"+ 	c #FFFFFF",
"@ 	c #CCCCCC",
"# 	c #C7C7C7",
"$ 	c #D5D5D5",
"% 	c #E2E2E2",
"& 	c #603E29",
"* 	c #EDEDED",
"= 	c #F2F2F2",
"- 	c #F8F8F8",
"; 	c #C3C3C3",
"> 	c #D1D1D1",
", 	c #DEDEDE",
"' 	c #EBEBEB",
") 	c #B78E71",
"! 	c #99765D",
"~ 	c #D7D7D7",
"{ 	c #E4E4E4",
"] 	c #E9E9E9",
"^ 	c #BFBFBF",
"/ 	c #CDCDCD",
"( 	c #DADADA",
"_ 	c #E7E7E7",
": 	c #F4F4F4",
"< 	c #876E5E",
"[ 	c #755039",
"} 	c #BDBDBD",
"| 	c #C2C2C2",
"1 	c #C8C8C8",
"2 	c #BBBBBB",
"3 	c #D6D6D6",
"4 	c #E3E3E3",
"5 	c #F0F0F0",
"6 	c #FDFDFD",
"7 	c #A1A1A1",
"8 	c #A7A7A7",
"9 	c #B7B7B7",
"0 	c #C4C4C4",
"a 	c #D2D2D2",
"b 	c #DFDFDF",
"c 	c #ECECEC",
"d 	c #F9F9F9",
"e 	c #878787",
"f 	c #B3B3B3",
"g 	c #C0C0C0",
"h 	c #CECECE",
"i 	c #DBDBDB",
"j 	c #E8E8E8",
"k 	c #F5F5F5",
"l 	c #BFD3F3",
"m 	c #3F7BDE",
"n 	c #AFAFAF",
"o 	c #BCBCBC",
"p 	c #C9C9C9",
"q 	c #F1F1F1",
"r 	c #7FA7E8",
"s 	c #004FD2",
"t 	c #C5C5C5",
"u 	c #D3D3D3",
"v 	c #E0E0E0",
"w 	c #FAFAFA",
"x 	c #CFCFCF",
"y 	c #DCDCDC",
"z 	c #F6F6F6",
"A 	c #D8D8D8",
"B 	c #E5E5E5",
"C 	c #E1E1E1",
"D 	c #EEEEEE",
"E 	c #FBFBFB",
"F 	c #B5CCF2",
"G 	c #A2BFEF",
"H 	c #96B7EC",
"I 	c #CEDDF6",
"J 	c #CBDBF6",
"K 	c #F0F5FC",
"L 	c #EBF1FB",
"M 	c #9FBDEE",
"N 	c #91B3EC",
"O 	c #BCE050",
"P 	c #DAE5F8",
"Q 	c #F6F9FD",
"R 	c #F6F8FD",
"S 	c #A7C2EF",
"T 	c #97B8ED",
"U 	c #88ADEA",
"V 	c #4881DF",
"W 	c #CAE150",
"X 	c #C5E150",
"Y 	c #F9FBFE",
"Z 	c #FAFCFE",
"` 	c #BBD0F3",
" .	c #ABC5F0",
"..	c #9BBAED",
"+.	c #8BAFEB",
"@.	c #7BA4E8",
"#.	c #6B99E5",
"$.	c #DBE251",
"%.	c #D0E150",
"&.	c #C4DF50",
"*.	c #DEE8F9",
"=.	c #BDD2F3",
"-.	c #ADC6F0",
";.	c #9DBBEE",
">.	c #8CB0EB",
",.	c #7CA5E8",
"'.	c #6C9AE5",
").	c #5B8EE2",
"!.	c #4B83E0",
"~.	c #F4E250",
"{.	c #DBE050",
"].	c #C9DE50",
"^.	c #B9DB4F",
"/.	c #E7EFFB",
"(.	c #5A8EE2",
"_.	c #4A83DF",
":.	c #D0DE50",
"<.	c #C2DC4F",
"[.	c #B3D94F",
"}.	c #9FD54E",
"|.	c #C4D6F4",
"1.	c #D0DFF7",
"2.	c #78A2E7",
"3.	c #6897E5",
"4.	c #588CE2",
"5.	c #C8DC4F",
"6.	c #C1DB4F",
"7.	c #B9D84F",
"8.	c #A7D54E",
"9.	c #97D24E",
"0.	c #87CF4D",
"a.	c #B9CFF3",
"b.	c #F2F6FC",
"c.	c #82A9E9",
"d.	c #739FE6",
"e.	c #6494E4",
"f.	c #548AE1",
"g.	c #447FDE",
"h.	c #B3D84F",
"i.	c #B0D74E",
"j.	c #A7D44E",
"k.	c #99D24E",
"l.	c #8BCF4D",
"m.	c #7BCC4D",
"n.	c #66C84C",
"o.	c #89AEEA",
"p.	c #5E90E3",
"q.	c #4F86E0",
"r.	c #A6D34E",
"s.	c #9BD24E",
"t.	c #96D04D",
"u.	c #8BCE4D",
"v.	c #7DCC4D",
"w.	c #6AC94C",
"x.	c #5BC64C",
"y.	c #57C24B",
"z.	c #7980CC",
"A.	c #8891D4",
"B.	c #929EDA",
"C.	c #96A2DD",
"D.	c #6A6EC2",
"E.	c #595BB9",
"F.	c #4A49AF",
"G.	c #3B37A4",
"H.	c #2F299C",
"I.	c #28279A",
"J.	c #222499",
"K.	c #1B2197",
"L.	c #8ECE4D",
"M.	c #88CD4D",
"N.	c #83CC4D",
"O.	c #7BCB4D",
"P.	c #6BC94C",
"Q.	c #559E68",
"R.	c #569E68",
"S.	c #32BD4B",
"T.	c #7380CE",
"U.	c #8093D8",
"V.	c #8CA2DF",
"W.	c #93AAE5",
"X.	c #636EC4",
"Y.	c #545BBA",
"Z.	c #4648B0",
"`.	c #3738A5",
" +	c #2A289B",
".+	c #24259A",
"++	c #1E2398",
"@+	c #172096",
"#+	c #76C94C",
"$+	c #76C84C",
"%+	c #6EC84C",
"&+	c #68C74C",
"*+	c #5AC54C",
"=+	c #549E68",
"-+	c #33BE4B",
";+	c #687BCE",
">+	c #768ED8",
",+	c #829FE2",
"'+	c #5B69C4",
")+	c #4C57B9",
"!+	c #3F46AF",
"~+	c #3236A5",
"{+	c #26279A",
"]+	c #202398",
"^+	c #1A2197",
"/+	c #141E96",
"(+	c #68C44C",
"_+	c #59C44C",
":+	c #57C44C",
"<+	c #55C34B",
"[+	c #539E68",
"}+	c #6682D2",
"|+	c #6F8FDA",
"1+	c #7496DF",
"2+	c #5B72C9",
"3+	c #4E61C0",
"4+	c #4251B6",
"5+	c #3741AC",
"6+	c #2B32A2",
"7+	c #212499",
"8+	c #1B2198",
"9+	c #151F96",
"0+	c #0F1C94",
"a+	c #51C04B",
"b+	c #4FC04B",
"c+	c #4CC04B",
"d+	c #529E67",
"e+	c #539E67",
"f+	c #32BD4A",
"g+	c #5471CB",
"h+	c #5B7AD0",
"i+	c #5E7ED3",
"j+	c #4C64C4",
"k+	c #4256BB",
"l+	c #3748B1",
"m+	c #2E3AA9",
"n+	c #232C9E",
"o+	c #161F96",
"p+	c #101D95",
"q+	c #2B39A1",
"r+	c #41BD4A",
"s+	c #37BD4A",
"t+	c #509E68",
"u+	c #529E68",
"v+	c #32BB4A",
"w+	c #4766C6",
"x+	c #4968C7",
"y+	c #435FC2",
"z+	c #3C56BB",
"A+	c #354AB4",
"B+	c #2C3EAC",
"C+	c #2432A4",
"D+	c #1B269A",
"E+	c #2C3AA2",
"F+	c #2838A0",
"G+	c #33BA4A",
"H+	c #4F9E68",
"I+	c #519E68",
"J+	c #32BA4A",
"K+	c #3754BD",
"L+	c #3653BB",
"M+	c #334DB8",
"N+	c #2E46B2",
"O+	c #283DAC",
"P+	c #2133A5",
"Q+	c #1A299D",
"R+	c #0150D3",
"S+	c #32B84A",
"T+	c #3A78DD",
"U+	c #3B78DD",
"V+	c #2641B1",
"W+	c #243DAD",
"X+	c #2137AA",
"Y+	c #1C30A4",
"Z+	c #16289D",
"`+	c #111F97",
" @	c #0D1C94",
".@	c #2A39A1",
"+@	c #2737A0",
"@@	c #31B74A",
"#@	c #2A6DDA",
"$@	c #2A6CDA",
"%@	c #286BD9",
"&@	c #152AA0",
"*@	c #11249B",
"=@	c #0D1E95",
"-@	c #0553D4",
";@	c #1860D7",
">@	c #155ED6",
",@	c #115BD5",
"'@	c #0C58D5",
")@	c #0654D4",
"                                                                                ",
"                                                                                ",
"                            . . . . . . . . . . .                               ",
"                          . + + + + + + + + + + + .                             ",
"                            . + + + + + + + + + . @ .                           ",
"                            . + + + + + + + + . # $ % .                         ",
"              & & & & & & & & & * = - + + + . ; > , ' - .                       ",
"            & ) ) ) ) ) ) ) ) ! & ~ , { ] . ^ / ( _ : + + .                     ",
"            & ! ) ! ! < [ [ & < & } | 1 . 2 1 3 4 5 6 + + .                     ",
"            & ! ) ! ! < [ [ & < & 7 8 . 9 0 a b c d + + + .                     ",
"            . ! < < < < < < < < . e . f g h i j k + + + + + .                   ",
"          . + + + + + + l l l l m . n o p ~ { q + + + + + + .                   ",
"          . r l l + l l r r m s m . . t u v * w + + + + + + + .                 ",
"            . r r l r m m s s m .   . x y ] z + + + + + + + + .                 ",
"              . r + l r m s m .     . A B = + + + + + + + + + .                 ",
"              . l + l r m s m .     . C D E + + + + + + + + + .                 ",
"              . l + l r m s m .       . . . . . . . . . . . .                   ",
"              . l + l r m s m .                                                 ",
"              . l + l r m s m .     &       &       &                           ",
"            . . F + G H m s m . .   & &     & &     & &                         ",
"          . I J K + L M N m s m m . & O &   & O &   & O &                       ",
"        . P Q R + K F S T U m m s V & W X & & W X & & W X &                     ",
"      . P Y Z Y R J `  ...+.@.#.m m & $.%.&.& $.%.&.& $.%.&.&                   ",
"    . I *.Z + Z *.I =.-.;.>.,.'.).!.& ~.{.].^.& {.].^.& {.].^.&                 ",
"    . J R Y Z /.P J `  ...+.@.#.(._.& {.:.<.[.}.& <.[.}.& <.[.}.&               ",
"  . F |.1.R *.P 1.|.F S T U 2.3.4.V & 5.6.7.8.9.0.& 8.9.0.& 8.9.0.&             ",
"  . -.a.|.b.I J |.a.-.M N c.d.e.f.g.& h.i.j.k.l.m.n.& l.m.n.& l.m.n.&           ",
"  . G -.F ` =.` F -.G H o.@.'.p.q.m & r.s.t.u.v.w.x.y.& w.x.y.& w.x.y.&         ",
"  . H z.A.B.C.B.A.z.D.E.F.G.H.I.J.K.& L.M.N.O.P.x.Q.R.S.& Q.R.S.& Q.R.S.&       ",
"  . o.T.U.V.W.V.U.T.X.Y.Z.`. +.+++@+& #+$+%+&+*+=+Q.-+& =+Q.-+& =+Q.-+&         ",
"  . @.;+>+,+>.,+>+;+'+)+!+~+{+]+^+/+& (+_+:+<+[+=+-+& [+=+-+& [+=+-+&           ",
"  . '.d.}+|+1+|+}+2+3+4+5+6+7+8+9+0+& a+b+c+d+e+f+& d+e+f+& d+e+f+&             ",
"    . e.g+h+i+h+g+j+k+l+m+n+8+o+p+q+& r+s+t+u+v+& t+u+v+& t+u+v+&               ",
"    . f.4.w+x+w+y+z+A+B+C+D+9+p+E+F+& G+H+I+J+& H+I+J+& H+I+J+&                 ",
"      . V _.K+L+M+N+O+P+Q+/+0+q+F+R+& H+I+S+& H+I+S+& H+I+S+&                   ",
"        . T+U+V+W+X+Y+Z+`+ @.@+@s s & @@@@& & @@@@& & @@@@&                     ",
"          . #@$@%@&@*@=@q+F+-@s s . & @@&   & @@&   & @@&                       ",
"            . . ;@>@,@'@)@s s . .   & &     & &     & &                         ",
"                . . . . . . .       &       &       &                           ",
"                                                                                "};
