/* XPM */
static char * run4_xpm[] = {
"16 16 42 1",
" 	c None",
".	c #000000",
"+	c #F2F2F2",
"@	c #C9D8E8",
"#	c #C0D6EA",
"$	c #CEDBE5",
"%	c #6FC295",
"&	c #D3E0EA",
"*	c #EDF4F9",
"=	c #A5C4E2",
"-	c #7BD1A4",
";	c #6ABC8F",
">	c #5FAF83",
",	c #63B387",
"'	c #58A67A",
")	c #4E9B6E",
"!	c #6EB7FE",
"~	c #5FA6FA",
"{	c #427EDF",
"]	c #407BDB",
"^	c #3873D8",
"/	c #4886E5",
"(	c #56A478",
"_	c #53A175",
":	c #80D0FF",
"<	c #5296F3",
"[	c #4686E8",
"}	c #427CDA",
"|	c #4887E6",
"1	c #499569",
"2	c #489367",
"3	c #4287EF",
"4	c #70C1FF",
"5	c #4C92F3",
"6	c #3A77DD",
"7	c #4D96FA",
"8	c #458BF2",
"9	c #3975DA",
"0	c #4B89E9",
"a	c #4B8CEB",
"b	c #4C8CEB",
"c	c #4684E2",
"     ..         ",
"   ..++.        ",
"  .+@@.         ",
" .+@@#+.        ",
"  ..@+#.        ",
"    .+++...     ",
"  . .++++$$..   ",
" .%..&+++*=@@.  ",
" .-%.$+++*#=@.  ",
" .%;>.+++*===@. ",
" .,>').!~{]^^/. ",
" .(_).:<[]^^}|. ",
" .12.3456^^^}.  ",
" .2..{789^}}0.  ",
"  .  ../abc..   ",
"       ....     "};
