/* XPM */
static char * run5_xpm[] = {
"16 16 46 1",
" 	c None",
".	c #000000",
"+	c #F2F2F2",
"@	c #C9D8E8",
"#	c #C0D6EA",
"$	c #CEDBE5",
"%	c #6FC295",
"&	c #D3E0EA",
"*	c #EDF4F9",
"=	c #A5C4E2",
"-	c #7BD1A4",
";	c #6ABC8F",
">	c #5FAF83",
",	c #87D4FF",
"'	c #74BDFF",
")	c #5997EE",
"!	c #5698EF",
"~	c #3873D8",
"{	c #4684E2",
"]	c #63B387",
"^	c #58A67A",
"/	c #4E9B6E",
"(	c #6EB7FE",
"_	c #5FA6FA",
":	c #427EDF",
"<	c #407BDB",
"[	c #4886E5",
"}	c #56A478",
"|	c #53A175",
"1	c #80D0FF",
"2	c #5296F3",
"3	c #4686E8",
"4	c #427CDA",
"5	c #4887E6",
"6	c #499569",
"7	c #489367",
"8	c #4287EF",
"9	c #70C1FF",
"0	c #4C92F3",
"a	c #3A77DD",
"b	c #4D96FA",
"c	c #458BF2",
"d	c #3975DA",
"e	c #4B89E9",
"f	c #4B8CEB",
"g	c #4C8CEB",
"     ..         ",
"   ..++.        ",
"  .+@@.         ",
" .+@@#+.        ",
"  ..@+#.        ",
"    .+++...     ",
"  . .++++$$..   ",
" .%..&+++*=@@.  ",
" .-%.$+++*#=@.  ",
" .%;>.,')!~~~{. ",
" .]>^/.(_:<~~[. ",
" .}|/.123<~~45. ",
" .67.890a~~~4.  ",
" .7..:bcd~44e.  ",
"  .  ..[fg{..   ",
"       ....     "};
