/* XPM */
static char * run7_xpm[] = {
"16 16 57 1",
" 	c None",
".	c #000000",
"+	c #F2F2F2",
"@	c #C9D8E8",
"#	c #C0D6EA",
"$	c #CEDBE5",
"%	c #6FC295",
"&	c #569BF7",
"*	c #80CEFF",
"=	c #71BBFE",
"-	c #5B99F1",
";	c #599CF2",
">	c #3E80E6",
",	c #4D8EEE",
"'	c #4580DF",
")	c #7BD1A4",
"!	c #7DD2FF",
"~	c #91E6FF",
"{	c #83D0FF",
"]	c #538FE7",
"^	c #528FEA",
"/	c #427FE0",
"(	c #3A77DD",
"_	c #6ABC8F",
":	c #5FAF83",
"<	c #87D4FF",
"[	c #74BDFF",
"}	c #5997EE",
"|	c #5698EF",
"1	c #3873D8",
"2	c #4684E2",
"3	c #63B387",
"4	c #58A67A",
"5	c #4E9B6E",
"6	c #6EB7FE",
"7	c #5FA6FA",
"8	c #427EDF",
"9	c #407BDB",
"0	c #4886E5",
"a	c #56A478",
"b	c #53A175",
"c	c #80D0FF",
"d	c #5296F3",
"e	c #4686E8",
"f	c #427CDA",
"g	c #4887E6",
"h	c #499569",
"i	c #489367",
"j	c #4287EF",
"k	c #70C1FF",
"l	c #4C92F3",
"m	c #4D96FA",
"n	c #458BF2",
"o	c #3975DA",
"p	c #4B89E9",
"q	c #4B8CEB",
"r	c #4C8CEB",
"     ..         ",
"   ..++.        ",
"  .+@@.         ",
" .+@@#+.        ",
"  ..@+#.        ",
"    .+++...     ",
"  . .++++$$..   ",
" .%..&*=-;>,'.  ",
" .)%.!~{]^/('.  ",
" .%_:.<[}|1112. ",
" .3:45.6789110. ",
" .ab5.cde911fg. ",
" .hi.jkl(111f.  ",
" .i..8mno1ffp.  ",
"  .  ..0qr2..   ",
"       ....     "};
