/* XPM */
static char * run8_xpm[] = {
"16 16 67 1",
" 	c None",
".	c #000000",
"+	c #F2F2F2",
"@	c #C9D8E8",
"#	c #C0D6EA",
"$	c #4580DF",
"%	c #5C9EF3",
"&	c #498CED",
"*	c #65ABFA",
"=	c #69AEFE",
"-	c #4E88DF",
";	c #62A5F9",
">	c #6DB4FE",
",	c #5FA3F6",
"'	c #5692EA",
")	c #4984E2",
"!	c #4781DE",
"~	c #6FC295",
"{	c #569BF7",
"]	c #80CEFF",
"^	c #71BBFE",
"/	c #5B99F1",
"(	c #599CF2",
"_	c #3E80E6",
":	c #4D8EEE",
"<	c #7BD1A4",
"[	c #7DD2FF",
"}	c #91E6FF",
"|	c #83D0FF",
"1	c #538FE7",
"2	c #528FEA",
"3	c #427FE0",
"4	c #3A77DD",
"5	c #6ABC8F",
"6	c #5FAF83",
"7	c #87D4FF",
"8	c #74BDFF",
"9	c #5997EE",
"0	c #5698EF",
"a	c #3873D8",
"b	c #4684E2",
"c	c #63B387",
"d	c #58A67A",
"e	c #4E9B6E",
"f	c #6EB7FE",
"g	c #5FA6FA",
"h	c #427EDF",
"i	c #407BDB",
"j	c #4886E5",
"k	c #56A478",
"l	c #53A175",
"m	c #80D0FF",
"n	c #5296F3",
"o	c #4686E8",
"p	c #427CDA",
"q	c #4887E6",
"r	c #499569",
"s	c #489367",
"t	c #4287EF",
"u	c #70C1FF",
"v	c #4C92F3",
"w	c #4D96FA",
"x	c #458BF2",
"y	c #3975DA",
"z	c #4B89E9",
"A	c #4B8CEB",
"B	c #4C8CEB",
"     ..         ",
"   ..++.        ",
"  .+@@.         ",
" .+@@#+.        ",
"  ..$%&.        ",
"    .*=-...     ",
"  . .;>,')!..   ",
" .~..{]^/(_:$.  ",
" .<~.[}|1234$.  ",
" .~56.7890aaab. ",
" .c6de.fghiaaj. ",
" .kle.mnoiaapq. ",
" .rs.tuv4aaap.  ",
" .s..hwxyappz.  ",
"  .  ..jABb..   ",
"       ....     "};
