/* XPM */
static char * run_part7_xpm[] = {
"16 16 53 1",
" 	c None",
".	c #000000",
"+	c #F2F2F2",
"@	c #C9D8E8",
"#	c #C0D6EA",
"$	c #CEDBE5",
"%	c #569BF7",
"&	c #80CEFF",
"*	c #71BBFE",
"=	c #5B99F1",
"-	c #599CF2",
";	c #3E80E6",
">	c #4D8EEE",
",	c #4580DF",
"'	c #7DD2FF",
")	c #91E6FF",
"!	c #83D0FF",
"~	c #538FE7",
"{	c #528FEA",
"]	c #427FE0",
"^	c #3A77DD",
"/	c #549CF6",
"(	c #88D5FF",
"_	c #87D4FF",
":	c #74BDFF",
"<	c #5997EE",
"[	c #5698EF",
"}	c #3873D8",
"|	c #4684E2",
"1	c #579EF8",
"2	c #8FE5FF",
"3	c #8DDFFF",
"4	c #6EB7FE",
"5	c #5FA6FA",
"6	c #427EDF",
"7	c #407BDB",
"8	c #4886E5",
"9	c #4D8EEB",
"0	c #67BAFF",
"a	c #80D0FF",
"b	c #5296F3",
"c	c #4686E8",
"d	c #427CDA",
"e	c #4887E6",
"f	c #4287EF",
"g	c #70C1FF",
"h	c #4C92F3",
"i	c #4D96FA",
"j	c #458BF2",
"k	c #3975DA",
"l	c #4B89E9",
"m	c #4B8CEB",
"n	c #4C8CEB",
"     ..         ",
"   ..++.        ",
"  .+@@.         ",
" .+@@#+.        ",
"  ..@+#.        ",
"    .+++...     ",
"    .++++$$..   ",
"    .%&*=-;>,.  ",
"    .')!~{]^,.  ",
"   ./(_:<[}}}|. ",
"   .1234567}}8. ",
"   .90abc7}}de. ",
"    .fgh^}}}d.  ",
"    .6ijk}ddl.  ",
"     ..8mn|..   ",
"       ....     "};
