/* XPM */
static char * run_part5_xpm[] = {
"16 16 42 1",
" 	c None",
".	c #000000",
"+	c #F2F2F2",
"@	c #C9D8E8",
"#	c #C0D6EA",
"$	c #CEDBE5",
"%	c #D3E0EA",
"&	c #EDF4F9",
"*	c #A5C4E2",
"=	c #549CF6",
"-	c #88D5FF",
";	c #87D4FF",
">	c #74BDFF",
",	c #5997EE",
"'	c #5698EF",
")	c #3873D8",
"!	c #4684E2",
"~	c #579EF8",
"{	c #8FE5FF",
"]	c #8DDFFF",
"^	c #6EB7FE",
"/	c #5FA6FA",
"(	c #427EDF",
"_	c #407BDB",
":	c #4886E5",
"<	c #4D8EEB",
"[	c #67BAFF",
"}	c #80D0FF",
"|	c #5296F3",
"1	c #4686E8",
"2	c #427CDA",
"3	c #4887E6",
"4	c #4287EF",
"5	c #70C1FF",
"6	c #4C92F3",
"7	c #3A77DD",
"8	c #4D96FA",
"9	c #458BF2",
"0	c #3975DA",
"a	c #4B89E9",
"b	c #4B8CEB",
"c	c #4C8CEB",
"     ..         ",
"   ..++.        ",
"  .+@@.         ",
" .+@@#+.        ",
"  ..@+#.        ",
"    .+++...     ",
"    .++++$$..   ",
"    .%+++&*@@.  ",
"    .$+++&#*@.  ",
"   .=-;>,')))!. ",
"   .~{]^/(_)):. ",
"   .<[}|1_))23. ",
"    .4567)))2.  ",
"    .(890)22a.  ",
"     ..:bc!..   ",
"       ....     "};
