/* XPM */
static char * run_part8_xpm[] = {
"16 16 63 1",
" 	c None",
".	c #000000",
"+	c #F2F2F2",
"@	c #C9D8E8",
"#	c #C0D6EA",
"$	c #4580DF",
"%	c #5C9EF3",
"&	c #498CED",
"*	c #65ABFA",
"=	c #69AEFE",
"-	c #4E88DF",
";	c #62A5F9",
">	c #6DB4FE",
",	c #5FA3F6",
"'	c #5692EA",
")	c #4984E2",
"!	c #4781DE",
"~	c #569BF7",
"{	c #80CEFF",
"]	c #71BBFE",
"^	c #5B99F1",
"/	c #599CF2",
"(	c #3E80E6",
"_	c #4D8EEE",
":	c #7DD2FF",
"<	c #91E6FF",
"[	c #83D0FF",
"}	c #538FE7",
"|	c #528FEA",
"1	c #427FE0",
"2	c #3A77DD",
"3	c #549CF6",
"4	c #88D5FF",
"5	c #87D4FF",
"6	c #74BDFF",
"7	c #5997EE",
"8	c #5698EF",
"9	c #3873D8",
"0	c #4684E2",
"a	c #579EF8",
"b	c #8FE5FF",
"c	c #8DDFFF",
"d	c #6EB7FE",
"e	c #5FA6FA",
"f	c #427EDF",
"g	c #407BDB",
"h	c #4886E5",
"i	c #4D8EEB",
"j	c #67BAFF",
"k	c #80D0FF",
"l	c #5296F3",
"m	c #4686E8",
"n	c #427CDA",
"o	c #4887E6",
"p	c #4287EF",
"q	c #70C1FF",
"r	c #4C92F3",
"s	c #4D96FA",
"t	c #458BF2",
"u	c #3975DA",
"v	c #4B89E9",
"w	c #4B8CEB",
"x	c #4C8CEB",
"     ..         ",
"   ..++.        ",
"  .+@@.         ",
" .+@@#+.        ",
"  ..$%&.        ",
"    .*=-...     ",
"    .;>,')!..   ",
"    .~{]^/(_$.  ",
"    .:<[}|12$.  ",
"   .3456789990. ",
"   .abcdefg99h. ",
"   .ijklmg99no. ",
"    .pqr2999n.  ",
"    .fstu9nnv.  ",
"     ..hwx0..   ",
"       ....     "};
