/* XPM */
static char * run_part6_xpm[] = {
"16 16 49 1",
" 	c None",
".	c #000000",
"+	c #F2F2F2",
"@	c #C9D8E8",
"#	c #C0D6EA",
"$	c #CEDBE5",
"%	c #D3E0EA",
"&	c #EDF4F9",
"*	c #A5C4E2",
"=	c #7DD2FF",
"-	c #91E6FF",
";	c #83D0FF",
">	c #538FE7",
",	c #528FEA",
"'	c #427FE0",
")	c #3A77DD",
"!	c #4580DF",
"~	c #549CF6",
"{	c #88D5FF",
"]	c #87D4FF",
"^	c #74BDFF",
"/	c #5997EE",
"(	c #5698EF",
"_	c #3873D8",
":	c #4684E2",
"<	c #579EF8",
"[	c #8FE5FF",
"}	c #8DDFFF",
"|	c #6EB7FE",
"1	c #5FA6FA",
"2	c #427EDF",
"3	c #407BDB",
"4	c #4886E5",
"5	c #4D8EEB",
"6	c #67BAFF",
"7	c #80D0FF",
"8	c #5296F3",
"9	c #4686E8",
"0	c #427CDA",
"a	c #4887E6",
"b	c #4287EF",
"c	c #70C1FF",
"d	c #4C92F3",
"e	c #4D96FA",
"f	c #458BF2",
"g	c #3975DA",
"h	c #4B89E9",
"i	c #4B8CEB",
"j	c #4C8CEB",
"     ..         ",
"   ..++.        ",
"  .+@@.         ",
" .+@@#+.        ",
"  ..@+#.        ",
"    .+++...     ",
"    .++++$$..   ",
"    .%+++&*@@.  ",
"    .=-;>,')!.  ",
"   .~{]^/(___:. ",
"   .<[}|123__4. ",
"   .567893__0a. ",
"    .bcd)___0.  ",
"    .2efg_00h.  ",
"     ..4ij:..   ",
"       ....     "};
