/* XPM */
static char * run_bad6_xpm[] = {
"16 16 53 1",
" 	c None",
".	c #000000",
"+	c #F2F2F2",
"@	c #C9D8E8",
"#	c #C0D6EA",
"$	c #CEDBE5",
"%	c #E75F79",
"&	c #D3E0EA",
"*	c #EDF4F9",
"=	c #A5C4E2",
"-	c #FC6F8D",
";	c #7DD2FF",
">	c #91E6FF",
",	c #83D0FF",
"'	c #538FE7",
")	c #528FEA",
"!	c #427FE0",
"~	c #3A77DD",
"{	c #4580DF",
"]	c #DF5871",
"^	c #CC4A62",
"/	c #87D4FF",
"(	c #74BDFF",
"_	c #5997EE",
":	c #5698EF",
"<	c #3873D8",
"[	c #4684E2",
"}	c #D34F67",
"|	c #C14156",
"1	c #B03547",
"2	c #6EB7FE",
"3	c #5FA6FA",
"4	c #427EDF",
"5	c #407BDB",
"6	c #4886E5",
"7	c #BD3F54",
"8	c #B83B50",
"9	c #80D0FF",
"0	c #5296F3",
"a	c #4686E8",
"b	c #427CDA",
"c	c #4887E6",
"d	c #A82F41",
"e	c #A72D3F",
"f	c #4287EF",
"g	c #70C1FF",
"h	c #4C92F3",
"i	c #4D96FA",
"j	c #458BF2",
"k	c #3975DA",
"l	c #4B89E9",
"m	c #4B8CEB",
"n	c #4C8CEB",
"     ..         ",
"   ..++.        ",
"  .+@@.         ",
" .+@@#+.        ",
"  ..@+#.        ",
"    .+++...     ",
"  . .++++$$..   ",
" .%..&+++*=@@.  ",
" .-%.;>,')!~{.  ",
" .%]^./(_:<<<[. ",
" .}^|1.2345<<6. ",
" .781.90a5<<bc. ",
" .de.fgh~<<<b.  ",
" .e..4ijk<bbl.  ",
"  .  ..6mn[..   ",
"       ....     "};
