/* XPM */
static char * run_part3_xpm[] = {
"16 16 31 1",
" 	c None",
".	c #000000",
"+	c #F2F2F2",
"@	c #C9D8E8",
"#	c #C0D6EA",
"$	c #CEDBE5",
"%	c #D3E0EA",
"&	c #EDF4F9",
"*	c #A5C4E2",
"=	c #4D8EEB",
"-	c #67BAFF",
";	c #80D0FF",
">	c #5296F3",
",	c #4686E8",
"'	c #407BDB",
")	c #3873D8",
"!	c #427CDA",
"~	c #4887E6",
"{	c #4287EF",
"]	c #70C1FF",
"^	c #4C92F3",
"/	c #3A77DD",
"(	c #427EDF",
"_	c #4D96FA",
":	c #458BF2",
"<	c #3975DA",
"[	c #4B89E9",
"}	c #4886E5",
"|	c #4B8CEB",
"1	c #4C8CEB",
"2	c #4684E2",
"     ..         ",
"   ..++.        ",
"  .+@@.         ",
" .+@@#+.        ",
"  ..@+#.        ",
"    .+++...     ",
"    .++++$$..   ",
"    .%+++&*@@.  ",
"    .$+++&#*@.  ",
"   .$++++&***@. ",
"   .$&++&##**@. ",
"   .=-;>,'))!~. ",
"    .{]^/)))!.  ",
"    .(_:<)!![.  ",
"     ..}|12..   ",
"       ....     "};
