/* XPM */
static char * runmini_xpm[] = {
"10 10 54 1",
" 	c None",
".	c #121312",
"+	c #1B1C1B",
"@	c #454644",
"#	c #B6B9B5",
"$	c #6A6F68",
"%	c #000000",
"&	c #484848",
"*	c #F7FAF7",
"=	c #E7ECE5",
"-	c #C2C9C1",
";	c #4C4F4B",
">	c #141614",
",	c #F7F9F7",
"'	c #F0F4EF",
")	c #EDF2EC",
"!	c #B5BEB3",
"~	c #5D625C",
"{	c #131413",
"]	c #5E5E5E",
"^	c #F5F8F5",
"/	c #EFF2EE",
"(	c #E7EDE5",
"_	c #DFE8DD",
":	c #DAE5D8",
"<	c #AFB5AD",
"[	c #485146",
"}	c #2C3529",
"|	c #8FB285",
"1	c #84AA7C",
"2	c #84A87A",
"3	c #799F70",
"4	c #6D8F64",
"5	c #425E3B",
"6	c #172415",
"7	c #2B3528",
"8	c #8EB183",
"9	c #83A979",
"0	c #7FA375",
"a	c #6E9363",
"b	c #4C6C44",
"c	c #1F2C1D",
"d	c #040503",
"e	c #293326",
"f	c #84A97A",
"g	c #6A9061",
"h	c #45663D",
"i	c #192615",
"j	c #070B06",
"k	c #1D281A",
"l	c #4A6743",
"m	c #1E2F1A",
"n	c #050804",
"o	c #070C06",
".+        ",
"@#$%      ",
"&*=-;>    ",
"&,'))!~{  ",
"]^/)(_:<[%",
"}|1123456%",
"7890abcd  ",
"efghij    ",
"klm%      ",
"no        "};
