/* XPM */
static char * runmini_xpm[] = {
"10 10 16 1",
" 	c None",
".	c #000000",
"+	c #FFFF1A",
"@	c #FFFF18",
"#	c #EDF917",
"$	c #F3FB19",
"%	c #B6E517",
"&	c #8DD018",
"*	c #B1E016",
"=	c #68C119",
"-	c #43B21B",
";	c #45B81B",
">	c #27D725",
",	c #44B51B",
"'	c #2AE327",
")	c #28D925",
"  ..      ",
"  .+.     ",
"  .@#.    ",
"  .$%&.   ",
"  .*&=-.  ",
"  .&=;>.  ",
"  .=,'.   ",
"  .,>.    ",
"  .).     ",
"  ..      "};
