/* XPM */
static char * save_xpm[] = {
"24 24 151 2",
"  	c None",
". 	c #080808",
"+ 	c #1F2828",
"@ 	c #7EABAB",
"# 	c #7DABAB",
"$ 	c #090909",
"% 	c #151515",
"& 	c #86B7B7",
"* 	c #7FACAC",
"= 	c #7CA9A9",
"- 	c #7AA6A6",
"; 	c #77A2A2",
"> 	c #080909",
", 	c #0B0B0B",
"' 	c #1E1E1E",
") 	c #D9D9D9",
"! 	c #D2D2D2",
"~ 	c #8CB4B4",
"{ 	c #7FADAD",
"] 	c #7DAAAA",
"^ 	c #78A3A3",
"/ 	c #131818",
"( 	c #0A0A0A",
"_ 	c #101010",
": 	c #E5E5E5",
"< 	c #DDDDDD",
"[ 	c #DBDBDB",
"} 	c #D7D7D7",
"| 	c #D4D4D4",
"1 	c #A8C0C0",
"2 	c #80AEAE",
"3 	c #7BA7A7",
"4 	c #78A4A4",
"5 	c #608383",
"6 	c #0E0F0F",
"7 	c #94CACA",
"8 	c #94C9C9",
"9 	c #C2D9D9",
"0 	c #A4A4A4",
"a 	c #686868",
"b 	c #DCDCDC",
"c 	c #D8D8D8",
"d 	c #D5D5D5",
"e 	c #C4CCCC",
"f 	c #80AFAF",
"g 	c #76A1A1",
"h 	c #0F1313",
"i 	c #0E1010",
"j 	c #92C7C7",
"k 	c #95CBCB",
"l 	c #98CFCF",
"m 	c #A4CECE",
"n 	c #C8C8C8",
"o 	c #161616",
"p 	c #B7C6C6",
"q 	c #87B1B1",
"r 	c #7BA8A8",
"s 	c #3E5353",
"t 	c #070707",
"u 	c #0D0F0F",
"v 	c #D1DDDD",
"w 	c #C7C7C7",
"x 	c #CDD6D6",
"y 	c #ADC7C7",
"z 	c #8DB8B8",
"A 	c #83B2B2",
"B 	c #739D9D",
"C 	c #90C5C5",
"D 	c #93C8C8",
"E 	c #90C4C4",
"F 	c #A3CACA",
"G 	c #000000",
"H 	c #87B8B8",
"I 	c #85B5B5",
"J 	c #8FAFAF",
"K 	c #A6B5B5",
"L 	c #87A7A7",
"M 	c #222D2D",
"N 	c #8EC2C2",
"O 	c #8DC0C0",
"P 	c #FFFFFF",
"Q 	c #84B3B3",
"R 	c #A4BBBB",
"S 	c #BCC2C2",
"T 	c #C3C3C3",
"U 	c #BFBFBF",
"V 	c #9FB0B0",
"W 	c #729C9C",
"X 	c #77A3A3",
"Y 	c #8CBFBF",
"Z 	c #8BBDBD",
"` 	c #CDCDCD",
" .	c #C9C9C9",
"..	c #C5C5C5",
"+.	c #C2C2C2",
"@.	c #BDBDBD",
"#.	c #B8B8B8",
"$.	c #759C9C",
"%.	c #6F9898",
"&.	c #0B0C0C",
"*.	c #C0C0C0",
"=.	c #BCBCBC",
"-.	c #8CA5A5",
";.	c #6F9797",
">.	c #578584",
",.	c #0C1212",
"'.	c #BEBEBE",
").	c #BABABA",
"!.	c #B6B6B6",
"~.	c #A2ADAD",
"{.	c #6E9595",
"].	c #3C6868",
"^.	c #B4B4B4",
"/.	c #B1B1B1",
"(.	c #799898",
"_.	c #4A7574",
":.	c #272727",
"<.	c #BBBBBB",
"[.	c #B9B9B9",
"}.	c #B2B2B2",
"|.	c #AFAFAF",
"1.	c #8FA0A0",
"2.	c #578080",
"3.	c #366060",
"4.	c #B7B7B7",
"5.	c #B3B3B3",
"6.	c #ADADAD",
"7.	c #A3A7A7",
"8.	c #366161",
"9.	c #355F5F",
"0.	c #83B3B3",
"a.	c #95A8A8",
"b.	c #242424",
"c.	c #AEAEAE",
"d.	c #8F8F8F",
"e.	c #9D9D9D",
"f.	c #161C1C",
"g.	c #87ABAB",
"h.	c #FCFCFC",
"i.	c #939393",
"j.	c #898989",
"k.	c #909090",
"l.	c #979797",
"m.	c #719B9B",
"n.	c #6B8483",
"o.	c #9C9C9C",
"p.	c #8C8C8C",
"q.	c #0A0C0C",
"r.	c #3B6B6A",
"s.	c #3B6A6A",
"t.	c #8B8B8B",
"                                                ",
"                              . .               ",
"                        . . + @ # .             ",
"                    $ % & * = - ; >             ",
"              $ , ' ) ! ~ { ] - ^ /             ",
"        ( ( _ : < [ } | 1 2 ] 3 4 5 .           ",
"    ( 6 7 8 9 0 a b c d e f @ 3 4 g h           ",
"  i j k l k m n o b c d p q @ r 4 g s t         ",
"  u j 8 k 8 j v w x y z A f @ 3 4 g B t         ",
"  $ C j D j E F G G H I A 2 ] J K L B t         ",
"    M E E E N O G P G Q ~ R S T U V W X t       ",
"    $ O O O Y Z G P P G `  ...+.@.#.$.%.&.      ",
"  G G G G G G G G P P P G w T *.=.#.-.;.>.,.    ",
"  G P P P P P P P P P P P G +.'.).!.~.{.].t     ",
"  G P P P P P P P P P P P P G =.#.^./.(._.t     ",
"  G P P P P P P P P P P P :.<.[.!.}.|.1.2.3.t   ",
"  G G G G G G G G P P P G #.).4.5./.6.7.8.9.t   ",
"        . 0.] a.b.P P G @.).4.^./.c.d.e.t t     ",
"          f.3 g.G h.G =.[.4.^.i.j.i.t o         ",
"          . - ^ G G ).#.c.k.l.t t t             ",
"          . 2 m.n.#.o.p.e.t t                   ",
"            q.r.s.t.t t t                       ",
"              t t t                             ",
"                                                "};
