/* XPM */
static char * save_xpm[] = {
"24 24 129 2",
"  	c None",
". 	c #000000",
"+ 	c #E6FFFF",
"@ 	c #ABFBFB",
"# 	c #FCFFEF",
"$ 	c #F9FFE0",
"% 	c #AAFFFF",
"& 	c #8CFFFF",
"* 	c #6EE1E9",
"= 	c #5CBCD2",
"- 	c #FFFFFF",
"; 	c #F7FFD0",
"> 	c #F4FFC1",
", 	c #7DFFFF",
"' 	c #94F0FB",
") 	c #9AF3FC",
"! 	c #61C6DC",
"~ 	c #E7FFFF",
"{ 	c #F1FFB1",
"] 	c #97F1FB",
"^ 	c #9DF4FC",
"/ 	c #EBFFFF",
"( 	c #E5FFFF",
"_ 	c #B7FFFF",
": 	c #7CFDFE",
"< 	c #99F2FC",
"[ 	c #9FF5FD",
"} 	c #69D8F0",
"| 	c #6BDBF4",
"1 	c #6EDDF5",
"2 	c #8BEBF9",
"3 	c #91EEFA",
"4 	c #9CF3FC",
"5 	c #A2F6FD",
"6 	c #A3F7FD",
"7 	c #64CCE4",
"8 	c #91FFFF",
"9 	c #70DEF5",
"0 	c #76E1F6",
"a 	c #82E6F8",
"b 	c #87E9F9",
"c 	c #8DECFA",
"d 	c #93EFFB",
"e 	c #F4FEFF",
"f 	c #A9FAFF",
"g 	c #92FFFF",
"h 	c #79E2F6",
"i 	c #7FE5F7",
"j 	c #85E8F8",
"k 	c #8AEBF9",
"l 	c #90EDFA",
"m 	c #95F0FB",
"n 	c #F3FDFE",
"o 	c #F5FEFF",
"p 	c #A8F9FE",
"q 	c #FFFCFC",
"r 	c #F9BBBB",
"s 	c #81E6F8",
"t 	c #F1FCFE",
"u 	c #F2FDFE",
"v 	c #7E85EA",
"w 	c #60C5DB",
"x 	c #FFECEC",
"y 	c #FFEAEA",
"z 	c #F7AAAA",
"A 	c #F5A2A2",
"B 	c #F1FDFE",
"C 	c #FFE0E0",
"D 	c #FED1D1",
"E 	c #F39595",
"F 	c #F39191",
"G 	c #F39090",
"H 	c #F3FDFF",
"I 	c #67D2EA",
"J 	c #FFDEDE",
"K 	c #FDB4B4",
"L 	c #F28D8D",
"M 	c #F28585",
"N 	c #F18080",
"O 	c #F17E7E",
"P 	c #EDFDFE",
"Q 	c #E3FAFE",
"R 	c #5BBBD1",
"S 	c #5DBED3",
"T 	c #62C8DF",
"U 	c #FFD3D3",
"V 	c #FFB5B5",
"W 	c #F28A8A",
"X 	c #F07474",
"Y 	c #EF6E6E",
"Z 	c #EF6C6C",
"` 	c #F17F7F",
" .	c #E9FBFE",
"..	c #D3E0E3",
"+.	c #C5D0D3",
"@.	c #B0BBBE",
"#.	c #C3D0D2",
"$.	c #EF7070",
"%.	c #ED5D5D",
"&.	c #ED5A5A",
"*.	c #F3FEFF",
"=.	c #D9E5E8",
"-.	c #D8E4E7",
";.	c #B1BDC0",
">.	c #C0CBCE",
",.	c #FD7474",
"'.	c #ED5757",
").	c #EB4848",
"!.	c #CAD6D9",
"~.	c #BEC9CC",
"{.	c #B8C4C7",
"].	c #FF6C6C",
"^.	c #EC4C4C",
"/.	c #EA3E3E",
"(.	c #FE4545",
"_.	c #59B7CC",
":.	c #FF6969",
"<.	c #EE3838",
"[.	c #FF4F4F",
"}.	c #FF7E7E",
"|.	c #F64545",
"1.	c #FF5757",
"2.	c #FF8888",
"3.	c #FC5B5B",
"4.	c #FE5858",
"5.	c #FF8383",
"6.	c #EE6565",
"7.	c #FC6C6C",
"8.	c #FF6B6B",
"                                                ",
"                              . .               ",
"                        . . . + @ .             ",
"                  . . . # $ % & * = .           ",
"            . . . - # $ ; > , ' ) ! .           ",
"        . . ~ - # $ ; > { { { ] ^ = .           ",
"      . / ( _ : ; > { { { { { < [ } } .         ",
"        . , | 1 { { { { 2 3 ] 4 5 6 7 .         ",
"        . 8 | 9 0 { a b c d < [ e f } 7 .       ",
"        . g . . h i j k l m n e e o p 7 .       ",
"          . q r . s b t u n - v v o f | w .     ",
"        . x y z A . t B v v v e o o o f 7 .     ",
"      . C D E F G F . v u H e - v v o f I .     ",
"    . J K L M N O N M . n v v v o P Q R S T .   ",
"  . U V W O X Y Z Y ` O . e e  ...+.@.#.. .     ",
"    . . . $.$.%.&.. . . *.=.-.;.>.. . .         ",
"        . ,.'.'.).. w !.~.{.. . .               ",
"        . ].^./.(.. _.. . .                     ",
"        . :.).<.[.. .                           ",
"        . }.^.|.1..                             ",
"        . 2.'.3.4..                             ",
"        . 5.6.7.8..                             ",
"          . . . .                               ",
"                                                "};
