/* XPM */
static char * save_xpm[] = {
"24 24 171 2",
"  	c None",
". 	c #080808",
"+ 	c #1F2828",
"@ 	c #7EABAB",
"# 	c #7DABAB",
"$ 	c #090909",
"% 	c #151515",
"& 	c #86B7B7",
"* 	c #7FACAC",
"= 	c #7CA9A9",
"- 	c #7AA6A6",
"; 	c #77A2A2",
"> 	c #080909",
", 	c #0B0B0B",
"' 	c #1E1E1E",
") 	c #D9D9D9",
"! 	c #D2D2D2",
"~ 	c #8CB4B4",
"{ 	c #7FADAD",
"] 	c #7DAAAA",
"^ 	c #78A3A3",
"/ 	c #131818",
"( 	c #0A0A0A",
"_ 	c #101010",
": 	c #E5E5E5",
"< 	c #DDDDDD",
"[ 	c #DBDBDB",
"} 	c #D7D7D7",
"| 	c #D4D4D4",
"1 	c #A8C0C0",
"2 	c #80AEAE",
"3 	c #7BA7A7",
"4 	c #78A4A4",
"5 	c #608383",
"6 	c #0E0F0F",
"7 	c #94CACA",
"8 	c #94C9C9",
"9 	c #C2D9D9",
"0 	c #A4A4A4",
"a 	c #686868",
"b 	c #DCDCDC",
"c 	c #D8D8D8",
"d 	c #D5D5D5",
"e 	c #C4CCCC",
"f 	c #80AFAF",
"g 	c #76A1A1",
"h 	c #0F1313",
"i 	c #0E1010",
"j 	c #92C7C7",
"k 	c #95CBCB",
"l 	c #98CFCF",
"m 	c #A4CECE",
"n 	c #C8C8C8",
"o 	c #161616",
"p 	c #B7C6C6",
"q 	c #87B1B1",
"r 	c #7BA8A8",
"s 	c #3E5353",
"t 	c #070707",
"u 	c #0D0F0F",
"v 	c #D1DDDD",
"w 	c #C7C7C7",
"x 	c #CDD6D6",
"y 	c #ADC7C7",
"z 	c #8DB8B8",
"A 	c #83B2B2",
"B 	c #739D9D",
"C 	c #90C5C5",
"D 	c #93C8C8",
"E 	c #90C4C4",
"F 	c #A3CACA",
"G 	c #9FC6C6",
"H 	c #8ABCBC",
"I 	c #87B8B8",
"J 	c #85B5B5",
"K 	c #8FAFAF",
"L 	c #A6B5B5",
"M 	c #87A7A7",
"N 	c #222D2D",
"O 	c #8EC2C2",
"P 	c #8DC0C0",
"Q 	c #8BBDBD",
"R 	c #89BABA",
"S 	c #84B3B3",
"T 	c #A4BBBB",
"U 	c #BCC2C2",
"V 	c #C3C3C3",
"W 	c #BFBFBF",
"X 	c #9FB0B0",
"Y 	c #729C9C",
"Z 	c #77A3A3",
"` 	c #8CBFBF",
" .	c #89BBBB",
"..	c #A0C0C0",
"+.	c #BAC7C7",
"@.	c #CDCDCD",
"#.	c #C9C9C9",
"$.	c #C5C5C5",
"%.	c #C2C2C2",
"&.	c #BDBDBD",
"*.	c #B8B8B8",
"=.	c #759C9C",
"-.	c #6F9898",
";.	c #0B0C0C",
">.	c #99C0C0",
",.	c #B5CACA",
"'.	c #CED2D2",
").	c #CECECE",
"!.	c #CACACA",
"~.	c #C0C0C0",
"{.	c #BCBCBC",
"].	c #8CA5A5",
"^.	c #6F9797",
"/.	c #578584",
"(.	c #0C1212",
"_.	c #121515",
":.	c #88B9B9",
"<.	c #8BBBBB",
"[.	c #C6D0D0",
"}.	c #D6D6D6",
"|.	c #CFCFCF",
"1.	c #CBCBCB",
"2.	c #C4C4C4",
"3.	c #BEBEBE",
"4.	c #BABABA",
"5.	c #B6B6B6",
"6.	c #A2ADAD",
"7.	c #6E9595",
"8.	c #3C6868",
"9.	c #86B6B6",
"0.	c #BACACA",
"a.	c #D0D0D0",
"b.	c #B4B4B4",
"c.	c #B1B1B1",
"d.	c #799898",
"e.	c #4A7574",
"f.	c #2B3838",
"g.	c #9BBBBB",
"h.	c #B9B9B9",
"i.	c #B2B2B2",
"j.	c #AFAFAF",
"k.	c #8FA0A0",
"l.	c #578080",
"m.	c #366060",
"n.	c #C3C7C7",
"o.	c #B7B7B7",
"p.	c #B3B3B3",
"q.	c #ADADAD",
"r.	c #A3A7A7",
"s.	c #366161",
"t.	c #355F5F",
"u.	c #83B3B3",
"v.	c #A4B9B9",
"w.	c #AEAEAE",
"x.	c #8F8F8F",
"y.	c #9D9D9D",
"z.	c #161C1C",
"A.	c #87ABAB",
"B.	c #939393",
"C.	c #898989",
"D.	c #ACB6B6",
"E.	c #909090",
"F.	c #979797",
"G.	c #719B9B",
"H.	c #809E9D",
"I.	c #9C9C9C",
"J.	c #8C8C8C",
"K.	c #0A0C0C",
"L.	c #3B6B6A",
"M.	c #3B6A6A",
"N.	c #8B8B8B",
"                                                ",
"                              . .               ",
"                        . . + @ # .             ",
"                    $ % & * = - ; >             ",
"              $ , ' ) ! ~ { ] - ^ /             ",
"        ( ( _ : < [ } | 1 2 ] 3 4 5 .           ",
"    ( 6 7 8 9 0 a b c d e f @ 3 4 g h           ",
"  i j k l k m n o b c d p q @ r 4 g s t         ",
"  u j 8 k 8 j v w x y z A f @ 3 4 g B t         ",
"  $ C j D j E F G H I J A 2 ] K L M B t         ",
"    N E E E O P Q R & S ~ T U V W X Y Z t       ",
"    $ P P P ` Q  .I ..+.@.#.$.%.&.*.=.-.;.      ",
"    $ P Q H H >.,.'.! ).!.w V ~.{.*.].^./.(.    ",
"      _.:.<.[.}.| ! |.1.n 2.%.3.4.5.6.7.8.t     ",
"      $ I 9.0.! a.).1.n $.V W {.*.b.c.d.e.t     ",
"        f.A g.).@.!.n $.V ~.&.h.5.i.j.k.l.m.t   ",
"        $ f 2 n.#.w 2.V ~.&.4.o.p.c.q.r.s.t.t   ",
"        . u.] v.$.V %.W &.4.o.b.c.w.x.y.t t     ",
"          z.3 A.%.~.3.{.h.o.b.B.C.B.t o         ",
"          . - ^ D.{.4.*.w.E.F.t t t             ",
"          . 2 G.H.*.I.J.y.t t                   ",
"            K.L.M.N.t t t                       ",
"              t t t                             ",
"                                                "};
