/* XPM */
static char * speed1_xpm[] = {
"24 24 130 2",
"  	c None",
". 	c #0C0C0C",
"+ 	c #B6A799",
"@ 	c #D5ACAA",
"# 	c #D7A2A2",
"$ 	c #D29797",
"% 	c #C88987",
"& 	c #A2796B",
"* 	c #D7CAC3",
"= 	c #E8CAC9",
"- 	c #D39898",
"; 	c #C47575",
"> 	c #B33C3C",
", 	c #B2393C",
"' 	c #BD6666",
") 	c #C06D6D",
"! 	c #C37272",
"~ 	c #AE6863",
"{ 	c #F3E4E4",
"] 	c #E0B9B9",
"^ 	c #BE6B6B",
"/ 	c #A71616",
"( 	c #AB1E1E",
"_ 	c #AD2828",
": 	c #B02F2F",
"< 	c #B03737",
"[ 	c #B75656",
"} 	c #BC6361",
"| 	c #B85B5B",
"1 	c #414140",
"2 	c #F6EBEC",
"3 	c #DEB1B1",
"4 	c #A91E1E",
"5 	c #AC2323",
"6 	c #AF2E2E",
"7 	c #B23737",
"8 	c #B34040",
"9 	c #B74848",
"0 	c #B65151",
"a 	c #B65555",
"b 	c #B85757",
"c 	c #DCD6CF",
"d 	c #E4C1C2",
"e 	c #AC2525",
"f 	c #B74646",
"g 	c #B65353",
"h 	c #BB6060",
"i 	c #B64F4F",
"j 	c #AA4641",
"k 	c #EED8D7",
"l 	c #C16E6E",
"m 	c #B33E3E",
"n 	c #B74A4A",
"o 	c #B75858",
"p 	c #BC6363",
"q 	c #BF6A6A",
"r 	c #C26F6F",
"s 	c #C37676",
"t 	c #C57878",
"u 	c #B13838",
"v 	c #BBB3A4",
"w 	c #D7A3A2",
"x 	c #B85959",
"y 	c #C88181",
"z 	c #CB8686",
"A 	c #CC8989",
"B 	c #CD8A8A",
"C 	c #A44A43",
"D 	c #DCBAB9",
"E 	c #C77C7E",
"F 	c #C27171",
"G 	c #C77C7C",
"H 	c #CE8F8F",
"I 	c #D29595",
"J 	c #D39A98",
"K 	c #D49B9B",
"L 	c #AB2828",
"M 	c #B43F3F",
"N 	c #A92020",
"O 	c #D19494",
"P 	c #D49D9D",
"Q 	c #D8A5A5",
"R 	c #DAA9A9",
"S 	c #DAABAB",
"T 	c #CC8789",
"U 	c #B43D40",
"V 	c #D7A0A0",
"W 	c #DEB3B3",
"X 	c #E0B9BA",
"Y 	c #E2BBBC",
"Z 	c #D09192",
"` 	c #A81919",
" .	c #CD9694",
"..	c #C06B6B",
"+.	c #AF2A2A",
"@.	c #E0B7B8",
"#.	c #E5C2C3",
"$.	c #E7C8C8",
"%.	c #E9CCCC",
"&.	c #A81D1D",
"*.	c #A88475",
"=.	c #C47577",
"-.	c #AA1B1B",
";.	c #EACFCF",
">.	c #EED9DA",
",.	c #F0DDDD",
"'.	c #B64343",
").	c #B14B48",
"!.	c #B54242",
"~.	c #BF6868",
"{.	c #F4E5E6",
"].	c #CE8D8D",
"^.	c #B1726C",
"/.	c #AF3232",
"(.	c #BE6969",
"_.	c #C67A7A",
":.	c #F3E4E5",
"<.	c #BB5E5E",
"[.	c #EBD0D2",
"}.	c #C98082",
"|.	c #AA4C45",
"1.	c #B64D4D",
"2.	c #BA5F5F",
"3.	c #AA302D",
"4.	c #9E4A3F",
"5.	c #AC2F2F",
"6.	c #AD2626",
"7.	c #AB2020",
"8.	c #A71E1E",
"9.	c #A6453D",
"                                                ",
"                                                ",
"                  . . . . . .                   ",
"              . . + @ # $ % & . .               ",
"            . * = - ; > , ' ) ! ~ .             ",
"          . { ] ^ / / ( _ : < [ } | .           ",
"        1 2 3 4 / / 5 6 7 8 9 0 a b 9 .         ",
"      . c d 4 / / e : > f g | h ' ' i j .       ",
"      . k l / / 5 : m n o p q r s t p u .       ",
"    . v w / / ( 6 > n x ' r t y z A B f C .     ",
"    . D E / / _ 7 f o ' F G z H I J K | L .     ",
"    . 3 M / N : 8 g p r G A O P Q R S T N .     ",
"    . Q U / e < 9 | q t z O V S W X Y Z ` .     ",
"    .  ...` +.> 0 h r y H P S @.#.$.%.p &..     ",
"    . *.=.-.6 8 a ' s z I Q W #.;.>.,.'.)..     ",
"      . y g : !.[ ~.t A J R X $.>.{.]./ .       ",
"      . ^.../.'.o (._.B K S Y %.,.:.u /..       ",
"        . ' <.!.[ ~.t A J R X $.[.9 / .         ",
"          . o [ | ' s z I Q W }.7 / .           ",
"            . |.!.1.b F G 2.'./ 3..             ",
"              . . 4.5.6.7.8.9.. .               ",
"                  . . . . . .                   ",
"                                                ",
"                                                "};
