/* XPM */
static char * speed3_xpm[] = {
"24 24 139 2",
"  	c None",
". 	c #0B0B0B",
"+ 	c #ABC09F",
"@ 	c #BCCCB3",
"# 	c #B7C9AE",
"$ 	c #ACC2A3",
"% 	c #9FB893",
"& 	c #89A679",
"* 	c #CEDAC7",
"= 	c #D4DFD0",
"- 	c #AFC3A4",
"; 	c #95AF86",
"> 	c #6C9556",
", 	c #699255",
"' 	c #88A679",
") 	c #8DAA7F",
"! 	c #92AE85",
"~ 	c #83A374",
"{ 	c #E9EEE7",
"] 	c #C8D6C1",
"^ 	c #8AA87B",
"/ 	c #528338",
"( 	c #57863D",
"_ 	c #5D8A45",
": 	c #628F4C",
"< 	c #679152",
"[ 	c #7D9E6D",
"} 	c #86A475",
"| 	c #7FA06F",
"1 	c #F0F3EE",
"2 	c #C3D2BB",
"3 	c #588841",
"4 	c #628D4A",
"5 	c #699352",
"6 	c #6E975A",
"7 	c #749A5F",
"8 	c #799C65",
"9 	c #7B9D6A",
"0 	c #7E9E6D",
"a 	c #759B60",
"b 	c #D7E1D2",
"c 	c #CEDAC9",
"d 	c #5A8742",
"e 	c #648F4C",
"f 	c #73995E",
"g 	c #7B9D68",
"h 	c #80A06F",
"i 	c #85A475",
"j 	c #769B64",
"k 	c #6D9659",
"l 	c #E1E8DD",
"m 	c #8EAB80",
"n 	c #6C9558",
"o 	c #759A61",
"p 	c #86A576",
"q 	c #8BA87B",
"r 	c #90AC81",
"s 	c #94AF86",
"t 	c #97B18A",
"u 	c #87A576",
"v 	c #689253",
"w 	c #324627",
"x 	c #B4C7AA",
"y 	c #7F9F6E",
"z 	c #8FAC81",
"A 	c #9CB590",
"B 	c #A3BA97",
"C 	c #A4BB98",
"D 	c #C6D5C0",
"E 	c #9AB38E",
"F 	c #91AD82",
"G 	c #9AB48D",
"H 	c #A0B895",
"I 	c #A9BE9D",
"J 	c #ADC1A2",
"K 	c #B0C4A5",
"L 	c #B1C4A7",
"M 	c #80A170",
"N 	c #5C8944",
"O 	c #C2D1BA",
"P 	c #6F9659",
"Q 	c #56873E",
"R 	c #ABC1A2",
"S 	c #B3C6A9",
"T 	c #B9CAAF",
"U 	c #BCCDB4",
"V 	c #BECEB5",
"W 	c #A1B996",
"X 	c #58873E",
"Y 	c #5B8843",
"Z 	c #B6C8AD",
"` 	c #C4D3BC",
" .	c #C9D7C3",
"..	c #CAD7C4",
"+.	c #ABBFA0",
"@.	c #54833A",
"#.	c #ACC0A1",
"$.	c #8CA97C",
"%.	c #538439",
"&.	c #5F8C47",
"*.	c #C7D5C0",
"=.	c #CEDBC9",
"-.	c #D5DFD0",
";.	c #D8E1D2",
">.	c #88A578",
",.	c #95B087",
"'.	c #56853C",
").	c #D9E3D4",
"!.	c #E0E8DD",
"~.	c #E4EAE1",
"{.	c #70975C",
"].	c #729A5F",
"^.	c #7A9B68",
"/.	c #6E965B",
"(.	c #8AA77A",
"_.	c #EBF0E9",
":.	c #A7BC9B",
"<.	c #8BA97C",
"[.	c #658F4E",
"}.	c #71975C",
"|.	c #EAEFE8",
"1.	c #699253",
"2.	c #273221",
"3.	c #84A273",
"4.	c #DAE3D6",
"5.	c #739960",
"6.	c #394A2F",
"7.	c #7C9D6C",
"8.	c #9DB691",
"9.	c #232F1C",
"0.	c #70965B",
"a.	c #759B62",
"b.	c #91AD84",
"c.	c #99B38C",
"d.	c #82A273",
"e.	c #618C49",
"f.	c #6A9455",
"g.	c #608D4A",
"h.	c #58863F",
"                                                ",
"                                                ",
"                  . . . . . .                   ",
"              . . + @ # $ % & . .               ",
"            . * = - ; > , ' ) ! ~ .             ",
"          . { ] ^ / / ( _ : < [ } | .           ",
"        . 1 2 ( / / 3 4 5 6 7 8 9 0 a .         ",
"      . b c ( / / d e > f g h i ' & j k .       ",
"      . l m / / 3 e n o [ p q r s t u v w       ",
"    . x # / / ( 4 > o y ' z t A % B C f k .     ",
"    . D E / / _ 5 f [ ' F G H I J K L M N .     ",
"    . O P / Q : 6 g p z G B R S T U V W X .     ",
"    . T n / Y < 7 h q t H R Z V `  ...+.@..     ",
"    . #.$.%.&.> 8 i r A I S V *.=.-.;.>.( .     ",
"    . z ,.'.4 6 9 ' s % J T ` =.).!.~.{.]..     ",
"      . A ^.e /.0 (.t B K U  .-.!._.:./ .       ",
"      . ^ <.[.}.[ q t C L V ..;.~.|.1.[..       ",
"        2.' 3./.0 (.t B K U  .-.4.5./ .         ",
"          6.[ 7.| ' s % J T ` 8.5 / .           ",
"            9.}.0.a.0 b.c.d.{./ e..             ",
"              . . f.g.N h.( f.. .               ",
"                  . . . . . .                   ",
"                                                ",
"                                                "};
