/* XPM */
static char * speed2_xpm[] = {
"24 24 132 2",
"  	c None",
". 	c #000000",
"+ 	c #B7C792",
"@ 	c #DADCA1",
"# 	c #DBDB9A",
"$ 	c #D7D78E",
"% 	c #CCCF7C",
"& 	c #A8B762",
"* 	c #D7DFBE",
"= 	c #EAE9C3",
"- 	c #D7D68E",
"; 	c #CBCA6A",
"> 	c #B7B634",
", 	c #B5B332",
"' 	c #C5C458",
") 	c #C7C660",
"! 	c #CAC967",
"~ 	c #B6BC57",
"{ 	c #2C2E13",
"] 	c #F4F4E1",
"^ 	c #E4E3B1",
"/ 	c #C6C55D",
"( 	c #AAA80F",
"_ 	c #ACAA17",
": 	c #B1AF20",
"< 	c #B3B228",
"[ 	c #B6B42F",
"} 	c #C0BE49",
"| 	c #C3C254",
"1 	c #C1BF4C",
"2 	c #F7F7E8",
"3 	c #E1E1AA",
"4 	c #ADAB16",
"5 	c #AFAD1C",
"6 	c #B1B026",
"7 	c #B8B637",
"8 	c #BAB93F",
"9 	c #BDBB42",
"0 	c #BEBD47",
"a 	c #BFBE4A",
"b 	c #BBBA40",
"c 	c #DBE4CB",
"d 	c #E7E6BA",
"e 	c #AEAD1D",
"f 	c #BBB93E",
"g 	c #BEBD45",
"h 	c #BCBA41",
"i 	c #AFB33A",
"j 	c #EFEFD2",
"k 	c #C8C761",
"l 	c #B7B636",
"m 	c #BBB940",
"n 	c #C3C256",
"o 	c #C8C763",
"p 	c #CCCB6D",
"q 	c #B5B330",
"r 	c #BCCC9F",
"s 	c #DBDA98",
"t 	c #CECD75",
"u 	c #D0CF7B",
"v 	c #D1D07E",
"w 	c #D2D17F",
"x 	c #AAB03D",
"y 	c #DFE1B2",
"z 	c #CDCC72",
"A 	c #CAC865",
"B 	c #CECD71",
"C 	c #D1D07C",
"D 	c #D4D385",
"E 	c #D6D58B",
"F 	c #D8D78F",
"G 	c #D8D891",
"H 	c #C1C04E",
"I 	c #ADAF20",
"J 	c #E0E0A9",
"K 	c #B8B737",
"L 	c #ADAB18",
"M 	c #D6D68B",
"N 	c #D9DA93",
"O 	c #DDDC9C",
"P 	c #DEDDA1",
"Q 	c #DEDFA2",
"R 	c #B7B536",
"S 	c #B0AE1D",
"T 	c #DBDB98",
"U 	c #E2E1AB",
"V 	c #E4E4B3",
"W 	c #E4E4B5",
"X 	c #D5D488",
"Y 	c #ABA912",
"Z 	c #D3D48B",
"` 	c #C7C65E",
" .	c #ACAA11",
"..	c #B1AF22",
"+.	c #E3E2B0",
"@.	c #E7E6BC",
"#.	c #EBEBC6",
"$.	c #C4C357",
"%.	c #ABA916",
"&.	c #ABBB6C",
"*.	c #ADAB14",
"=.	c #B3B126",
"-.	c #ECEDCA",
";.	c #EFEFD4",
">.	c #F1F0D8",
",.	c #BAB83B",
"'.	c #B5B740",
").	c #BDBC44",
"!.	c #B9B83A",
"~.	c #C6C55B",
"{.	c #F4F4E3",
"].	c #D4D383",
"^.	c #B9BF60",
"/.	c #B4B32B",
"(.	c #C6C45B",
"_.	c #B1B02A",
":.	c #C5C358",
"<.	c #C2C151",
"[.	c #EDEDCC",
"}.	c #2B2B0A",
"|.	c #BFBD48",
"1.	c #CFCE76",
"2.	c #ADB43F",
"3.	c #BAB941",
"4.	c #CDCC70",
"5.	c #AEAF26",
"6.	c #A3AD38",
"7.	c #B0B128",
"8.	c #B1AF1E",
"9.	c #AEAC19",
"0.	c #AAAC17",
"a.	c #AAB136",
"                                                ",
"                                                ",
"                  . . . . . .                   ",
"              . . + @ # $ % & . .               ",
"            . * = - ; > , ' ) ! ~ {             ",
"          . ] ^ / ( ( _ : < [ } | 1 .           ",
"        . 2 3 4 ( ( 5 6 [ 7 8 9 0 a b .         ",
"      . c d 4 ( ( e < > f g 1 | ' ' h i .       ",
"      . j k ( ( 5 < l m a n / o ; p n q .       ",
"    . r s ( ( _ 6 > m 1 ' o p t u v w f x .     ",
"    . y z ( ( : [ f a ' A B C D E F G H I .     ",
"    . J K ( L < 7 g n o B v M N O P Q v L .     ",
"    . O R ( S [ 8 1 / p C M T Q U V W X Y .     ",
"    . Z `  ...> 9 | o t D N Q +.@.= #.$.%..     ",
"    . &.; *.=.7 0 ' ; u E O U @.-.;.>.,.'..     ",
"      . t ).< !.} ~.p v F P V = ;.{.].( .       ",
"      . ^.` /.!.a (.p w G Q W #.>.] q _..       ",
"        . :.<.!.} ~.p v F P V = [.m ( }.        ",
"          . a |.1 ' ; u E O U 1.[ ( .           ",
"            . 2.!.3.a A 4.<.,.( 5..             ",
"              . . 6.7.8.9.0.a.. .               ",
"                  . . . . . .                   ",
"                                                ",
"                                                "};
