/* XPM */
static char * stopmini_xpm[] = {
"10 10 88 1",
" 	c None",
".	c #141212",
"+	c #453C3C",
"@	c #534546",
"#	c #524242",
"$	c #442E30",
"%	c #190C0D",
"&	c #484444",
"*	c #ADA2A2",
"=	c #E1D2D3",
"-	c #E6D6D7",
";	c #DFCFCF",
">	c #CFB5B7",
",	c #936F70",
"'	c #3F2121",
")	c #141011",
"!	c #ACA1A2",
"~	c #F1E7E7",
"{	c #BCB0B0",
"]	c #E4DADA",
"^	c #E4DBDB",
"/	c #AF9E9E",
"(	c #D9B7BA",
"_	c #855959",
":	c #1E0C0C",
"<	c #413839",
"[	c #DED2D3",
"}	c #BCB1B1",
"|	c #2A2020",
"1	c #877E7E",
"2	c #847C7C",
"3	c #241818",
"4	c #A1898A",
"5	c #B2898A",
"6	c #4B2829",
"7	c #4F4242",
"8	c #E2D5D5",
"9	c #E6DCDC",
"0	c #0A0303",
"a	c #0C0303",
"b	c #7A6C6C",
"c	c #D2BBBB",
"d	c #C49EA1",
"e	c #583436",
"f	c #533F3F",
"g	c #E0D0D0",
"h	c #E5DDDD",
"i	c #857C7D",
"j	c #0D0304",
"k	c #0D0404",
"l	c #806F70",
"m	c #CEB1B2",
"n	c #BA8F92",
"o	c #532F30",
"p	c #472E30",
"q	c #C2A5A6",
"r	c #B09C9D",
"s	c #261A19",
"t	c #827272",
"u	c #806E6E",
"v	c #2E1617",
"w	c #9E7577",
"x	c #A06D6F",
"y	c #472324",
"z	c #1C0E0F",
"A	c #947072",
"B	c #D0ADAE",
"C	c #AC9293",
"D	c #D5B8BA",
"E	c #D1B0B2",
"F	c #9E7475",
"G	c #B07C7D",
"H	c #734546",
"I	c #1D0B0C",
"J	c #553638",
"K	c #9C7475",
"L	c #BE9394",
"M	c #C09192",
"N	c #B78485",
"O	c #9E696A",
"P	c #794A4B",
"Q	c #3F2223",
"R	c #201010",
"S	c #503030",
"T	c #583333",
"U	c #552C2D",
"V	c #461F20",
"W	c #1D0B0B",
"  .+@#$%  ",
" &*=-;>,' ",
")!~{]^/(_:",
"<[}|123456",
"78910abcde",
"fghijklmno",
"pqrstuvwxy",
"zABCDEFGHI",
" JKLMNOPQ ",
"  RSTUVW  "};
