/* XPM */
static char * stop_wait_xpm[] = {
"24 24 37 1",
" 	c None",
".	c #000000",
"+	c #E1EADF",
"@	c #FFFFFF",
"#	c #F0F4EF",
"$	c #D4E0D1",
"%	c #F3F7F3",
"&	c #EDF2EB",
"*	c #CEDCCB",
"=	c #F4F7F4",
"-	c #F1F5F0",
";	c #EFF3EE",
">	c #EBF1EA",
",	c #181818",
"'	c #2B2B2B",
")	c #EEF3ED",
"!	c #B1C7AC",
"~	c #9DBB90",
"{	c #88AC80",
"]	c #83AA7C",
"^	c #87AC7D",
"/	c #59814F",
"(	c #3A5934",
"_	c #9ABB8F",
":	c #83AA7A",
"<	c #82A87B",
"[	c #84A778",
"}	c #80A776",
"|	c #85A879",
"1	c #749868",
"2	c #90B387",
"3	c #749A6B",
"4	c #537C49",
"5	c #3B5E31",
"6	c #5D8554",
"7	c #37592F",
"8	c #3F6534",
"                        ",
"                        ",
"                        ",
"                        ",
"                        ",
"      ..    ....        ",
"      .+..  .@+.        ",
"      .@#$...@+.        ",
"      .@%&#*.@+.        ",
"      .@=-;>.@+.        ",
"      .@;;;>.@+.,.      ",
"      '@;;;>.@+.)!..    ",
"      .~{]{].~^./(..    ",
"      ._:^<[.~^...      ",
"      ._^}|1.~^.        ",
"      .2}345.^6.        ",
"      .]67...66.        ",
"      .8..  .68.        ",
"      ..    ....        ",
"                        ",
"                        ",
"                        ",
"                        ",
"                        "};
