/* XPM */
static char * stopmini_xpm[] = {
"10 10 36 1",
" 	c None",
".	c #000000",
"+	c #FFAE32",
"@	c #FFA331",
"#	c #FF722B",
"$	c #FF6228",
"%	c #FF9A30",
"&	c #FF912F",
"*	c #FF6E2A",
"=	c #FF6D2E",
"-	c #FF6F30",
";	c #FF7C28",
">	c #FF7428",
",	c #FF6C27",
"'	c #FF6426",
")	c #FF6027",
"!	c #FF7532",
"~	c #FF6128",
"{	c #FF863B",
"]	c #FF6C28",
"^	c #FF5C26",
"/	c #FF5827",
"(	c #FF9346",
"_	c #FF752C",
":	c #FF6B2C",
"<	c #FF5425",
"[	c #FF4C24",
"}	c #FF4423",
"|	c #FF3F25",
"1	c #FF612A",
"2	c #FF3C23",
"3	c #FF5F3B",
"4	c #FF7155",
"5	c #FF5F29",
"6	c #FF5C43",
"7	c #FFA298",
" ..    .. ",
".+@.  .#$.",
".@%&..*=-.",
" .;>,')!. ",
"  .,'~{.  ",
"  .]^/(.  ",
" ._:<[}|. ",
"._:1..234.",
".^5.  .67.",
" ..    .. "};
