/* XPM */
static char * stop_bar_xpm[] = {
"24 24 133 2",
"  	c None",
". 	c #000000",
"+ 	c #FFFFFF",
"@ 	c #C8E8F7",
"# 	c #F2FBFF",
"$ 	c #89BDD8",
"% 	c #B6DDF1",
"& 	c #6EA5C1",
"* 	c #D5EFFB",
"= 	c #94C7E0",
"- 	c #E5F5FD",
"; 	c #8DC1DB",
"> 	c #DDF1FC",
", 	c #A5A5A5",
"' 	c #B0B0B0",
") 	c #C6C6C6",
"! 	c #E0E0E0",
"~ 	c #BEDDEB",
"{ 	c #C5E5F4",
"] 	c #ACD7ED",
"^ 	c #FAFDFF",
"/ 	c #ADB4B7",
"( 	c #A4BFCB",
"_ 	c #7EAEC7",
": 	c #85B8D2",
"< 	c #FEFEFE",
"[ 	c #E4F5FD",
"} 	c #C0E3F5",
"| 	c #D8D8D8",
"1 	c #8BBCD3",
"2 	c #E2F2FA",
"3 	c #CDEAF9",
"4 	c #D2ECFA",
"5 	c #E9F7FE",
"6 	c #D2D2D2",
"7 	c #81B1C9",
"8 	c #D6EAF5",
"9 	c #D9F0FB",
"0 	c #9FCEE6",
"a 	c #CEEBF9",
"b 	c #C2C2C2",
"c 	c #93B7CA",
"d 	c #E9ECEE",
"e 	c #BADFF3",
"f 	c #B0BDC3",
"g 	c #A6C4D4",
"h 	c #D8E7EF",
"i 	c #EEF7FB",
"j 	c #86A7FF",
"k 	c #A6D0FF",
"l 	c #7791FF",
"m 	c #6E85FE",
"n 	c #6B82FE",
"o 	c #5665D9",
"p 	c #D18F8D",
"q 	c #CB7F7D",
"r 	c #C16866",
"s 	c #B74E4B",
"t 	c #B8D2DF",
"u 	c #CAE3F1",
"v 	c #E7F5FC",
"w 	c #7E9FFF",
"x 	c #95CFFC",
"y 	c #6E87FF",
"z 	c #6A7FFF",
"A 	c #5E6EF2",
"B 	c #5665DA",
"C 	c #DEAFAE",
"D 	c #F2CDCB",
"E 	c #E8B9B8",
"F 	c #D69A99",
"G 	c #BE605E",
"H 	c #B84E4B",
"I 	c #BC504D",
"J 	c #95C1D7",
"K 	c #CAE7F5",
"L 	c #7793FF",
"M 	c #749DFC",
"N 	c #749AFD",
"O 	c #6172F9",
"P 	c #5B6CEC",
"Q 	c #5767DE",
"R 	c #EACCCC",
"S 	c #E1C3C3",
"T 	c #E9B9B8",
"U 	c #FA7571",
"V 	c #6C9DB6",
"W 	c #97C7DE",
"X 	c #F1FAFE",
"Y 	c #698EFC",
"Z 	c #4E6FF3",
"` 	c #4963E5",
" .	c #455DD5",
"..	c #E2B8B7",
"+.	c #F0DBDA",
"@.	c #FBE0DF",
"#.	c #FFEFEA",
"$.	c #E86360",
"%.	c #BD4F4C",
"&.	c #86B9D2",
"*.	c #E8F6FD",
"=.	c #495FD6",
"-.	c #455CD3",
";.	c #3752C5",
">.	c #F4E5E4",
",.	c #FFD8C9",
"'.	c #FD827C",
").	c #D55B57",
"!.	c #A4CEE4",
"~.	c #455DD4",
"{.	c #FFC4C0",
"].	c #C75552",
"^.	c #C5E3F2",
"/.	c #485FD6",
"(.	c #FED1CE",
"_.	c #FFB6AE",
":.	c #D45B57",
"<.	c #E0F1F9",
"[.	c #C36D6A",
"}.	c #FFDCD7",
"|.	c #F17F7C",
"1.	c #FFD4CE",
"2.	c #E0EEF5",
"3.	c #C45350",
"4.	c #C55451",
"5.	c #C75451",
"6.	c #FFA59D",
"7.	c #EB6762",
"8.	c #E3615D",
"9.	c #BA4F4C",
"0.	c #DC5E5A",
"a.	c #DA5D58",
"b.	c #DE5F5A",
"                                                ",
"        . . . . . . . .                         ",
"      . + + + + + @ @ + .                       ",
"        . # @ @ $ $ + .                         ",
"          . % @ & * .                           ",
"          . + + = - .   . . . . . . .           ",
"          . + + ; > . . , ' ) ! ~ { + .         ",
"        . . + + ] ^ . . . / ( _ : < .           ",
"      . + + + + [ } - # . . | 1 2 .             ",
"    . + + + + + + - 3 4 5 . 6 7 8 .             ",
"    . + + + + + [ 9 ] 0 a . b c d . .           ",
"  . + + + + + + [ + e . . . . f g h i .         ",
"  . j k l m n o o . . p q r s . . t u v .       ",
"  . w x y z A B . C D E F q G H I . J K .       ",
"  . L M N O P Q . R . S T p . . U . V W X .     ",
"    . Y Z `  .. ..+.. . @.. . #.$.%.. &.*..     ",
"    . Q =.-.;.. C R >.. . . ,.'.).).. !.*..     ",
"      . o ~.-.. F C ... . . {.].).).. ^..       ",
"        . . /.. q p . . (.. . _.:.:.. <..       ",
"            . . . [.. }.|.1.. . ).. 2..         ",
"                . s 3.4.s 5.6.7.8.. .           ",
"                  . . 9.0.a.b.. .               ",
"                      . . . .                   ",
"                                                "};
