/* XPM */
static char * stop_xpm[] = {
"16 16 23 1",
" 	c None",
".	c #000000",
"+	c #E25F68",
"@	c #D62831",
"#	c #F2F2F2",
"$	c #CEDBE5",
"%	c #EDF4F9",
"&	c #C9D8E8",
"*	c #B5222C",
"=	c #A5C4E2",
"-	c #C0D6EA",
";	c #D3E0EA",
">	c #427EDF",
",	c #4D96FA",
"'	c #458BF2",
")	c #3975DA",
"!	c #3873D8",
"~	c #427CDA",
"{	c #4B89E9",
"]	c #4886E5",
"^	c #4B8CEB",
"/	c #4C8CEB",
"(	c #4684E2",
"                ",
"                ",
"                ",
"                ",
"  ..            ",
" .++.   ...     ",
" .+@.  .#$$..   ",
" .+@.  .#%.&&.  ",
" .+*...##%.=&.  ",
" .+*.####.===&. ",
" .@*..##%.-==&. ",
"  ..$-...-==&&. ",
" .+@.=;-====&.  ",
" .@*.>,')!~~{.  ",
"  .. ..]^/(..   ",
"       ....     "};
