/* XPM */
static char * stop_bar_xpm[] = {
"24 24 169 2",
"  	c None",
". 	c #000000",
"+ 	c #FFFFFF",
"@ 	c #00B7FF",
"# 	c #0092F7",
"$ 	c #0083F7",
"% 	c #007FFF",
"& 	c #F2FBFF",
"* 	c #1484F7",
"= 	c #0D7BF7",
"- 	c #0360D8",
"; 	c #005ED8",
"> 	c #2886F1",
", 	c #2689F7",
"' 	c #0F5EC1",
") 	c #107FFB",
"! 	c #58ABFF",
"~ 	c #4FA6FF",
"{ 	c #257CE0",
"] 	c #2890FD",
"^ 	c #78BBFF",
"/ 	c #6CB5FF",
"( 	c #3283DB",
"_ 	c #3D99FC",
": 	c #005FA5",
"< 	c #0066B0",
"[ 	c #0072C6",
"} 	c #006FE0",
"| 	c #0080EB",
"1 	c #009BF4",
"2 	c #00ADFF",
"3 	c #97CBFF",
"4 	c #89C3FF",
"5 	c #4E9CED",
"6 	c #59ACFF",
"7 	c #0068B7",
"8 	c #006ECB",
"9 	c #0056C7",
"0 	c #006AD2",
"a 	c #00ACFE",
"b 	c #B5DAFF",
"c 	c #BDDEFF",
"d 	c #A2D0FF",
"e 	c #7ABBFD",
"f 	c #51A1F5",
"g 	c #479FFD",
"h 	c #2E95FF",
"i 	c #006BD8",
"j 	c #005DD3",
"k 	c #009EFA",
"l 	c #D9EDFF",
"m 	c #FEFEFF",
"n 	c #B8DEFF",
"o 	c #6CB4FD",
"p 	c #479DF9",
"q 	c #2E8FFA",
"r 	c #1687FE",
"s 	c #0066CF",
"t 	c #0057C7",
"u 	c #0077F4",
"v 	c #FDFEFF",
"w 	c #C0E1FF",
"x 	c #8CC5FD",
"y 	c #6AB2FB",
"z 	c #3D92ED",
"A 	c #257EE6",
"B 	c #1584F5",
"C 	c #005AB7",
"D 	c #0057C1",
"E 	c #0173E9",
"F 	c #BFE7FF",
"G 	c #F7FFFF",
"H 	c #D0E7FF",
"I 	c #87C3FD",
"J 	c #4096F3",
"K 	c #0D5AAC",
"L 	c #1869C6",
"M 	c #2986E9",
"N 	c #3BAEFA",
"O 	c #3A71FF",
"P 	c #B2F3FF",
"Q 	c #8EC7FF",
"R 	c #3B5DFE",
"S 	c #3558FE",
"T 	c #2037D1",
"U 	c #1B34D1",
"V 	c #D18F8D",
"W 	c #CB7F7D",
"X 	c #C16866",
"Y 	c #B74E4B",
"Z 	c #3B84D1",
"` 	c #499DEB",
" .	c #5EC0FB",
"..	c #2D65FF",
"+.	c #B5F0FC",
"@.	c #80C1FF",
"#.	c #2E50FF",
"$.	c #233FF0",
"%.	c #1B34D2",
"&.	c #DEAFAE",
"*.	c #F2CDCB",
"=.	c #E8B9B8",
"-.	c #D69A99",
";.	c #BE605E",
">.	c #B84E4B",
",.	c #BC504D",
"'.	c #488AC8",
").	c #73C4EF",
"!.	c #2054FF",
"~.	c #3E9AFC",
"{.	c #7BB5FD",
"].	c #2449F8",
"^.	c #1A38E9",
"/.	c #1632D7",
"(.	c #EACCCC",
"_.	c #E1C3C3",
":.	c #E9B9B8",
"<.	c #FA7571",
"[.	c #3F729D",
"}.	c #5A99CF",
"|.	c #99DCF8",
"1.	c #194FFC",
"2.	c #184CF3",
"3.	c #1030E1",
"4.	c #0E2ACE",
"5.	c #E2B8B7",
"6.	c #F0DBDA",
"7.	c #FBE0DF",
"8.	c #FFEFEA",
"9.	c #E86360",
"0.	c #BD4F4C",
"a.	c #598CB5",
"b.	c #A2DCEC",
"c.	c #0A29D7",
"d.	c #0A2BCE",
"e.	c #0A29CB",
"f.	c #0721BE",
"g.	c #F4E5E4",
"h.	c #FFD8C9",
"i.	c #FD827C",
"j.	c #D55B57",
"k.	c #6B93B1",
"l.	c #A0D1DB",
"m.	c #052BD1",
"n.	c #052ACC",
"o.	c #052ECB",
"p.	c #FFC4C0",
"q.	c #C75552",
"r.	c #7EA1AB",
"s.	c #003FCE",
"t.	c #FED1CE",
"u.	c #FFB6AE",
"v.	c #D45B57",
"w.	c #80A3AA",
"x.	c #C36D6A",
"y.	c #FFDCD7",
"z.	c #F17F7C",
"A.	c #FFD4CE",
"B.	c #5A8BA2",
"C.	c #C45350",
"D.	c #C55451",
"E.	c #C75451",
"F.	c #FFA59D",
"G.	c #EB6762",
"H.	c #E3615D",
"I.	c #BA4F4C",
"J.	c #DC5E5A",
"K.	c #DA5D58",
"L.	c #DE5F5A",
"                                                ",
"        . . . . . . . .                         ",
"      . + + + + @ # $ % .                       ",
"        . & * = - ; % .                         ",
"          . > , ' ) .                           ",
"          . ! ~ { ] .   . . . . . . .           ",
"          . ^ / ( _ . . : < [ } | 1 2 .         ",
"        . . 3 4 5 6 . . . 7 8 9 0 a .           ",
"      . b c b d e f g h . . i j k .             ",
"    . b l + m n 3 o p q r . s t u .             ",
"    . c + + v w x y z A B . C D E . .           ",
"  . 3 F G + H b I ^ J . . . . K L M N .         ",
"  . O P Q R S T U . . V W X Y . . Z `  ..       ",
"  . ..+.@.#.$.%.. &.*.=.-.W ;.>.,.. '.)..       ",
"  . !.~.{.].^./.. (.. _.:.V . . <.. [.}.|..     ",
"    . 1.2.3.4.. 5.6.. . 7.. . 8.9.0.. a.b..     ",
"    . c.d.e.f.. &.(.g.. . . h.i.j.j.. k.l..     ",
"      . m.n.o.. -.&.5.. . . p.q.j.j.. r..       ",
"        . . s.. W V . . t.. . u.v.v.. w..       ",
"            . . . x.. y.z.A.. . j.. B..         ",
"                . Y C.D.Y E.F.G.H.. .           ",
"                  . . I.J.K.L.. .               ",
"                      . . . .                   ",
"                                                "};
