/* XPM */
static char * up_xpm[] = {
"20 12 48 1",
" 	c None",
".	c #000000",
"+	c #E4E4E4",
"@	c #D8D8D8",
"#	c #E6E6E6",
"$	c #DADADA",
"%	c #CECECE",
"&	c #C2C2C2",
"*	c #E8E8E8",
"=	c #DCDCDC",
"-	c #D0D0D0",
";	c #C4C4C4",
">	c #B8B8B8",
",	c #ACACAC",
"'	c #EAEAEA",
")	c #DEDEDE",
"!	c #D2D2D2",
"~	c #C6C6C6",
"{	c #BABABA",
"]	c #AEAEAE",
"^	c #A2A2A2",
"/	c #969696",
"(	c #ECECEC",
"_	c #E0E0E0",
":	c #D4D4D4",
"<	c #C8C8C8",
"[	c #BCBCBC",
"}	c #B0B0B0",
"|	c #A4A4A4",
"1	c #989898",
"2	c #8C8C8C",
"3	c #848484",
"4	c #EEEEEE",
"5	c #E2E2E2",
"6	c #D6D6D6",
"7	c #CACACA",
"8	c #BEBEBE",
"9	c #B2B2B2",
"0	c #A6A6A6",
"a	c #9A9A9A",
"b	c #8E8E8E",
"c	c #F0F0F0",
"d	c #CCCCCC",
"e	c #C0C0C0",
"f	c #B4B4B4",
"g	c #A8A8A8",
"h	c #9C9C9C",
"i	c #909090",
"                    ",
"         ..         ",
"        ....        ",
"       ..+@..       ",
"      ..#$%&..      ",
"     ..*=-;>,..     ",
"    ..')!~{]^/..    ",
"   ..(_:<[}|123..   ",
"  ..4567890ab333..  ",
" ..c+@defghi33333.. ",
"....................",
"                    "};
