/* XPM */
static char * up_bar_xpm[] = {
"24 24 108 2",
"  	c None",
". 	c #000000",
"+ 	c #EBF8EE",
"@ 	c #D7F2DE",
"# 	c #C3EBCE",
"$ 	c #AFE5BE",
"% 	c #9BDFAE",
"& 	c #87D89D",
"* 	c #73D28D",
"= 	c #5FCB7D",
"- 	c #E0F5E6",
"; 	c #DCF7E7",
"> 	c #BEF1CE",
", 	c #4BC56D",
"' 	c #37BF5C",
") 	c #C2FAD9",
"! 	c #8CE1A3",
"~ 	c #93E8AB",
"{ 	c #7ADF95",
"] 	c #57E67F",
"^ 	c #7BE096",
"/ 	c #65D885",
"( 	c #3FDC69",
"_ 	c #EEFEFF",
": 	c #F7FFFF",
"< 	c #E2FEFF",
"[ 	c #CCF6FE",
"} 	c #FCFFFF",
"| 	c #F6FFFF",
"1 	c #DEFFFF",
"2 	c #CFFBFF",
"3 	c #ABCEDD",
"4 	c #8CA6B9",
"5 	c #39C45F",
"6 	c #44EF73",
"7 	c #9BB8CE",
"8 	c #A6C5DC",
"9 	c #D5FCFF",
"0 	c #96B5C0",
"a 	c #3FDE6A",
"b 	c #4CF680",
"c 	c #C3EAFD",
"d 	c #D0FDFF",
"e 	c #ABCDDE",
"f 	c #39C55F",
"g 	c #46F075",
"h 	c #56FE92",
"i 	c #C7EFFE",
"j 	c #B2D4EC",
"k 	c #FEFFFF",
"l 	c #B6DAED",
"m 	c #BCDFF9",
"n 	c #D6FCFE",
"o 	c #F8FFFF",
"p 	c #CCF5FE",
"q 	c #C3EAFE",
"r 	c #F9FEFF",
"s 	c #FEFEFE",
"t 	c #DFFDFE",
"u 	c #B0D1E8",
"v 	c #AACAE1",
"w 	c #BFE3FD",
"x 	c #DEFDFE",
"y 	c #FDFFFF",
"z 	c #D2FAFE",
"A 	c #BCE1F7",
"B 	c #BEE2FC",
"C 	c #EDFEFF",
"D 	c #DDFDFE",
"E 	c #C3E9FE",
"F 	c #B4D6EF",
"G 	c #8EA9BD",
"H 	c #B7DAF3",
"I 	c #F1FEFE",
"J 	c #FFFFFF",
"K 	c #FAFFFF",
"L 	c #D6FDFF",
"M 	c #C1E7FE",
"N 	c #A5C4DA",
"O 	c #D5FFFF",
"P 	c #B4D9E5",
"Q 	c #9CBACD",
"R 	c #91ACC1",
"S 	c #9DBBD1",
"T 	c #E4FEFE",
"U 	c #FCFEFF",
"V 	c #D7FEFF",
"W 	c #D0FBFF",
"X 	c #9CBAD0",
"Y 	c #A7C6DD",
"Z 	c #ACCCE4",
"` 	c #9AB7CD",
" .	c #9FC1CA",
"..	c #B4D9E3",
"+.	c #7F95EC",
"@.	c #889BED",
"#.	c #7D93EC",
"$.	c #7D94EC",
"%.	c #6878CD",
"&.	c #5866AE",
"*.	c #6373C4",
"=.	c #7285E2",
"-.	c #778BEB",
";.	c #6879CD",
">.	c #6676C7",
",.	c #6171C1",
"'.	c #7688E8",
").	c #6D7FD8",
"                                                ",
"                                                ",
"                    . .                         ",
"                  . + @ .                       ",
"                . + @ # $ .                     ",
"              . + @ # $ % & .                   ",
"            . + @ # $ % & * = .                 ",
"          . + - ; > % & * = , ' .               ",
"            . . . ) ! * = . . .                 ",
"                . ~ { = ] .                     ",
"      . . . .   . ^ / , ( .     . . . .         ",
"    . _ : < [ . . = , ' ( .   . } | 1 2 .       ",
"      . 3 4 .   . , ' 5 6 .     . 7 8 .         ",
"      . 9 0 .   . ' ' a b .     . c 7 .         ",
"      . d e .   . ' f g h .     . i j .         ",
"    . k k l m .   . . . .     . n o p q .       ",
"  . r s t u v w .           . x } y z A B .     ",
"  . C D E F G H .         . I J K L M N j w .   ",
"  . O P Q R S F .         . T U V W M X Y H .   ",
"    . Z `  ....           . +.@.#.$.%.&.*.=..   ",
"      . . . .               . -.;.>.,.%.'..     ",
"                              . -.-.).-..       ",
"                                . . . .         ",
"                                                "};
