/* XPM */
static char * up_bar_xpm[] = {
"24 24 49 1",
" 	c None",
".	c #000000",
"+	c #B1C7AC",
"@	c #3A5934",
"#	c #181818",
"$	c #EEF3ED",
"%	c #59814F",
"&	c #CBDAC7",
"*	c #DEE7DC",
"=	c #759B6C",
"-	c #445840",
";	c #F0F4EF",
">	c #D7E3D5",
",	c #84A778",
"'	c #537C49",
")	c #C9D8C5",
"!	c #E5ECE3",
"~	c #7EA476",
"{	c #759C6D",
"]	c #4B7040",
"^	c #F1F5F0",
"/	c #EBF1EA",
"(	c #E4EBE2",
"_	c #85A879",
":	c #86A97C",
"<	c #CEDCCB",
"[	c #83AA7C",
"}	c #749868",
"|	c #3B5E31",
"1	c #EFF3EE",
"2	c #88AC80",
"3	c #82A87B",
"4	c #D4E0D1",
"5	c #EDF2EB",
"6	c #87AC7D",
"7	c #80A776",
"8	c #749A6B",
"9	c #37592F",
"0	c #F3F7F3",
"a	c #F4F7F4",
"b	c #83AA7A",
"c	c #5D8554",
"d	c #E1EADF",
"e	c #FFFFFF",
"f	c #9DBB90",
"g	c #9ABB8F",
"h	c #90B387",
"i	c #3F6534",
"j	c #2B2B2B",
"                        ",
"                        ",
"                        ",
"                        ",
"           ..           ",
"           ..           ",
"          .+@.          ",
"          #$%.          ",
"         .&*=-.         ",
"         .;>,'.         ",
"        .)!*~{].        ",
"        .^/(_:'.        ",
"       .<///[,}|.       ",
"       .;11123_'.       ",
"      .45^11[6789.      ",
"      .;0a112b67c.      ",
"     .deeeeefggh[i.     ",
"     ......j.......     ",
"                        ",
"                        ",
"                        ",
"                        ",
"                        ",
"                        "};
