/* XPM */
static char * upmini_xpm[] = {
"10 10 27 1",
" 	c None",
".	c #000000",
"+	c #D6FD1B",
"@	c #B0EE19",
"#	c #B0E718",
"$	c #99DC19",
"%	c #80CB19",
"&	c #6CC319",
"*	c #B9FF1C",
"=	c #88D118",
"-	c #73C619",
";	c #5FBE1A",
">	c #4CB51B",
",	c #38AD1B",
"'	c #92D919",
")	c #7ED01A",
"!	c #66C01A",
"~	c #52B81A",
"{	c #3FB01B",
"]	c #2BA81C",
"^	c #23BD21",
"/	c #25C923",
"(	c #32AB1C",
"_	c #1EA21C",
":	c #22B620",
"<	c #1FA91D",
"[	c #26D224",
"    ..    ",
"   .+@.   ",
"  .#$%&.  ",
" .*=-;>,. ",
".')!~{]^/.",
"....(_....",
"   ._:.   ",
"   ._^.   ",
"   .<[.   ",
"   ....   "};
