/* XPM */
static char * upmini_xpm[] = {
"10 10 55 1",
" 	c None",
".	c #000000",
"+	c #485146",
"@	c #172415",
"#	c #131413",
"$	c #AFB5AD",
"%	c #425E3B",
"&	c #040503",
"*	c #5D625C",
"=	c #DAE5D8",
"-	c #6D8F64",
";	c #1F2C1D",
">	c #141614",
",	c #B5BEB3",
"'	c #DFE8DD",
")	c #799F70",
"!	c #4C6C44",
"~	c #070B06",
"{	c #4C4F4B",
"]	c #EDF2EC",
"^	c #E7EDE5",
"/	c #84A87A",
"(	c #6E9363",
"_	c #192615",
":	c #C2C9C1",
"<	c #85AA7C",
"[	c #7FA375",
"}	c #45663D",
"|	c #6A6F68",
"1	c #E7ECE5",
"2	c #F0F4EF",
"3	c #EFF3EE",
"4	c #84AA7C",
"5	c #83A979",
"6	c #6A9061",
"7	c #1E2F1A",
"8	c #1B1C1B",
"9	c #B6B9B5",
"0	c #F7FAF7",
"a	c #F7F9F7",
"b	c #F5F8F5",
"c	c #8FB285",
"d	c #8EB183",
"e	c #84A97A",
"f	c #4A6743",
"g	c #070C06",
"h	c #121312",
"i	c #454644",
"j	c #484848",
"k	c #5E5E5E",
"l	c #2C3529",
"m	c #2B3528",
"n	c #293326",
"o	c #1D281A",
"p	c #050804",
"    ..    ",
"    +@    ",
"   #$%&   ",
"   *=-;   ",
"  >,')!~  ",
"  {]^/(_  ",
" .:]]<[}. ",
" |1234567 ",
"890abcdefg",
"hijjklmnop"};
