/* XPM */
static char * urlmng_xpm[] = {
"40 40 45 1",
" 	c None",
".	c #000000",
"+	c #FFFFFF",
"@	c #C9C9C9",
"#	c #E2E2E2",
"$	c #B7B7B7",
"%	c #9A9A9A",
"&	c #C8C8C8",
"*	c #ADADAD",
"=	c #727272",
"-	c #7B7B7B",
";	c #848484",
">	c #CBCBCB",
",	c #909090",
"'	c #999999",
")	c #CDCDCD",
"!	c #D0D0D0",
"~	c #797979",
"{	c #818181",
"]	c #D2D2D2",
"^	c #D4D4D4",
"/	c #8A8A8A",
"(	c #929292",
"_	c #D7D7D7",
":	c #D9D9D9",
"<	c #9D9D9D",
"[	c #DBDBDB",
"}	c #DEDEDE",
"|	c #E0E0E0",
"1	c #A0A0A0",
"2	c #E5E5E5",
"3	c #A2A2A2",
"4	c #E7E7E7",
"5	c #A5A5A5",
"6	c #E9E9E9",
"7	c #A7A7A7",
"8	c #ECECEC",
"9	c #AAAAAA",
"0	c #EEEEEE",
"a	c #F0F0F0",
"b	c #AFAFAF",
"c	c #F3F3F3",
"d	c #B2B2B2",
"e	c #F5F5F5",
"f	c #B5B5B5",
"                                        ",
"                                        ",
"                                        ",
"                                        ",
"     .........                          ",
"   ..+++++++++.                         ",
"  .++++++++++@@.           .........    ",
" .####++++++@@$%.        ..+++++++++.   ",
" .&&&&###+@@$$%%.       .++++++++++@@.  ",
" .&&&&&&&#$$%%%%........####++++++@@$%. ",
" .&&&&&&&&*%%%..+++++++.&&&&###+@@$$%%. ",
" .=-;&&&&&*%%.+++++++++.&&&&&&&#$$%%%%. ",
" .>>>,''''*%.####++++++.&&&&&&&&*%%%%%. ",
" .))))))))*%.&&&&###+@@.=-;&&&&&*%%%%%. ",
" .!!!!!!!!*%.&&&&&&&#$$.>>>,''''*%%%%%. ",
" .=~{]]]]]*%.&&&&&&&&*%.))))))))*%%%%%. ",
" .^^^/('''*%.=-;&&&&&*%.!!!!!!!!*%%%%%. ",
" .________*%.>>>,''''*%.=~{]]]]]*%%%%%. ",
" .::::::::*%.))))))))*%.^^^/('''*%%%%<. ",
" .[[[[[[[[*%.!!!!!!!!*%.________*%%%%.  ",
" .}}}}}%%}*%.=~{]]]]]*%.::::::::*%%%%.  ",
" .|||||%%|*%.^^^/('''*%.[[[[[[[[*%%%<.  ",
" .########*%.________*%.}}}}}%%}*%%%1.  ",
" .22222%%2*%.::::::::*%.|||||%%|*%%%3.  ",
" .44444%%4*%.[[[[[[[[*%.########*%%<5.  ",
" .66666666*%.}}}}}%%}*%.22222%%2*%%17.  ",
" .888888%8*%.|||||%%|*%.44444%%4*%%39.  ",
" .000000%0*%.########*%.66666666*%<5*.  ",
" .aaaaaaaa*<.22222%%2*%.888888%8*%17b.  ",
" .cccccccc*1.44444%%4*%.000000%0*%39d.  ",
"  .eeeeeee*3.66666666*%.aaaaaaaa*<5*f.  ",
"   ....****..888888%8*%.cccccccc*17b.   ",
"       .... .000000%0*%3.eeeeeee*39.    ",
"            .aaaaaaaa*<5*....****..     ",
"            .cccccccc*17b.   ....       ",
"             .eeeeeee*39.               ",
"              ....****..                ",
"                  ....                  ",
"                                        ",
"                                        "};
