/* XPM */
static char * wait_xpm[] = {
"16 16 90 1",
" 	c None",
".	c #000000",
"+	c #FFFFFF",
"@	c #D4D5D7",
"#	c #73777D",
"$	c #D9DFE6",
"%	c #C2CBD8",
"&	c #727579",
"*	c #C3CEDB",
"=	c #8598B2",
"-	c #929AA7",
";	c #939CAC",
">	c #E9ECF0",
",	c #D9E0E7",
"'	c #DAE1E9",
")	c #879CB8",
"!	c #727D8C",
"~	c #929AA8",
"{	c #A5AFBD",
"]	c #A7B2C1",
"^	c #CCD4DE",
"/	c #CDD5E0",
"(	c #C4CEDC",
"_	c #C5D0DF",
":	c #727E8C",
"<	c #8892A2",
"[	c #A5B0BD",
"}	c #B3BCCA",
"|	c #B8C2D0",
"1	c #D6DDE7",
"2	c #E8EDF3",
"3	c #F4F6FA",
"4	c #ACBDD3",
"5	c #939BAA",
"6	c #A6B1BE",
"7	c #B5C0CD",
"8	c #C0CAD7",
"9	c #C8D3DF",
"0	c #ADC0D7",
"a	c #A0B6D2",
"b	c #7D8898",
"c	c #A8B2C0",
"d	c #CED7E3",
"e	c #D9E2ED",
"f	c #F7F9FC",
"g	c #ECF1F8",
"h	c #8DA7C9",
"i	c #9AA7B6",
"j	c #9CA9BA",
"k	c #B8C4D2",
"l	c #EEF2F8",
"m	c #E8EDF6",
"n	c #F9FBFD",
"o	c #ECF2FA",
"p	c #8EABCF",
"q	c #B4C0D0",
"r	c #C9D3DF",
"s	c #D8E1EB",
"t	c #F0F5FA",
"u	c #F0F5FB",
"v	c #B4C9E5",
"w	c #7899C2",
"x	c #B5C3D4",
"y	c #EDF1F6",
"z	c #E1E7F1",
"A	c #E8EEF6",
"B	c #EAF0F8",
"C	c #F6F9FC",
"D	c #F6F9FD",
"E	c #FBFCFE",
"F	c #8BAAD2",
"G	c #EAEFF5",
"H	c #D4DEEA",
"I	c #F1F5FA",
"J	c #EFF4FB",
"K	c #ECF3FB",
"L	c #B6CCEA",
"M	c #7B9DCA",
"N	c #DCE4EF",
"O	c #C8D6E7",
"P	c #C3D2E5",
"Q	c #E0E9F5",
"R	c #EEF3FB",
"S	c #BDD1EB",
"T	c #92B0D7",
"U	c #7B9ECB",
"V	c #B6CAE3",
"W	c #B8CCE7",
"X	c #9EB9DC",
"Y	c #92B1D8",
"  ...           ",
" .+@#.    ...   ",
".++.......+$%.  ",
".&..+++++...*=. ",
" ..+++-;>,'..). ",
" .++!~{]^/(_..  ",
" .+:<[}|1234.   ",
".++56789..+0a.  ",
".+bc..d..efgh.  ",
".+ijk...lmnop.  ",
".++qrs.l+tuvw.  ",
" .+xyzABCDEF.   ",
" .+GHnInJKLM.   ",
"  .NOPQRSTU.    ",
"   ..VWXY..     ",
"     ....       "};
