/* XPM */
static char * dndtrash_bar_xpm[] = {
"24 24 317 2",
"  	c None",
". 	c #000000",
"+ 	c #101016",
"@ 	c #50506E",
"# 	c #8686BE",
"$ 	c #AAABFA",
"% 	c #A2A4F9",
"& 	c #9B9CF8",
"* 	c #7C7BD0",
"= 	c #484880",
"- 	c #10101E",
"; 	c #5D5C78",
"> 	c #AAABDD",
", 	c #BFC0FB",
"' 	c #BBBCFB",
") 	c #B4B4FB",
"! 	c #ACADFA",
"~ 	c #A2A2FA",
"{ 	c #9899F8",
"] 	c #8D8FF8",
"^ 	c #797BE3",
"/ 	c #46458A",
"( 	c #0B0B15",
"_ 	c #090A0C",
": 	c #8787AB",
"< 	c #CBCEFD",
"[ 	c #CFD0FD",
"} 	c #CDCEFD",
"| 	c #C8C9FC",
"1 	c #C0C1FB",
"2 	c #B6B6FB",
"3 	c #AAAEFA",
"4 	c #9FA1F9",
"5 	c #9394F8",
"6 	c #8889F7",
"7 	c #7D7EF6",
"8 	c #6260CE",
"9 	c #090A15",
"0 	c #8A8BAB",
"a 	c #DEDEFE",
"b 	c #E4E5FE",
"c 	c #E7E8FE",
"d 	c #D5D5FD",
"e 	c #C9CAFC",
"f 	c #BDBEFB",
"g 	c #B0B2FB",
"h 	c #A4A6FA",
"i 	c #B0B0FA",
"j 	c #B2B1FA",
"k 	c #A3A3F9",
"l 	c #9290F8",
"m 	c #5858C3",
"n 	c #090915",
"o 	c #5C5C78",
"p 	c #CBCCFC",
"q 	c #F0F0FE",
"r 	c #FFFFFF",
"s 	c #FEFFFF",
"t 	c #E8E8FE",
"u 	c #D0D1FD",
"v 	c #C3C4FC",
"w 	c #B5B5FB",
"x 	c #FBFAFF",
"y 	c #F8F3FF",
"z 	c #E2E0FF",
"A 	c #A4A3FB",
"B 	c #6C6AF4",
"C 	c #4544A4",
"D 	c #A8A8DD",
"E 	c #CDCDFC",
"F 	c #DDDEFD",
"G 	c #FCFCFF",
"H 	c #FFFCFE",
"I 	c #FFF1FD",
"J 	c #FBDFFB",
"K 	c #CB8DC1",
"L 	c #B97BBB",
"M 	c #B47AC8",
"N 	c #EBB4F7",
"O 	c #F8EBFE",
"P 	c #F9F8FF",
"Q 	c #D9D6FD",
"R 	c #7F7EF5",
"S 	c #6D6CF3",
"T 	c #6360F2",
"U 	c #101028",
"V 	c #4F4F6E",
"W 	c #BCBCFB",
"X 	c #CACBFD",
"Y 	c #D7D8FD",
"Z 	c #EBEBFE",
"` 	c #FEF6FE",
" .	c #FFE3FC",
"..	c #FFD7FC",
"+.	c #EAA7DE",
"@.	c #B963A7",
"#.	c #DD74D7",
"$.	c #F473F6",
"%.	c #EC68FA",
"&.	c #E9B6FC",
"*.	c #9494F8",
"=.	c #7879F5",
"-.	c #6C6DF4",
";.	c #625FF2",
">.	c #3B389A",
",.	c #686996",
"'.	c #B7B8FB",
").	c #C4C5FC",
"!.	c #D0D0FD",
"~.	c #DADBFD",
"{.	c #F0D8F8",
"].	c #FFCBFC",
"^.	c #FFCEFE",
"/.	c #FDF3FD",
"(.	c #E1D0ED",
"_.	c #FDCEFD",
":.	c #FB85FD",
"<.	c #F361FD",
"[.	c #A93CCB",
"}.	c #7D6FE7",
"|.	c #7675F5",
"1.	c #6B6AF4",
"2.	c #6060F2",
"3.	c #4545C1",
"4.	c #A6A7FA",
"5.	c #B0B1FA",
"6.	c #BBBDFB",
"7.	c #CCCEFD",
"8.	c #CA9BD1",
"9.	c #F4AEED",
"0.	c #FFB7FC",
"a.	c #FFFDFF",
"b.	c #F3D6FE",
"c.	c #CA4FDD",
"d.	c #7D26A3",
"e.	c #7340BF",
"f.	c #7371F5",
"g.	c #6868F4",
"h.	c #5E5DF2",
"i.	c #5552F0",
"j.	c #111030",
"k.	c #9E9FF9",
"l.	c #A8A8FA",
"m.	c #B1B3FB",
"n.	c #B9B9FB",
"o.	c #BA8BCB",
"p.	c #C86CBB",
"q.	c #FB9EF9",
"r.	c #FFFCFF",
"s.	c #FCFAFF",
"t.	c #EAEAFE",
"u.	c #893BB3",
"v.	c #7720A0",
"w.	c #6E27AE",
"x.	c #6F6BF2",
"y.	c #6464F3",
"z.	c #5B5CF2",
"A.	c #524EF0",
"B.	c #100F30",
"C.	c #9798F8",
"D.	c #9E9EF9",
"E.	c #B1B1FA",
"F.	c #AD7DCC",
"G.	c #AC50A8",
"H.	c #E977E8",
"I.	c #FFFBFF",
"J.	c #FEFEFF",
"K.	c #FCFBFF",
"L.	c #DCDBFE",
"M.	c #7D39B0",
"N.	c #731AA0",
"O.	c #6A24AC",
"P.	c #6866EF",
"Q.	c #615EF2",
"R.	c #5856F1",
"S.	c #4F4EEF",
"T.	c #0F0F2F",
"U.	c #9091F7",
"V.	c #9595F8",
"W.	c #9D9CF8",
"X.	c #A1A1F9",
"Y.	c #A5A6F9",
"Z.	c #A16FCB",
"`.	c #CB5DD0",
" +	c #F670F9",
".+	c #FCF5FF",
"++	c #F9F7FF",
"@+	c #F5F1FF",
"#+	c #E5DEFF",
"$+	c #A132CC",
"%+	c #6E169F",
"&+	c #6629B4",
"*+	c #6664F2",
"=+	c #5E5AF1",
"-+	c #5451EF",
";+	c #4D4AEE",
">+	c #504F94",
",+	c #8A89F7",
"'+	c #9091F8",
")+	c #9496F8",
"!+	c #9799F8",
"~+	c #A96BDD",
"{+	c #F05DFA",
"]+	c #F25FFC",
"^+	c #F2EBFF",
"/+	c #E1E2FE",
"(+	c #E0D8FF",
"_+	c #D17BFD",
":+	c #C62CF7",
"<+	c #7818B4",
"[+	c #6148D2",
"}+	c #5F60F2",
"|+	c #5756F1",
"1+	c #4F4BF0",
"2+	c #3A36BF",
"3+	c #373A6C",
"4+	c #7F7FF6",
"5+	c #8586F6",
"6+	c #8986F7",
"7+	c #9395F8",
"8+	c #CD7FF9",
"9+	c #D846F9",
"0+	c #DD42FA",
"a+	c #B865E3",
"b+	c #8447BD",
"c+	c #B544F1",
"d+	c #B829F7",
"e+	c #BB24FC",
"f+	c #A04CEF",
"g+	c #6361F1",
"h+	c #5A56F1",
"i+	c #5150F0",
"j+	c #4A48EF",
"k+	c #2D2C98",
"l+	c #0A0B15",
"m+	c #6868D8",
"n+	c #7A7AF6",
"o+	c #7D7DF6",
"p+	c #C1C0FC",
"q+	c #D983FD",
"r+	c #C72FF8",
"s+	c #C531F4",
"t+	c #791DAB",
"u+	c #6B17A0",
"v+	c #821FC4",
"w+	c #AE34FA",
"x+	c #A869FD",
"y+	c #B4ADFF",
"z+	c #8482F9",
"A+	c #5351F0",
"B+	c #4B49EF",
"C+	c #4641EE",
"D+	c #0C0C28",
"E+	c #353675",
"F+	c #6F6FF4",
"G+	c #8D8BF8",
"H+	c #D5D5FF",
"I+	c #D5C2FE",
"J+	c #C9A3FE",
"K+	c #9375F2",
"L+	c #6E5BE1",
"M+	c #6956DF",
"N+	c #675BE6",
"O+	c #918AFB",
"P+	c #A19EFF",
"Q+	c #A4A1FF",
"R+	c #9693FE",
"S+	c #5E58F4",
"T+	c #4543EE",
"U+	c #2F2DA2",
"V+	c #4E4CA6",
"W+	c #AAA8FC",
"X+	c #ABA6FD",
"Y+	c #B2B2FD",
"Z+	c #9C9AFB",
"`+	c #6A68F4",
" @	c #6665F3",
".@	c #6362F2",
"+@	c #605CF2",
"@@	c #6260F3",
"#@	c #9592FD",
"$@	c #837DFD",
"%@	c #807BFD",
"&@	c #6D67FB",
"*@	c #3933BF",
"=@	c #060515",
"-@	c #07060C",
";@	c #4846A5",
">@	c #6763F2",
",@	c #5F5DF1",
"'@	c #5D5BF1",
")@	c #5A58F1",
"!@	c #5755F0",
"~@	c #534EEF",
"{@	c #5453F0",
"]@	c #4B46EF",
"^@	c #3E39C9",
"/@	c #070715",
"(@	c #2B2A73",
"_@	c #4B49D4",
":@	c #5551F0",
"<@	c #5451F0",
"[@	c #534FF0",
"}@	c #504FF0",
"|@	c #4D4BEF",
"1@	c #4946EF",
"2@	c #3F3BDB",
"3@	c #272385",
"4@	c #060615",
"5@	c #232369",
"6@	c #3A38B6",
"7@	c #4B48EF",
"8@	c #4742EF",
"9@	c #4744EE",
"0@	c #3A39C8",
"a@	c #24237C",
"b@	c #08081D",
"                                                ",
"                  . . . . .                     ",
"              + @ # $ % & * = - .               ",
"          . ; > , ' ) ! ~ { ] ^ / (             ",
"        _ : < [ } | 1 2 3 4 5 6 7 8 9           ",
"      . 0 a b c b d e f g h i j k l m n         ",
"      o p q r r s t u v w ' x y z A B C .       ",
"    + D E F G H I J K L M N O P Q R S T U       ",
"    V W X Y Z `  ...+.@.#.$.%.&.*.=.-.;.>..     ",
"  . ,.'.).!.~.{.].^./.(._.:.<.[.}.|.1.2.3..     ",
"  . 4.5.6.).7.8.9.0.a.r a.b.c.d.e.f.g.h.i.j.    ",
"  . k.l.m.n., o.p.q.r.r s.t.u.v.w.x.y.z.A.B.    ",
"  . C.D.4.! E.F.G.H.I.J.K.L.M.N.O.P.Q.R.S.T.    ",
"  . U.V.W.X.Y.Z.`. +.+++@+#+$+%+&+*+=+-+;+T.    ",
"  . >+,+'+)+!+~+{+]+^+/+(+_+:+<+[+}+|+1+2+.     ",
"    3+4+5+6+7+8+9+0+a+b+c+d+e+f+g+h+i+j+k+.     ",
"    l+m+n+o+p+q+r+s+t+u+v+w+x+y+z+A+B+C+D+      ",
"      E+F+G+H+I+J+K+L+M+N+O+P+Q+R+S+T+U+.       ",
"      . V+W+X+Y+Z+`+ @.@+@@@#@$@%@&@*@=@        ",
"        -@;@*+>@.@,@'@)@!@~@{@1+]@^@/@          ",
"          . (@_@:@<@[@}@|@1@C+2@3@4@            ",
"              /@5@6@7@8@9@0@a@b@.               ",
"                  . . . . .                     ",
"                                                "};
